<svg xmlns="http://www.w3.org/2000/svg" width="361.901" height="218.588" viewBox="0 0 361.901 218.588">
    <defs>
        <style>
            .cls-180{fill:#23beb9}.cls-181{fill:#0e3944}.cls-182{fill:#205260}.cls-183{fill:#8b383e}.cls-5{fill:#662c33}.cls-6{fill:#f3a886}.cls-7{fill:#cfd8dc}.cls-8{fill:#8bbddb}.cls-13,.cls-19,.cls-25,.cls-28,.cls-9{fill:#db614d}.cls-9{opacity:.49}.cls-10{fill:#ffb878}.cls-11{fill:#1a4850}.cls-14{isolation:isolate}.cls-15{fill:#fff}.cls-16{fill:#164353}.cls-17{fill:#225866}.cls-18{fill:#6097b2}.cls-19{opacity:.66}.cls-23{fill:#dd9072}.cls-24{fill:#0c476b}.cls-25{opacity:.62}.cls-27{fill:#105e99}.cls-28{opacity:.55}.cls-30{fill:none}
        </style>
    </defs>
    <g id="Group_4617" transform="translate(-858.275 -175.074)">
        <path id="Path_3911" d="M973.866 321.774a14 14 0 0 1 5.475-1v7.2c-.867-.067-1.449-.1-1.75-.1a7.148 7.148 0 0 0-5.25 1.875q-1.9 1.875-1.9 5.625v12.7h-7.8v-26.9h7.449v3.551a8.665 8.665 0 0 1 3.776-2.951z" class="cls-180"/>
        <g id="Group_4670">
            <g id="Group_4638">
                <path id="Path_3736" d="M1160.15 393.662H1172a24.137 24.137 0 0 0-.493-9.424l-5.415-.929c-.493 2.977-1.087 4.15-1.91 4.755h-.006a8.292 8.292 0 0 1-2.209.888 2.842 2.842 0 0 0-1.829 1.7 5.044 5.044 0 0 0 .012 3.01z" class="cls-181"/>
                <path id="Path_3737" d="M1160.135 390.654c2.921.366 9.337.991 8.946-.7-.325-1.412-3.033-1.793-4.9-1.889h-.006a8.292 8.292 0 0 1-2.209.888 2.842 2.842 0 0 0-1.831 1.701z" class="cls-182"/>
            </g>
            <g id="Group_4639">
                <path id="Path_3738" d="M1199.825 393.662h11.846a5.5 5.5 0 0 0 .2-2.281 2.874 2.874 0 0 0-2.017-2.429 6.34 6.34 0 0 1-2.459-1.092c-.7-.66-1.224-1.879-1.666-4.551l-5.415.929a24.246 24.246 0 0 0-.489 9.424z" class="cls-181"/>
                <path id="Path_3739" d="M1211.875 391.381a2.874 2.874 0 0 0-2.017-2.429 6.34 6.34 0 0 1-2.459-1.092c-1.5.463-3.6 1.311-4.247 2.6-.904 1.759 6.02 1.48 8.723.921z" class="cls-182"/>
            </g>
            <g id="Group_4642">
                <g id="Group_4640">
                    <path id="Path_3740" d="M1206.584 384.116s-.9 2.942-6.8.91c0 0-4.383-32.925-5.06-33.648s-7.632-22.232-7.632-22.232h-2.178s-6.955 21.505-7.632 22.232-5.056 33.648-5.056 33.648c-5.907 2.032-6.809-.91-6.809-.91l2.837-35.5 5.912-36.6 11.834 1.326 11.837-1.322 1.541 9.558.065.375 4.3 26.666z" class="cls-183"/>
                </g>
                <g id="Group_4641">
                    <path id="Path_3741" d="M1199.442 321.953a7.812 7.812 0 0 1-5.313-4.772l.33-.1a7.454 7.454 0 0 0 4.918 4.5z" class="cls-5"/>
                    <path id="Path_3742" d="M1186.813 325.9a1.582 1.582 0 0 1-1.2.5c.014.883 0 1.816-.05 2.75h-.343a55.021 55.021 0 0 0-.247-7.806l.338-.041c.005.036.243 2.123.293 4.749a1.265 1.265 0 0 0 .961-.384c1.13-1.194.476-4.644.467-4.676l.338-.064c.03.142.697 3.651-.557 4.972z" class="cls-5"/>
                </g>
            </g>
            <g id="Group_4643">
                <path id="Path_3743" d="M1218.719 247.635a10.9 10.9 0 0 0-2 1.042 6.214 6.214 0 0 1-2.351 1.656c-.753.214-.817 1.59-.817 1.59s-2.9 1.237-3.43-.636c0 0 1.234-2.713 1.291-3.058.118-.688-.5-1.57-.029-2.778a9.819 9.819 0 0 0 .479-2.961s.631-.339.83.308-.123 1.664.055 1.925a.806.806 0 0 0 .121.143.039.039 0 0 1 .009.013.741.741 0 0 0 .578.239.1.1 0 0 0 .047 0c.753-.163 1.88-1.463 2.326-2.088.619-.87 1.539-2.021 1.908-1.431s-.464.707-1.479 2.887l.176.171a9.021 9.021 0 0 0 2.241-1.974c.682-.777.992-.066.914.282s-.875 1.033-1.361 1.6c-.326.371-.667.756-.871.984l.132.3c1.9-.809 2.063-1.612 2.563-1.279s-.583 1.4-1.184 1.671a5.672 5.672 0 0 0-1.069.791c1.571-.335 1.86-.913 2.2-.561s-.736 1.052-1.279 1.164z" class="cls-6"/>
                <path id="Path_3744" d="M1213.408 247.133a2.983 2.983 0 0 0-.533-2.254.741.741 0 0 0 .578.239 1.784 1.784 0 0 1-.045 2.015z" class="cls-6"/>
            </g>
            <g id="Group_4644">
                <path id="Path_3745" d="M1129.788 264.572a10.871 10.871 0 0 1 2.245.232 6.2 6.2 0 0 0 2.8.676c.779-.078 1.345 1.179 1.345 1.179s3.148.086 2.956-1.852c0 0-2.145-2.07-2.325-2.37-.363-.6-.11-1.644-.994-2.594a9.806 9.806 0 0 1-1.534-2.578s-.711-.083-.658.592.726 1.5.656 1.811a.805.805 0 0 1-.06.177.035.035 0 0 0 0 .016.74.74 0 0 1-.449.434.1.1 0 0 1-.045.014 6.037 6.037 0 0 1-2.931-1.086c-.9-.582-2.174-1.315-2.3-.63s.691.487 2.437 2.141l-.1.224a9 9 0 0 1-2.81-1.012c-.92-.472-.947.3-.746.6a8.3 8.3 0 0 0 1.854.989c.439.226.9.459 1.172.6l-.014.325c-2.061-.056-2.511-.741-2.854-.248s1.059 1.093 1.716 1.118a5.663 5.663 0 0 1 1.284.344c-1.584.265-2.065-.166-2.251.286s1.06.707 1.606.612z" class="cls-6"/>
                <path id="Path_3746" d="M1134.543 262.153a2.983 2.983 0 0 1-.333-2.292.74.74 0 0 1-.449.434 1.785 1.785 0 0 0 .782 1.858z" class="cls-6"/>
            </g>
            <g id="Group_4651">
                <g id="Group_4645">
                    <path id="Path_3747" d="M1214.33 252.52s-.315 1.157-.828 2.9c-.206.714-.448 1.524-.714 2.4-.412 1.35-.883 2.841-1.382 4.324-.269.81-.549 1.615-.832 2.393a41.216 41.216 0 0 1-2.146 5.078c-.1.179-.192.348-.284.5a10.782 10.782 0 0 1-1.148 1.51 39.775 39.775 0 0 1-3.048 3.056c-.6.554-1.235 1.121-1.889 1.689-1.071.928-2.192 1.871-3.3 2.777-.695.572-1.386 1.13-2.054 1.661-3.427 2.731-6.264 4.831-6.264 4.831l-5.115-10.45c1.459-.988 4.15-2.645 6.963-4.338.664-.4 1.332-.8 1.995-1.2 1.03-.613 2.041-1.212 2.974-1.771.733-.43 1.419-.837 2.037-1.2.873-.517 1.61-.948 2.136-1.259l.9-.526.622-1.208c.453-.883 1.126-2.182 1.895-3.651.338-.65.7-1.336 1.066-2.032.581-1.107 1.189-2.246 1.775-3.335.38-.705.755-1.391 1.1-2.027.983-1.775 1.807-3.194 2.233-3.761a5.478 5.478 0 0 1 3.308 3.639z" class="cls-7"/>
                </g>
                <g id="Group_4646">
                    <path id="Path_3748" d="M1198.755 279.154c-.695.572-1.386 1.13-2.054 1.661a19.479 19.479 0 0 0-4.416-9.957c.664-.4 1.332-.8 1.995-1.2a21.6 21.6 0 0 1 4.475 9.496z" class="cls-8"/>
                </g>
                <g id="Group_4647">
                    <path id="Path_3749" d="M1203.948 274.688c-.6.554-1.235 1.121-1.889 1.689a17.478 17.478 0 0 0-4.8-8.493c.733-.43 1.419-.837 2.037-1.2a19.679 19.679 0 0 1 4.652 8.004z" class="cls-8"/>
                </g>
                <g id="Group_4648">
                    <path id="Path_3750" d="M1208.428 269.618c-.1.179-.192.348-.284.5a10.782 10.782 0 0 1-1.148 1.51 23.282 23.282 0 0 0-5.569-6.2l.9-.526.622-1.208a25.111 25.111 0 0 1 5.479 5.924z" class="cls-8"/>
                </g>
                <g id="Group_4649">
                    <path id="Path_3751" d="M1211.406 262.147c-.269.81-.549 1.615-.832 2.393a29.734 29.734 0 0 0-5.733-4.5c.338-.65.7-1.336 1.066-2.032a32.81 32.81 0 0 1 5.499 4.139z" class="cls-8"/>
                </g>
                <g id="Group_4650">
                    <path id="Path_3752" d="M1213.5 255.425c-.206.714-.448 1.524-.714 2.4a17.888 17.888 0 0 0-5.106-3.148c.38-.705.755-1.391 1.1-2.027a20.86 20.86 0 0 1 4.72 2.775z" class="cls-8"/>
                </g>
            </g>
            <g id="Group_4658">
                <g id="Group_4652">
                    <path id="Path_3753" d="M1171.11 277.9l-.915 11.6s-3.208-.856-7.225-2.078c-.773-.233-1.574-.48-2.384-.736-1.432-.453-2.9-.938-4.319-1.437-.773-.27-1.528-.54-2.256-.819a41.7 41.7 0 0 1-4.415-1.9 10.75 10.75 0 0 1-1.579-.961c-.132-.1-.27-.215-.416-.343a35.73 35.73 0 0 1-3.358-3.436c-.508-.586-1.03-1.194-1.556-1.821-1.03-1.24-2.059-2.53-3-3.743-.507-.645-.983-1.267-1.427-1.848-1.62-2.133-2.745-3.693-2.745-3.693a3.759 3.759 0 0 1 2.123-3.473c.713.44 2.379 1.753 4.319 3.336.576.471 1.18.965 1.789 1.469 1.029.851 2.077 1.729 3.052 2.553.622.521 1.212 1.02 1.757 1.478l2.169 1.848c.5.426.8.677.8.677s.494.078 1.336.206c.741.115 1.757.275 2.928.462.718.11 1.492.234 2.306.366 1 .165 2.059.334 3.13.513.759.123 1.523.252 2.278.375 3.069.527 5.97 1.044 7.608 1.405z" class="cls-7"/>
                </g>
                <g id="Group_4653">
                    <path id="Path_3754" d="M1162.97 287.426c-.773-.233-1.574-.48-2.384-.736a33.114 33.114 0 0 1 .632-10.565c.759.123 1.523.252 2.278.375a31.236 31.236 0 0 0-.526 10.926z" class="cls-8"/>
                </g>
                <g id="Group_4654">
                    <path id="Path_3755" d="M1158.088 275.612a32.373 32.373 0 0 0-1.821 9.641c-.773-.27-1.528-.54-2.256-.819a34.332 34.332 0 0 1 1.771-9.188c.718.11 1.492.234 2.306.366z" class="cls-8"/>
                </g>
                <g id="Group_4655">
                    <path id="Path_3756" d="M1152.854 274.784a43.047 43.047 0 0 0-3.258 7.751 10.75 10.75 0 0 1-1.579-.961c-.132-.1-.27-.215-.416-.343a46.283 46.283 0 0 1 3.121-7.33c.5.426.8.677.8.677s.49.078 1.332.206z" class="cls-8"/>
                </g>
                <g id="Group_4656">
                    <path id="Path_3757" d="M1148.553 272.053a45.312 45.312 0 0 0-4.31 5.742c-.508-.586-1.03-1.194-1.556-1.821a48.047 48.047 0 0 1 4.109-5.4c.622.526 1.212 1.026 1.757 1.479z" class="cls-8"/>
                </g>
                <g id="Group_4657">
                    <path id="Path_3758" d="M1143.744 268.022a42.239 42.239 0 0 0-4.059 4.209c-.507-.645-.983-1.267-1.427-1.848a43.477 43.477 0 0 1 3.7-3.83c.573.471 1.177.965 1.786 1.469z" class="cls-8"/>
                </g>
            </g>
            <g id="Group_4665">
                <path id="Path_3759" d="M1201.738 314.792s-6.4 6.694-15.108 8.351a88.31 88.31 0 0 1-14.5 1.473s-.389-1.743-.988-4.479c-.151-.7-.32-1.478-.5-2.3-.32-1.478-.677-3.129-1.047-4.877-.161-.746-.321-1.506-.485-2.283-.3-1.423-.609-2.888-.916-4.356-.155-.755-.311-1.515-.462-2.27-.379-1.862-.75-3.706-1.089-5.454q-.233-1.187-.439-2.306c-.4-2.1-.732-3.99-.975-5.532-.141-.915-.251-1.706-.32-2.342-.023-.229-.041-.44-.055-.627-.114-1.588-.174-3.061-.192-4.384-.014-.86-.009-1.651 0-2.365.041-2.521.192-4.063.192-4.063 1.808-1.235 14.267 2.764 14.267 2.764s9.2-7.921 10.642-7.349a5.589 5.589 0 0 1 2.325 2.091 16.031 16.031 0 0 1 1.208 2.059 36.556 36.556 0 0 1 1.862 4.548c.265.787.526 1.611.782 2.462.421 1.4.815 2.882 1.194 4.4.188.768.376 1.551.554 2.338.339 1.482.659 2.987.952 4.488q.24 1.194.457 2.375c.252 1.354.49 2.69.7 3.981.142.832.275 1.651.4 2.443.279 1.761.522 3.4.728 4.859.123.892.233 1.711.329 2.448.324 2.415.484 3.907.484 3.907z" class="cls-7"/>
                <g id="Group_4659">
                    <path id="Path_3760" d="M1193.3 276.541c-2.782 2.837-7.683 7.014-13.32 8.14a19.342 19.342 0 0 1-3.724.325 53.794 53.794 0 0 1-11.59-1.6c-.014-.86-.009-1.651 0-2.365 4.933 1.19 10.89 2.192 14.866 1.4 5.312-1.057 10.075-5.349 12.56-7.957a16.031 16.031 0 0 1 1.208 2.057z" class="cls-8"/>
                </g>
                <g id="Group_4660">
                    <path id="Path_3761" d="M1195.941 283.551c-2.841 2.663-9.974 7.641-23.527 7.641a61.6 61.6 0 0 1-7.184-.435c-.141-.915-.251-1.706-.32-2.342 19.743 2.448 28.327-5.253 30.249-7.326.265.787.526 1.611.782 2.462z" class="cls-8"/>
                </g>
                <g id="Group_4661">
                    <path id="Path_3762" d="M1197.689 290.291c-5.5 3.1-16.742 8.318-30.015 8.318-.343 0-.687-.005-1.03-.014q-.233-1.187-.439-2.306c13.772.4 25.7-5.353 30.93-8.336.188.768.376 1.547.554 2.338z" class="cls-8"/>
                </g>
                <g id="Group_4662">
                    <path id="Path_3763" d="M1199.1 297.154c-4.767 2.6-16.911 8.451-30.9 9.165-.155-.755-.311-1.515-.462-2.27 14.235-.663 26.836-7.01 30.908-9.27q.235 1.194.454 2.375z" class="cls-8"/>
                </g>
                <g id="Group_4663">
                    <path id="Path_3764" d="M1200.2 303.578c-5.459 3.2-17.346 9.146-30.605 9.38-.161-.746-.321-1.506-.485-2.283 13.456-.119 25.8-6.608 30.692-9.54.143.832.276 1.651.398 2.443z" class="cls-8"/>
                </g>
                <g id="Group_4664">
                    <path id="Path_3765" d="M1201.258 310.885c-5.623 3.134-18.055 9.265-29.306 9.265q-.405 0-.81-.013c-.151-.7-.32-1.478-.5-2.3 11.467.536 25.106-6.465 30.286-9.4.124.892.234 1.711.33 2.448z" class="cls-8"/>
                </g>
            </g>
            <path id="Path_3766" d="M1180.828 275.1s-.373 3.1.772 4.052c0 0-.58 2.211-2.3 2.631-1.986.486-3.1-1.6-3.1-1.6s.523-3.028-.727-3.819z" class="cls-6"/>
            <g id="Group_4669">
                <path id="Path_3767" d="M1182.331 268.524s1.211-2.053-1.687-5.307c0 0-1.373-3.116-6.1-3.834s-8.236 4.442-8.236 7.277 1.678 0 1.678 0a11.805 11.805 0 0 0 .915 2.868s-.175 2.857 1.628 2.861 11.802-3.865 11.802-3.865z" class="cls-181"/>
                <path id="Path_3768" d="M1171.477 271.951s-1.88-.933-1.5.768c.438 1.971 2.424 2.158 2.559 1.44s-1.059-2.208-1.059-2.208z" class="cls-6"/>
                <path id="Path_3769" d="M1181.374 268.743s.937-1.879 1.662-.293c.839 1.836-.633 3.183-1.174 2.691s-.488-2.398-.488-2.398z" class="cls-6"/>
                <path id="Path_3770" d="M1178.573 277.243c-3.126 1.048-5.575-.4-7.628-6.525-1.059-3.159-.1-5.635 3.4-6.809s5.626.269 6.685 3.428c2.205 6.579.77 8.823-2.457 9.906z" class="cls-6"/>
                <path id="Path_3771" d="M1180.726 269.868a.781.781 0 1 1-.96-.173.7.7 0 0 1 .96.173z" class="cls-9"/>
                <path id="Path_3772" d="M1174.354 272.194a.781.781 0 1 1-.892-.394.7.7 0 0 1 .892.394z" class="cls-9"/>
                <g id="Group_4666">
                    <path id="Path_3773" d="M1178.231 267.17a.162.162 0 0 1-.129-.011 1.882 1.882 0 0 0-1.349-.031.168.168 0 0 1-.212-.1.165.165 0 0 1 .1-.212 2.2 2.2 0 0 1 1.617.049.165.165 0 0 1-.024.3z" class="cls-10"/>
                </g>
                <g id="Group_4667">
                    <path id="Path_3774" d="M1172.346 269.143a.162.162 0 0 1-.122-.007.164.164 0 0 1-.08-.219 2.206 2.206 0 0 1 1.26-1.014.165.165 0 0 1 .2.11.168.168 0 0 1-.11.206 1.9 1.9 0 0 0-1.056.838.17.17 0 0 1-.092.086z" class="cls-10"/>
                </g>
                <path id="Path_3775" d="M1178.517 268.919c.13.388.061.761-.155.834s-.5-.184-.626-.572-.061-.762.155-.834.496.184.626.572z" class="cls-11"/>
                <path id="Path_3776" d="M1174.343 270.318c.13.388.061.762-.155.834s-.5-.184-.626-.572-.061-.761.155-.834.496.184.626.572z" class="cls-11"/>
                <path id="Path_3777" d="M1175.735 274.471s2.876-.569 4.065-1.725c0 0-.172 2.145-1.734 2.482a2.261 2.261 0 0 1-2.331-.757z" class="cls-11"/>
                <g id="Group_4668" opacity="0.49">
                    <path id="Path_3778" d="M1177.666 272.732a3.06 3.06 0 0 1-.741.132l-.018-.35c.358-.019.89-.138.958-.308.024-.059-.028-.16-.141-.278a13.779 13.779 0 0 1-1.722-3.312l.328-.124a13.813 13.813 0 0 0 1.647 3.193.61.61 0 0 1 .214.65.806.806 0 0 1-.525.397z" class="cls-13"/>
                </g>
                <path id="Path_3779" d="M1173.437 262.517c-6.989 2.592-2.791 9.187-2.791 9.187l1.014.921a6.082 6.082 0 0 1-.129-2.939 4.3 4.3 0 0 1-.391-2.733 13.01 13.01 0 0 1 7.088-2.592 4.521 4.521 0 0 1 1.2 2.16 10.2 10.2 0 0 1 2.29 3.193l.122-1.621s-1.616-8.093-8.403-5.576z" class="cls-10"/>
            </g>
        </g>
        <g id="Group_4671" class="cls-14">
            <path id="Path_3780" d="M1103.54 313.074h8.1v28.4h17.548v6.6h-25.648z" class="cls-15"/>
            <path id="Path_3781" d="M1153.939 323.749q3.35 2.975 3.35 8.976v15.349h-7.3v-3.349q-2.2 3.75-8.2 3.75a12.73 12.73 0 0 1-5.375-1.051 8 8 0 0 1-3.475-2.9 7.544 7.544 0 0 1-1.2-4.2 7.009 7.009 0 0 1 2.825-5.9q2.825-2.15 8.725-2.15h6.2a4.967 4.967 0 0 0-1.55-3.924 6.826 6.826 0 0 0-4.65-1.375 13.572 13.572 0 0 0-4.225.674 11.2 11.2 0 0 0-3.525 1.826l-2.8-5.451a16.912 16.912 0 0 1 5.275-2.4 23.657 23.657 0 0 1 6.326-.85q6.249 0 9.599 2.975zm-6.65 18.55a5.059 5.059 0 0 0 2.2-2.725v-2.75h-5.35q-4.8 0-4.8 3.151a2.8 2.8 0 0 0 1.174 2.375 5.293 5.293 0 0 0 3.225.875 6.79 6.79 0 0 0 3.551-.925z" class="cls-15"/>
            <path id="Path_3782" d="M1187.064 322.5a12.4 12.4 0 0 1 4.825 4.851 15.994 15.994 0 0 1 0 14.549 12.39 12.39 0 0 1-4.825 4.85 13.713 13.713 0 0 1-6.826 1.726q-5.549 0-8.449-3.5v3.1h-7.45v-37.1h7.8v13.049a10.385 10.385 0 0 1 8.1-3.25 13.723 13.723 0 0 1 6.825 1.725zm-3.25 17.55a8.61 8.61 0 0 0 0-10.85 7 7 0 0 0-9.85 0 8.607 8.607 0 0 0 0 10.85 7 7 0 0 0 9.85 0z" class="cls-15"/>
        </g>
        <g id="Group_4679">
            <g id="Group_4672">
                <path id="Path_3783" d="M1120.321 392.687a6.653 6.653 0 0 1-.051.858h-14.559c0-.288 0-.575.021-.858a26.708 26.708 0 0 1 1.367-7.112l3.638-1.562a5.819 5.819 0 0 0 2.133 3.854 5.2 5.2 0 0 0 .832.534c.134.072.267.139.406.2a7.185 7.185 0 0 0 .93.344 22.713 22.713 0 0 0 3.495.611c1.552.244 1.788 2.036 1.788 3.131z" class="cls-16"/>
                <path id="Path_3784" d="M1120.321 392.687a6.653 6.653 0 0 1-.051.858h-14.559c0-.288 0-.575.021-.858z" class="cls-17"/>
                <path id="Path_3785" d="M1113.7 388.4l-2.019.648-.427-.74 1.614-.442a5.2 5.2 0 0 0 .832.534z" class="cls-17"/>
                <path id="Path_3786" d="M1115.038 388.946l-1.361.9-.838-.329 1.269-.919a7.185 7.185 0 0 0 .93.348z" class="cls-17"/>
            </g>
            <g id="Group_4673">
                <path id="Path_3787" d="M1064.7 392.687a3.639 3.639 0 0 1-.165.858h-9.7a4.337 4.337 0 0 1-.272-.858c-.956-4.64 5.488-10.319 5.488-10.319l2.045 2.729s-.236 4.368 1.5 5.277a2.217 2.217 0 0 1 1.104 2.313z" class="cls-16"/>
                <path id="Path_3788" d="M1054.564 392.687h10.136a3.639 3.639 0 0 1-.165.858h-9.7a4.337 4.337 0 0 1-.271-.858z" class="cls-17"/>
                <path id="Path_3789" d="M1063.15 390.027s-4.086-.932-5.949.274v-.674s3.437-1.67 5.949.4z" class="cls-17"/>
                <path id="Path_3790" d="M1062.34 388.99a6.67 6.67 0 0 0-5.139 0l.289-.68s3.022-1.143 4.85.68z" class="cls-17"/>
            </g>
            <path id="Path_3791" d="M1115.927 351.432c.005 3.9-3.458 35.7-3.458 35.7a20.232 20.232 0 0 1-6.239-.35c-.95-16.115-1.043-29.975-1.043-29.975l-16.6-12.441-.041-.031s-.061.283-.175.786c-.822 3.649-4.3 18.932-5.75 22.432-1.65 3.987-19.686 20.757-19.686 20.757a13.887 13.887 0 0 1-6.193-2.889 213.907 213.907 0 0 1 15.3-21.512c.689-3.87 1.182-12.477 1.475-18.911l.015-.3c.2-4.358.293-7.647.293-7.647l-3.042-6.238 19.328-7.1 4.332 5.544s.991.92 2.554 2.39l.216.2c5.805 5.473 18.714 17.838 18.714 19.585z" class="cls-8"/>
            <g id="Group_4674">
                <path id="Path_3792" d="M1073.521 345l.015-.3c4.07-2.21 3.387-5.735 3.377-5.771l.252-.052c.01.036.74 3.823-3.644 6.123z" class="cls-18"/>
                <path id="Path_3793" d="M1088.29 341.873a21.816 21.816 0 0 1 .3 2.493l-.041-.031s-.061.283-.175.786a18.814 18.814 0 0 0-2.7-9.656l.211-.149a17.434 17.434 0 0 1 2.359 6.265c2.939-2.611.062-7.961.031-8.012l.226-.123c.026.054 3.073 5.719-.211 8.427z" class="cls-18"/>
                <path id="Path_3794" d="M1097.217 331.847c-.006.006-.016.006-.021.011a1.118 1.118 0 0 1-.4.067c-1.423 0-3.813-1.994-3.926-2.092l.17-.2c.776.657 2.939 2.235 3.962 2.009z" class="cls-18"/>
            </g>
            <path id="Path_3795" d="M1072.14 297.55s5.88-.946 8.825.931 6.814 6.779 6.814 6.779-4.592.607-5.112 3.726c0 0-3.336-7.944-10.527-11.436z" class="cls-181"/>
            <path id="Path_3796" d="M1063.3 300.616c-2.487 1.345-6.644 6.392-6.832 9.5-.183 3.028 2.06 5.812 3.572 8.18 4.718 7.386 9.685 13.913 11.8 22.577.013.055 10.792 4.332 23.441-10.873 0 0-7.148-9.617-9.617-17.8-1.005-3.333-2.028-6.873-3.958-9.811a10.506 10.506 0 0 0-9.558-4.831 23.514 23.514 0 0 0-8.848 3.058z" class="cls-181"/>
            <path id="Path_3797" d="M1062.253 297.517s1.59 2.718.855 4.213c0 0 5.459 1.884 5.459-1.17 0 0-1.029-2.289-.642-3.768z" class="cls-6"/>
            <path id="Path_3798" d="M1074.381 316.129s-3.036.862-3.8 1.937a15.11 15.11 0 0 0-1.448 3.486h5.25l.988-1.817 1.155-2.421z" class="cls-6"/>
            <g id="Group_4678">
                <path id="Path_3799" d="M1069.362 294.487s2.132-.894.753-7.306c-.914-4.248-2.23-4.881-3.081-4.918 0 0-1.04-1.568-4.649-.818a6.7 6.7 0 0 0-5.312 4.793c-.907 2.9.906 9.115 3.293 9.733z" class="cls-16"/>
                <path id="Path_3800" d="M1069.866 290.154s1.344-1.87 1.851-.027c.588 2.136-1.242 3.337-1.741 2.709s-.11-2.682-.11-2.682z" class="cls-6"/>
                <path id="Path_3801" d="M1058.626 292.125s-1.873-1.339-1.761.569c.129 2.211 2.247 2.761 2.519 2.006s-.758-2.575-.758-2.575z" class="cls-6"/>
                <path id="Path_3802" d="M1065.7 298.926c3.567-.588 5.2-3.251 4.043-10.24-.594-3.605-2.793-5.514-6.789-4.855s-5.315 3.148-4.72 6.754c1.244 7.515 3.785 8.949 7.466 8.341z" class="cls-6"/>
                <path id="Path_3803" d="M1059.832 292.883a.856.856 0 1 0 .841-.661.765.765 0 0 0-.841.661z" class="cls-19"/>
                <path id="Path_3804" d="M1067.2 291.867a.856.856 0 1 0 .662-.84.766.766 0 0 0-.662.84z" class="cls-19"/>
                <g id="Group_4675">
                    <path id="Path_3805" d="M1060.836 288.989a.18.18 0 0 1-.15-.282 2.422 2.422 0 0 1 1.543-.878.179.179 0 0 1 .2.155.182.182 0 0 1-.155.2 2.082 2.082 0 0 0-1.291.722.181.181 0 0 1-.147.083z" class="cls-11"/>
                </g>
                <g id="Group_4676">
                    <path id="Path_3806" d="M1067.553 287.881a.185.185 0 0 1-.109-.036 2.069 2.069 0 0 0-1.453-.27.179.179 0 0 1-.213-.142.182.182 0 0 1 .142-.213 2.417 2.417 0 0 1 1.742.336.181.181 0 0 1-.109.325z" class="cls-11"/>
                </g>
                <path id="Path_3807" d="M1061.486 290.829c.073.443.332.769.578.729s.386-.433.313-.876-.332-.769-.578-.729-.386.433-.313.876z" class="cls-11"/>
                <path id="Path_3808" d="M1066.25 290.043c.073.443.332.769.578.729s.387-.433.314-.876-.332-.769-.579-.729-.386.433-.313.876z" class="cls-11"/>
                <path id="Path_3809" d="M1067.588 294.066a14.5 14.5 0 0 1-4.812.5 3.015 3.015 0 0 0 2.881 1.063c1.694-.429 1.931-1.563 1.931-1.563z" class="cls-11"/>
                <path id="Path_3810" d="M1067.734 285.442a18.654 18.654 0 0 1-9.081 3.138l.143 4.5s-4.711-8.681 4.606-10.218 6.606 8.158 6.606 8.158-.289-4.182-2.274-5.578z" class="cls-181"/>
                <g id="Group_4677" opacity="0.66">
                    <path id="Path_3811" d="M1064.44 292.857l-.025-.389c.005 0 .543-.042.682-.375.058-.137-.171-.574-.373-.959a7.369 7.369 0 0 1-.778-1.942l.382-.077a7.021 7.021 0 0 0 .741 1.838c.3.572.516.984.388 1.291a1.244 1.244 0 0 1-1.017.613z" class="cls-13"/>
                </g>
                <path id="Path_3812" fill="#ce364c" d="M1069.919 285.453c-6.773-2.939-13.166 3.156-13.166 3.156s-.745-4.939.56-6.1a7.794 7.794 0 0 1 1.084-.807 11.435 11.435 0 0 1 8.793-1.2 2.214 2.214 0 0 1 .827.462c1.083 1.123 1.902 4.489 1.902 4.489z"/>
                <path id="Path_3813" d="M1069.1 284.354a16.017 16.017 0 0 0-10.992 2.384 15.018 15.018 0 0 1 .293-5.031 11.435 11.435 0 0 1 8.793-1.2 13.787 13.787 0 0 1 1.906 3.847z" class="cls-7"/>
                <path id="Path_3814" fill="#a02e44" d="M1057.313 288.028s.9-3.83 2.117-4.909c2.021-1.795 7.7-2.411 10.685-1.332s0 4.34 0 4.34-4.757-3.408-12.802 1.901z"/>
            </g>
            <path id="Path_3815" d="M1066.1 313.479a18.961 18.961 0 0 0 6.284 5.72s4.953-4.3 11.376-3.913c0 0-5.323 9.6-9.894 10.667-2.4.559-11.087-5.192-11.087-5.192s1.731-6.112 3.321-7.282z" class="cls-23"/>
            <path id="Path_3816" d="M1057.535 306.95c2.128-3.463 7.036 1.657 8.707 5.314s2.889 4.432 2.889 4.432-4.9 2.049-4.869 5.725c0 0-11.369-7.913-6.727-15.471z" class="cls-181"/>
            <path id="Path_3817" d="M1072.381 317.617s2.988-2.931 12.81-6.756l-1.268-3.99a4.378 4.378 0 0 1 3.2-1.483s5.033 7.107 4.167 9.229c-.544 1.326-11.041 2.718-18.909 3z" class="cls-6"/>
            <path id="Path_3818" d="M1083.139 311.818a2.6 2.6 0 0 1 .44-.932c.363-.513.265-1.445.4-1.734a4.956 4.956 0 0 1 1.416-1.7c.513-.23 1.186-.6 1.329.045s-.919.467-1.4 1.4a4.135 4.135 0 0 1 1.871-.141c.827.2 1.062.952.039.927a4.6 4.6 0 0 0-1.866.561s1.063.16.892.65c-.238.679-1.534.262-3.121.924z" class="cls-23"/>
        </g>
        <g id="Group_4688">
            <g id="Group_4680">
                <path id="Path_3819" d="M903.645 259.246a10.619 10.619 0 0 1 2.1.63 6.041 6.041 0 0 0 2.542 1.152c.758.067 1.068 1.368 1.068 1.368s2.987.653 3.156-1.23c0 0-1.67-2.362-1.787-2.681-.237-.634.194-1.588-.477-2.654a9.53 9.53 0 0 1-.994-2.737s-.663-.208-.735.445.419 1.564.3 1.846a.763.763 0 0 1-.09.158.049.049 0 0 0-.006.014.717.717 0 0 1-.507.333.093.093 0 0 1-.046.005 5.858 5.858 0 0 1-2.6-1.568c-.748-.717-1.834-1.648-2.079-1.018s.57.59 1.935 2.484l-.137.2a8.8 8.8 0 0 1-2.5-1.476c-.791-.617-.957.117-.819.435s1.021.826 1.588 1.28c.378.3.773.6 1.009.78l-.072.308c-1.955-.427-2.26-1.163-2.676-.755s.811 1.234 1.433 1.378a5.5 5.5 0 0 1 1.162.561c-1.559-.035-1.939-.533-2.2-.136s.894.87 1.432.878z" class="cls-6"/>
                <path id="Path_3820" d="M908.617 257.8a2.9 2.9 0 0 1 .1-2.246.717.717 0 0 1-.507.333 1.732 1.732 0 0 0 .407 1.913z" class="cls-6"/>
            </g>
            <g id="Group_4681">
                <path id="Path_3821" d="M991.511 259.246a10.619 10.619 0 0 0-2.1.63 6.038 6.038 0 0 1-2.543 1.152c-.757.067-1.068 1.368-1.068 1.368s-2.986.653-3.155-1.23c0 0 1.67-2.362 1.787-2.681.237-.634-.194-1.588.476-2.654a9.5 9.5 0 0 0 .994-2.737s.663-.208.736.445-.419 1.564-.3 1.846a.763.763 0 0 0 .09.158.049.049 0 0 1 .006.014.717.717 0 0 0 .507.333.089.089 0 0 0 .045.005 5.861 5.861 0 0 0 2.6-1.568c.748-.717 1.834-1.648 2.078-1.018s-.57.59-1.934 2.484l.137.2a8.789 8.789 0 0 0 2.5-1.476c.792-.617.958.117.82.435s-1.021.826-1.588 1.28c-.378.3-.774.6-1.009.78l.072.308c1.955-.427 2.26-1.163 2.676-.755s-.812 1.234-1.433 1.378a5.5 5.5 0 0 0-1.162.561c1.558-.035 1.939-.533 2.2-.136s-.894.87-1.432.878z" class="cls-6"/>
                <path id="Path_3822" d="M986.538 257.8a2.894 2.894 0 0 0-.1-2.246.717.717 0 0 0 .507.333 1.731 1.731 0 0 1-.407 1.913z" class="cls-6"/>
            </g>
            <path id="Path_3823" d="M965.266 349.773l-5.737-35.523-11.488 1.283-11.488-1.283-5.737 35.523-2.756 34.454s.876 2.854 6.607.882c0 0 4.252-31.956 4.909-32.66s7.409-21.576 7.409-21.576h2.115s6.751 20.872 7.408 21.576 4.91 32.66 4.91 32.66c5.73 1.972 6.607-.882 6.607-.882z" class="cls-181"/>
            <path id="Path_3824" d="M944.422 279.849c.725.706 4.295 1.98 6.181 0l1.278 1.256s-1.458 3.427-4.015 3.547-4.407-3.05-4.407-3.05z" class="cls-24"/>
            <path id="Path_3825" d="M954.533 279.462c4.273-1.84 18.078-6.73 18.078-6.73s9.281-11.627 11.173-13.353a3.655 3.655 0 0 1 2.656 2.928s-5.976 12.8-9.224 16.459-19.7 11.587-19.7 11.587z" class="cls-24"/>
            <path id="Path_3826" d="M939.576 279.2c1.271-.8 7.654 3.466 7.654 3.466s8.3-4.406 10.244-3.553c0 0 1.755 2.348 2.46 8.385s.752 30.881.752 30.881a43.329 43.329 0 0 1-13.124 1.973c-8.6 0-13.23-2.466-13.23-2.466s-1.532-34.4 5.244-38.686z" class="cls-10"/>
            <path id="Path_3827" d="M944.759 278.553s.919 2.89 0 4c0 0 .954 2 2.67 2.091 1.981.1 2.669-2.091 2.669-2.091s-1.048-2.792 0-3.773z" class="cls-6"/>
            <g id="Group_4685">
                <path id="Path_3828" d="M942.468 275.708a15.641 15.641 0 0 1-1.551-7.7c.383-3.978 6.376-4.89 10.416-2.935 0 0-1.2-1.173-.73-1.5s1.278 1.759 1.278 1.759 1.276-.391 1.471 0-1.307.605-1.307.605 2.607 1.445.172 9.139z" class="cls-183"/>
                <path id="Path_3829" d="M942.177 273.35s-1.442-1.439-1.62.243c-.205 1.949 1.565 2.735 1.911 2.115s-.291-2.358-.291-2.358z" class="cls-6"/>
                <path id="Path_3830" d="M952.275 273.452s1.442-1.439 1.619.243c.206 1.949-1.564 2.734-1.91 2.114s.291-2.357.291-2.357z" class="cls-6"/>
                <path id="Path_3831" d="M947.074 280.41c-3.2 0-5.006-2.09-5.006-8.359 0-3.233 1.645-5.216 5.229-5.216s5.094 1.983 5.094 5.216c0 6.736-2.012 8.359-5.317 8.359z" class="cls-6"/>
                <path id="Path_3832" d="M951.331 274.287a.758.758 0 1 1-.83-.455.677.677 0 0 1 .83.455z" class="cls-25"/>
                <path id="Path_3833" d="M944.75 274.462a.758.758 0 1 1-.7-.638.677.677 0 0 1 .7.638z" class="cls-25"/>
                <g id="Group_4682">
                    <path id="Path_3834" d="M949.868 271.034a.157.157 0 0 1-.116-.049 1.828 1.828 0 0 0-1.231-.445.16.16 0 0 1-.011-.32 2.14 2.14 0 0 1 1.473.544.16.16 0 0 1 0 .226.158.158 0 0 1-.115.044z" class="cls-183"/>
                </g>
                <g id="Group_4683">
                    <path id="Path_3835" d="M943.843 271.034a.156.156 0 0 1-.11-.044.161.161 0 0 1-.006-.226 2.144 2.144 0 0 1 1.473-.544.16.16 0 0 1 .154.165.163.163 0 0 1-.164.155 1.845 1.845 0 0 0-1.231.445.16.16 0 0 1-.116.049z" class="cls-183"/>
                </g>
                <path id="Path_3836" d="M949.591 272.732c0 .4-.179.72-.4.72s-.4-.323-.4-.72.179-.719.4-.719.4.322.4.719z" class="cls-11"/>
                <path id="Path_3837" d="M945.318 272.732c0 .4-.179.72-.4.72s-.4-.322-.4-.72.179-.719.4-.719.4.322.4.719z" class="cls-11"/>
                <path id="Path_3838" d="M945.318 276.984s2.822.363 4.273-.334c0 0-.82 1.921-2.361 1.749a2.192 2.192 0 0 1-1.912-1.415z" class="cls-11"/>
                <path id="Path_3839" d="M952.058 274.162a16.862 16.862 0 0 0-1.455-6.155s-2.388 1.1-2.914.843.5-.843.5-.843-3.941 1.3-4.178 1.039 1.306-1.039 1.306-1.039l-2.455.843a17.563 17.563 0 0 0-.443 5.312 10.215 10.215 0 0 1-1.186-3.077c-.13-1.257.423-4.841 4.12-5.1s5.775.578 6.691 2.276a7.105 7.105 0 0 1 .014 5.901z" class="cls-183"/>
                <g id="Group_4684" opacity="0.62">
                    <path id="Path_3840" d="M947.631 275.978a2.93 2.93 0 0 1-.722-.107l.091-.327c.336.093.862.148.977.012.04-.047.024-.156-.044-.3a13.383 13.383 0 0 1-.562-3.579l.34-.013a13.37 13.37 0 0 0 .53 3.447.589.589 0 0 1 0 .663.779.779 0 0 1-.61.204z" class="cls-13"/>
                </g>
            </g>
            <path id="Path_3841" d="M951.172 280.765s5.791 17.977 6.342 32.6c0 0 2.091.575 4.444-2.63s.953-28.59-3.555-32.817c-.003.004-2.046-.462-7.231 2.847z" class="cls-27"/>
            <path id="Path_3842" d="M952.116 283.909s1.036-2.409.576-4.06-2.089 0-2.089 0a17.758 17.758 0 0 0 1.513 4.06z" class="cls-24"/>
            <path id="Path_3843" d="M940.492 279.213c-4.273-1.839-18.079-6.729-18.079-6.729s-9.3-11.967-11.2-13.693a5.322 5.322 0 0 0-2.5 4.068s5.845 11.995 9.093 15.659 19.7 11.586 19.7 11.586z" class="cls-24"/>
            <path id="Path_3844" d="M943.853 280.765s-5.791 17.977-6.343 32.6c0 0-2.09.575-4.443-2.63s-.954-28.59 3.555-32.817c0 .004 2.045-.462 7.231 2.847z" class="cls-27"/>
            <path id="Path_3845" d="M942.909 283.909s-1.037-2.409-.576-4.06 2.089 0 2.089 0a17.761 17.761 0 0 1-1.513 4.06z" class="cls-24"/>
            <g id="Group_4686">
                <path id="Path_3846" d="M973.13 393.491h-11.5a23.423 23.423 0 0 1 .478-9.146l5.256-.9c.478 2.889 1.055 4.028 1.854 4.615h.005a8.07 8.07 0 0 0 2.145.863 2.756 2.756 0 0 1 1.775 1.651 4.886 4.886 0 0 1-.013 2.917z" class="cls-5"/>
                <path id="Path_3847" d="M973.145 390.572c-2.835.355-9.063.962-8.683-.68.316-1.371 2.944-1.741 4.758-1.834h.005a8.07 8.07 0 0 0 2.145.863 2.756 2.756 0 0 1 1.775 1.651z" class="cls-183"/>
            </g>
            <g id="Group_4687">
                <path id="Path_3848" d="M934.622 393.491h-11.5a5.328 5.328 0 0 1-.2-2.214 2.784 2.784 0 0 1 1.957-2.356 6.186 6.186 0 0 0 2.387-1.061c.68-.641 1.188-1.824 1.617-4.417l5.256.9a23.532 23.532 0 0 1 .483 9.148z" class="cls-5"/>
                <path id="Path_3849" d="M922.927 391.277a2.784 2.784 0 0 1 1.957-2.356 6.186 6.186 0 0 0 2.387-1.061c1.454.449 3.49 1.273 4.122 2.52.877 1.711-5.843 1.44-8.466.897z" class="cls-183"/>
            </g>
        </g>
        <g id="Group_4697">
            <path id="Path_3850" d="M911.623 278.7a7.66 7.66 0 0 0-6.634-.42c-3.939 1.411-4.824 6.717-3.854 11.023s-4.453 19.007-4.453 19.007 2.819 3.965 12.672 2.447c0 0 7.347-13.351 6.8-22.937s-4.531-9.12-4.531-9.12z" class="cls-181"/>
            <path id="Path_3851" d="M914.733 295.268c3.7-1.184 5.969 1.9 8.091 7.638s2.835 6.314 2.835 6.314l8.19 5.261-.681 3.067s-7.794-3.052-9.678-4.993-7.306-11.773-7.306-11.773z" class="cls-6"/>
            <path id="Path_3852" d="M896.685 332.341a104.352 104.352 0 0 0-1.341 20.384s-6.331 9.336-1.107 35.972h2.741s2.239-22.662 3.952-28.8 8.038-8.025 8.381-26.7z" class="cls-6"/>
            <path id="Path_3853" d="M884.16 356.266c-1.593-5.248-5.686-14.039-16.186-25.954a1.562 1.562 0 0 0-1.473.195c-.894.546-.894 1.188-.894 1.188s5.266 11.474 8.623 19.881a7.445 7.445 0 0 0 6.913 4.69z" class="cls-6"/>
            <path id="Path_3854" d="M903.276 366.414s.036 3.916-2.533 3.983c-3.628.1-3.762-3.854-7.873-3.726s-12.59 1.156-15.288-5.267c-1.393-3.32.514-7.58-3.983-10.792s-2.312-6.809 0-8.736-1-4.029 1.414-5.01a2.352 2.352 0 0 1 1.665-.031 3.875 3.875 0 0 1 .873.442 8.442 8.442 0 0 1 2.169 2.322c6.809-18.649 18.931-21.11 18.931-21.11l11.99 4.137c.287 29.014-7.365 43.788-7.365 43.788z" class="cls-16"/>
            <path id="Path_3855" d="M914.733 295.268a15.7 15.7 0 0 1-6.775.34c-3.979-.605-5.272-3.1-8.069-1.494-4.2 2.413-2.234 10.721-1.18 15.041a21.606 21.606 0 0 1-.057 9.335s5.591 4.349 11.989 4.133l3.491-7.592a16.849 16.849 0 0 0 .601-19.763z" class="cls-7"/>
            <path id="Path_3856" d="M907.629 288.3a17.154 17.154 0 0 1-.988 7.506s2.075 3.065 4.056 1.048a19.811 19.811 0 0 1 2.407-7.677c1.49-2.73-5.475-.877-5.475-.877z" class="cls-6"/>
            <g id="Group_4692">
                <path id="Path_3857" d="M904.448 288.433s-1.751-1.108-1.553.6c.229 1.98 2.16 2.365 2.366 1.673s-.813-2.273-.813-2.273z" class="cls-6"/>
                <path id="Path_3858" d="M914.493 286.29s1.112-1.749 1.662-.119c.637 1.889-.945 3.062-1.427 2.523s-.235-2.404-.235-2.404z" class="cls-6"/>
                <path id="Path_3859" d="M910.878 294.352c-3.176.711-5.433-.962-6.826-7.184-.719-3.209.473-5.543 4.03-6.34s5.5.836 6.215 4.046c1.497 6.685-.139 8.743-3.419 9.478z" class="cls-6"/>
                <path id="Path_3860" d="M913.742 287.329a.77.77 0 1 1-.925-.268.69.69 0 0 1 .925.268z" class="cls-28"/>
                <path id="Path_3861" d="M907.249 288.965a.771.771 0 1 1-.836-.478.69.69 0 0 1 .836.478z" class="cls-28"/>
                <g id="Group_4689">
                    <path id="Path_3862" d="M911.531 284.429a.158.158 0 0 1-.09-.027 1.868 1.868 0 0 0-1.321-.168.163.163 0 0 1-.081-.315 2.17 2.17 0 0 1 1.582.213.162.162 0 0 1-.09.3z" class="cls-181"/>
                </g>
                <g id="Group_4690">
                    <path id="Path_3863" d="M905.551 285.768a.158.158 0 0 1-.083-.023.163.163 0 0 1-.056-.223 2.174 2.174 0 0 1 1.341-.867.165.165 0 0 1 .19.129.162.162 0 0 1-.129.19 1.879 1.879 0 0 0-1.123.716.165.165 0 0 1-.14.078z" class="cls-181"/>
                </g>
                <path id="Path_3864" d="M911.67 286.172c.088.394-.018.754-.237.8s-.468-.231-.557-.625.018-.754.237-.8.469.23.557.625z" class="cls-11"/>
                <path id="Path_3865" d="M907.258 287.122c.088.394-.018.754-.237.8s-.469-.23-.557-.625.018-.754.237-.8.468.23.557.625z" class="cls-11"/>
                <path id="Path_3866" d="M908.684 290.857a6.594 6.594 0 0 0 2.939-.925s-.247 1.593-1.357 1.7a1.624 1.624 0 0 1-1.582-.775z" class="cls-11"/>
                <path id="Path_3867" d="M910.558 286.215s.072-1.036.469-1.052.873.752.873.752l.5-.425-.547.2s-.488-.8-.866-.72c-.54.118-.429 1.245-.429 1.245z" class="cls-11"/>
                <path id="Path_3868" d="M907.5 287.025s-.507-.907-.872-.752-.469 1.052-.469 1.052l-.631-.173.58-.052s.1-.934.476-1.02c.538-.122.916.945.916.945z" class="cls-11"/>
                <g id="Group_4691" opacity="0.55">
                    <path id="Path_3869" d="M909.713 289.017l-.163-.31a.407.407 0 0 0 .259-.461.433.433 0 0 0-.3-.345c-.063 0-.118.051-.16.164l-.329-.123a.5.5 0 0 1 .516-.391.771.771 0 0 1 .62.624.759.759 0 0 1-.443.842z" class="cls-13"/>
                </g>
                <path id="Path_3870" d="M904.7 289.553a15.6 15.6 0 0 1-.4-6.152s2.763-3.847 8.1-1.945a21.518 21.518 0 0 1 2.365 6.11 13.942 13.942 0 0 0-.332-4.131c-.53-2.851-3.06-4.623-6.529-4.052s-7.183 4.017-3.204 10.17z" class="cls-181"/>
            </g>
            <path id="Path_3871" d="M910.291 280.656s.211.941-.7 3.363a1 1 0 0 0-1.429 0c-.77.688-2.336.458-2.87.83a1.646 1.646 0 0 0-.534 1.221 3.367 3.367 0 0 1 0-2.327 4.663 4.663 0 0 0-.9 2.955s-1.411-.228-1.346-2.555 3.371-6.091 7.081-5.847 4.594 6.119 4.594 6.119a1.08 1.08 0 0 0-.868-.148 7.7 7.7 0 0 0-.916-2.811 4.168 4.168 0 0 1 0 2.351 3.358 3.358 0 0 0-1.848-.372 3.476 3.476 0 0 0-.264-2.779z" class="cls-181"/>
            <path id="Path_3872" d="M898.947 294.856c1.806-1.424 3.212.387 3.557 2.891s-2.921 17.279-5.439 16.734c-.972-.21-1.368-4.08-1.368-4.08a88.815 88.815 0 0 0 1.622-10.406c.293-2.874.687-4.395 1.628-5.139z" class="cls-6"/>
            <path id="Path_3873" d="M893.693 312.393c-2.431-2.317-6.789-10-7.9-13.918l1.846-.742s5.555 7.947 8.087 9.951 3.423 4.236 2.292 6.147-3.813-.95-4.325-1.438z" class="cls-6"/>
            <g id="Group_4693">
                <path id="Path_3874" d="M886.554 293.348c-.127 2.514 1.921 3.109 1.012 5.039a1.313 1.313 0 0 1-.769.714 1.557 1.557 0 0 1-1.608-.413 17.812 17.812 0 0 0-3.28-2.484c-.912-.526-.4-.669-.4-.669-.089-.041-.175-.076-.261-.111-.65-.272-1.169-.375-.7-.664.53-.33 2.411.357 2.411.357-2.448-1.63-3.112-1.232-2.665-1.579.61-.474 2.937.617 3.006.65-1.293-1.223-2.23-1.5-1.717-1.684s3.078 1.666 4.011 2.361c.211.156.34.256.34.256-.025-2.054.62-1.773.62-1.773z" class="cls-6"/>
                <path id="Path_3875" d="M885.6 294.865c.211.156.34.256.34.256a1.7 1.7 0 0 0 .129 1.691 1.521 1.521 0 0 1-.469-1.947z" class="cls-6"/>
                <path id="Path_3876" d="M883.456 296.308a5.843 5.843 0 0 0-1.942-.773c-.089-.041-.175-.076-.261-.111.331-.435 1.957.706 2.203.884z" class="cls-6"/>
            </g>
            <g id="Group_4694">
                <path id="Path_3877" d="M893.159 333.6a.494.494 0 1 1-.494-.494.494.494 0 0 1 .494.494z" class="cls-18"/>
                <path id="Path_3878" d="M901.972 337a.494.494 0 1 1-.494-.494.494.494 0 0 1 .494.494z" class="cls-18"/>
                <path id="Path_3879" d="M909.481 338.826a.494.494 0 1 1-.494-.494.494.494 0 0 1 .494.494z" class="cls-18"/>
                <path id="Path_3880" d="M897.943 327.153a.494.494 0 1 1-.494-.494.494.494 0 0 1 .494.494z" class="cls-18"/>
                <circle id="Ellipse_238" cx=".494" cy=".494" r=".494" class="cls-18" transform="translate(898.619 331.353)"/>
                <path id="Path_3881" d="M907.421 334.522a.494.494 0 1 1-.494-.494.494.494 0 0 1 .494.494z" class="cls-18"/>
                <path id="Path_3882" d="M908.493 326.425a.494.494 0 1 1-.494-.494.494.494 0 0 1 .494.494z" class="cls-18"/>
                <circle id="Ellipse_239" cx=".494" cy=".494" r=".494" class="cls-18" transform="translate(902.385 324.246)"/>
                <path id="Path_3883" d="M888.788 343.239a.494.494 0 1 1-.494-.494.495.495 0 0 1 .494.494z" class="cls-18"/>
                <path id="Path_3884" d="M881.748 341.139a.495.495 0 1 1-.495-.494.495.495 0 0 1 .495.494z" class="cls-18"/>
                <path id="Path_3885" d="M877.551 337.277a.5.5 0 0 1-.909-.273.367.367 0 0 1 .036-.169 3.875 3.875 0 0 1 .873.442z" class="cls-18"/>
                <circle id="Ellipse_240" cx=".494" cy=".494" r=".494" class="cls-18" transform="translate(890.322 349.188)"/>
                <path id="Path_3886" d="M878.675 356.684a.494.494 0 1 1-.494-.494.494.494 0 0 1 .494.494z" class="cls-18"/>
                <circle id="Ellipse_241" cx=".494" cy=".494" r=".494" class="cls-18" transform="translate(882.849 351.945)"/>
                <circle id="Ellipse_242" cx=".494" cy=".494" r=".494" class="cls-18" transform="translate(875.161 348.19)"/>
                <path id="Path_3887" d="M882.355 363.471a.494.494 0 1 1-.494-.494.494.494 0 0 1 .494.494z" class="cls-18"/>
                <path id="Path_3888" d="M887.058 337.5a.494.494 0 1 1-.494-.494.494.494 0 0 1 .494.494z" class="cls-18"/>
                <path id="Path_3889" d="M891.8 329.177a.494.494 0 1 1-.494-.494.494.494 0 0 1 .494.494z" class="cls-18"/>
                <path id="Path_3890" d="M897.176 322.253a.494.494 0 1 1-.494-.494.494.494 0 0 1 .494.494z" class="cls-18"/>
                <path id="Path_3891" d="M886.29 332.341a.494.494 0 1 1-.494-.494.494.494 0 0 1 .494.494z" class="cls-18"/>
                <path id="Path_3892" d="M892.3 324.246a.494.494 0 1 1-.494-.494.494.494 0 0 1 .494.494z" class="cls-18"/>
                <path id="Path_3893" d="M882.849 346.49a.494.494 0 1 1-.494-.494.494.494 0 0 1 .494.494z" class="cls-18"/>
                <path id="Path_3894" d="M876.643 342.127a.494.494 0 1 1-.494-.494.494.494 0 0 1 .494.494z" class="cls-18"/>
                <circle id="Ellipse_243" cx=".494" cy=".494" r=".494" class="cls-18" transform="translate(893.653 340.151)"/>
                <circle id="Ellipse_244" cx=".494" cy=".494" r=".494" class="cls-18" transform="translate(903.867 342.745)"/>
                <path id="Path_3895" d="M904.361 329.177a.494.494 0 1 1-.494-.494.494.494 0 0 1 .494.494z" class="cls-18"/>
                <path id="Path_3896" d="M910.3 330.213a.494.494 0 1 1-.494-.494.494.494 0 0 1 .494.494z" class="cls-18"/>
                <path id="Path_3897" d="M898.437 346.984a.494.494 0 1 1-.494-.494.494.494 0 0 1 .494.494z" class="cls-18"/>
                <circle id="Ellipse_245" cx=".494" cy=".494" r=".494" class="cls-18" transform="translate(893.159 355.278)"/>
                <circle id="Ellipse_246" cx=".494" cy=".494" r=".494" class="cls-18" transform="translate(885.576 356.684)"/>
                <circle id="Ellipse_247" cx=".494" cy=".494" r=".494" class="cls-18" transform="translate(906.433 349.188)"/>
                <path id="Path_3898" d="M900.595 353.428a.494.494 0 1 1-.494-.494.494.494 0 0 1 .494.494z" class="cls-18"/>
                <path id="Path_3899" d="M890.322 364.459a.494.494 0 1 1-.494-.494.495.495 0 0 1 .494.494z" class="cls-18"/>
                <circle id="Ellipse_248" cx=".494" cy=".494" r=".494" class="cls-18" transform="translate(896.955 361.393)"/>
                <circle id="Ellipse_249" cx=".494" cy=".494" r=".494" class="cls-18" transform="translate(904.297 358.482)"/>
                <path id="Path_3900" d="M901.972 367.475a.494.494 0 1 1-.494-.494.495.495 0 0 1 .494.494z" class="cls-18"/>
            </g>
            <g id="Group_4695">
                <path id="Path_3901" d="M901.432 393.491h-8.115c-.529-1.511.447-3.027.283-4.358-.283-2.25 1.028-1.007 1.028-1.007.231-2.42 3.633-2.878 3.6-1.8a5.2 5.2 0 0 0 .7 3.227c.915 1.32 2.415 1.31 2.672 2.256.026.092.046.185.062.267.253 1.184-.23 1.415-.23 1.415z" class="cls-16"/>
                <path id="Path_3902" d="M901.663 392.078c-1.681.391-5.555-.118-5.709-1.1-.149-.945 1.937-1.387 2.975-1.428.915 1.32 2.415 1.31 2.672 2.256.026.094.046.194.062.272z" class="cls-182"/>
            </g>
            <g id="Group_4696">
                <path id="Path_3903" d="M868.075 330.637c-.863-.786-2.266.514-2.266.514s.755 1.12.267 1.573-1.054-.581-2.015-.129a1.767 1.767 0 0 0-.236.134 11.094 11.094 0 0 0-2.163 2.1c-.129.143-.252.277-.365.4-.735.771-2.631 1.223-2.986-.832s1.958-4.466 4.5-6.681 4.178-.9 4.178-.9a3.993 3.993 0 0 1 .575 1.511c0 .575.514.863.8 1.413a.7.7 0 0 1-.289.897z" class="cls-16"/>
                <path id="Path_3904" d="M863.825 332.729a11.094 11.094 0 0 0-2.163 2.1c-.951.226-1.8.159-1.938-.735-.323-2.159 3.983-4.9 3.639-3.387a2.7 2.7 0 0 0 .462 2.022z" class="cls-182"/>
            </g>
        </g>
        <g id="Group_4698" class="cls-14">
            <path id="Path_3905" d="M933.617 346.35a17.366 17.366 0 0 1-6.8-6.451 18.811 18.811 0 0 1 0-18.65 17.363 17.363 0 0 1 6.8-6.45 21.706 21.706 0 0 1 17.949-.725 16.494 16.494 0 0 1 6.176 4.6l-5.2 4.8a11.18 11.18 0 0 0-8.8-4.1 11.7 11.7 0 0 0-5.8 1.425 10.134 10.134 0 0 0-3.974 3.975 12.516 12.516 0 0 0 0 11.6 10.144 10.144 0 0 0 3.974 3.976 11.7 11.7 0 0 0 5.8 1.424 11.123 11.123 0 0 0 8.8-4.15l5.2 4.8a16.211 16.211 0 0 1-6.2 4.65 20.581 20.581 0 0 1-8.25 1.6 20.113 20.113 0 0 1-9.675-2.324z" class="cls-180"/>
            <path id="Path_3907" d="M1011.641 321.174l-12.15 28.551q-1.85 4.648-4.575 6.549a11.206 11.206 0 0 1-6.575 1.9 13.667 13.667 0 0 1-4.15-.65 9.173 9.173 0 0 1-3.35-1.8l2.85-5.551a6.7 6.7 0 0 0 2.075 1.25 6.443 6.443 0 0 0 2.325.45 4.138 4.138 0 0 0 2.6-.774 6.6 6.6 0 0 0 1.8-2.576l.1-.25-11.65-27.1h8.05l7.55 18.25 7.6-18.25z" class="cls-180"/>
            <path id="Path_3908" d="M1037.565 322.5a12.4 12.4 0 0 1 4.826 4.851 15.994 15.994 0 0 1 0 14.549 12.386 12.386 0 0 1-4.826 4.85 13.706 13.706 0 0 1-6.825 1.726 10.384 10.384 0 0 1-8.1-3.25v12.549h-7.8v-36.6h7.449v3.1q2.9-3.5 8.45-3.5a13.716 13.716 0 0 1 6.826 1.725zm-3.25 17.55a8.607 8.607 0 0 0 0-10.85 7 7 0 0 0-9.849 0 8.6 8.6 0 0 0 0 10.85 7 7 0 0 0 9.849 0z" class="cls-180"/>
            <path id="Path_3909" d="M1066.69 346.774a7.978 7.978 0 0 1-2.825 1.275 14.3 14.3 0 0 1-3.525.426q-4.8 0-7.425-2.451t-2.625-7.2v-11.05h-4.15v-6h4.15v-6.549h7.8v6.549h6.7v6h-6.7v10.951a3.678 3.678 0 0 0 .875 2.625 3.24 3.24 0 0 0 2.475.924 5.012 5.012 0 0 0 3.15-1z" class="cls-180"/>
            <path id="Path_3910" d="M1075.415 346.7a13.182 13.182 0 0 1-5.275-4.925 14.4 14.4 0 0 1 0-14.3 13.184 13.184 0 0 1 5.275-4.926 17.211 17.211 0 0 1 15.225 0 13.233 13.233 0 0 1 5.25 4.926 14.4 14.4 0 0 1 0 14.3 13.231 13.231 0 0 1-5.25 4.925 17.2 17.2 0 0 1-15.225 0zm12.55-6.65a8.607 8.607 0 0 0 0-10.85 6.5 6.5 0 0 0-4.925-2.025 6.581 6.581 0 0 0-4.95 2.025 8.521 8.521 0 0 0 0 10.85 6.577 6.577 0 0 0 4.95 2.025 6.5 6.5 0 0 0 4.925-2.026z" class="cls-180"/>
        </g>
        <g id="Group_1">
            <g id="Group_3">
                <path id="Rectangle_1" d="M0 0H136V136H0z" class="cls-30" transform="translate(991.392 175.074)"/>
                <g id="Group_2">
                    <path id="Path_1" d="M1101.3 250.692l-7.168-12.4-7.244 12.531a8.336 8.336 0 0 0-.636 1.525 8.158 8.158 0 0 0-.407 2.542v.28a8.3 8.3 0 1 0 16.6-.28 8.068 8.068 0 0 0-1.145-4.198z" class="cls-180"/>
                    <g id="Group_1-2">
                        <path id="Path_2" d="M1047.874 242.906c5.513 1.764 10.442.987 15.258-.587l1.843-6.307a2.828 2.828 0 0 1 .717-1.211l11.81-11.81-11.384-11.384-11.81 11.81a2.845 2.845 0 0 1-1.211.717l-15.345 4.484-16.256 4.749c-.415.121-.831.239-1.246.357l-.458.13a51.071 51.071 0 0 1 18.346 4.412c3.249 1.542 6.306 3.543 9.736 4.64z" class="cls-30"/>
                        <path id="Path_3" d="M1095.188 218.608l-24.935-24.934a2.838 2.838 0 0 0-4.013 4.013l24.935 24.935a2.837 2.837 0 0 0 4.012-4.013z" class="cls-15"/>
                        <path id="Path_4" d="M1063.5 200.677a2.837 2.837 0 0 0-4.012 4.012l2.763 2.763-11.437 11.439-18.586 5.43-12.321 3.6c-.4.117-.8.23-1.2.344-3.359.95-7.1 2.016-9.926 4.965 3.893.079 7.807.443 9.4.524q.807.042 1.613.1l.458-.13c.416-.118.832-.236 1.246-.357l16.256-4.749 15.348-4.484a2.844 2.844 0 0 0 1.211-.717l11.81-11.81 11.381 11.385-11.81 11.81a2.828 2.828 0 0 0-.717 1.211l-1.843 6.307c2.224-.727 4.425-1.622 6.648-2.518l.438-1.5 11.439-11.439 2.763 2.763a2.838 2.838 0 0 0 4.013-4.013z" class="cls-15"/>
                        <path id="Path_5" d="M1012.1 238.1a6.3 6.3 0 0 0-.64 6.157c.528.732 3.278 3.789 15.411 15.811.5.5.865.853 1.033 1.025l.041.04.031.031.041.041.01.01 1.015 1.023c12.024 12.133 15.079 14.884 15.811 15.411a6.3 6.3 0 0 0 6.156-.64c2.563-1.743 3.4-4.711 4.376-8.147.118-.416.236-.833.357-1.248l2.806-9.6 4.585-15.693c-4.816 1.574-9.746 2.351-15.258.587-3.429-1.1-6.486-3.1-9.74-4.641a51.072 51.072 0 0 0-18.346-4.412c-3.242.92-6.025 1.797-7.689 4.245z" class="cls-180"/>
                        <path id="Path_6" d="M1058.547 258.012l-2.806 9.6c-.122.415-.239.832-.357 1.248-.973 3.436-1.813 6.4-4.376 8.147a6.3 6.3 0 0 1-6.157.64c-.732-.528-3.787-3.278-15.811-15.411l-1.015-1.023-.01-.01-.041-.041-.031-.031-.041-.04c-.168-.173-.531-.528-1.033-1.025-12.133-12.022-14.884-15.079-15.411-15.811a6.3 6.3 0 0 1 .64-6.156c1.665-2.449 4.449-3.325 7.689-4.247-.537-.038-1.075-.073-1.613-.1-1.593-.081-5.508-.445-9.4-.524a12.833 12.833 0 0 0-1.368 1.68 11.921 11.921 0 0 0-.933 12.06c.482.921 2.144 3 16.4 17.13l.948.94c.039.042.081.083.122.123s.081.083.123.122l.94.948c1.8 1.818 3.405 3.43 4.837 4.862 9.8 9.8 11.489 11.122 12.293 11.542a11.921 11.921 0 0 0 12.06-.933c4.27-2.9 5.532-7.361 6.645-11.293q.17-.6.344-1.2l2.138-7.32 6.456-22.087c-2.222.9-4.423 1.792-6.648 2.518z" class="cls-15"/>
                        <circle id="Ellipse_1" cx="5.423" cy="5.423" r="5.423" class="cls-15" transform="translate(1028.281 242.217)"/>
                        <circle id="Ellipse_2" cx="4.067" cy="4.067" r="4.067" class="cls-15" transform="translate(1045 251.882)"/>
                        <circle id="Ellipse_3" cx="2.711" cy="2.711" r="2.711" class="cls-180" transform="translate(1048.191 232.077)"/>
                    </g>
                </g>
            </g>
        </g>
    </g>
</svg>
