<svg xmlns="http://www.w3.org/2000/svg" id="Group_24" width="41.587" height="64.097" viewBox="0 0 41.587 64.097">
    <defs>
        <style>
            .cls-2{fill:#fff}
        </style>
    </defs>
    <path id="Path_46" fill="#23beb9" d="M458.849 328.754a14.129 14.129 0 0 0 14.066-13.048h-28.132a14.129 14.129 0 0 0 14.066 13.048z" transform="translate(-433.526 -266.801)"/>
    <g id="Group_10">
        <g id="Group_15" transform="translate(0 17.278)">
            <path id="Path_47" d="M442.878 237.09a1.072 1.072 0 1 0 1.517-1.516l-2.342-2.342a1.072 1.072 0 0 0-1.516 1.516z" class="cls-2" transform="translate(-440.222 -232.917)"/>
            <path id="Path_48" d="M452.589 246.8a1.072 1.072 0 0 0 1.517-1.516l-2.342-2.342a1.072 1.072 0 0 0-1.516 1.516z" class="cls-2" transform="translate(-442.992 -235.687)"/>
            <path id="Path_49" d="M451.005 237.4a1.069 1.069 0 0 0 .758-.314l2.342-2.342a1.072 1.072 0 0 0-1.517-1.516l-2.342 2.342a1.072 1.072 0 0 0 .758 1.83z" class="cls-2" transform="translate(-442.992 -232.917)"/>
            <path id="Path_50" d="M442.053 246.8l2.342-2.342a1.072 1.072 0 0 0-1.517-1.516l-2.342 2.342a1.072 1.072 0 0 0 1.516 1.516z" class="cls-2" transform="translate(-440.222 -235.687)"/>
        </g>
        <g id="Group_16" transform="translate(6.885)">
            <path id="Path_51" d="M472.105 248.379a1.072 1.072 0 1 0 1.516-1.516l-1.75-1.751a1.072 1.072 0 0 0-1.517 1.516z" class="cls-2" transform="translate(-470.04 -244.797)"/>
            <path id="Path_52" d="M479.366 255.64a1.072 1.072 0 0 0 1.517-1.516l-1.751-1.751a1.072 1.072 0 0 0-1.516 1.516z" class="cls-2" transform="translate(-472.111 -246.869)"/>
            <path id="Path_53" d="M478.373 248.693a1.07 1.07 0 0 0 .758-.314l1.751-1.751a1.072 1.072 0 0 0-1.517-1.516l-1.75 1.751a1.073 1.073 0 0 0 .758 1.831z" class="cls-2" transform="translate(-472.111 -244.797)"/>
            <path id="Path_54" d="M471.112 255.954a1.069 1.069 0 0 0 .758-.314l1.75-1.751a1.072 1.072 0 1 0-1.516-1.516l-1.751 1.751a1.072 1.072 0 0 0 .758 1.83z" class="cls-2" transform="translate(-470.04 -246.869)"/>
        </g>
        <path id="Path_55" d="M474.2 299.191a16.3 16.3 0 0 0-11.049-14.343V267.47h2.6a1.072 1.072 0 1 0 0-2.144H450.2a1.072 1.072 0 1 0 0 2.144h2.6v17.378a16.3 16.3 0 0 0-11.049 14.343c-.023.355-.039.712-.039 1.072s.016.718.039 1.072a16.261 16.261 0 0 0 32.451 0c.023-.354.039-.711.039-1.072s-.022-.717-.041-1.072zm-16.225 15.192a14.129 14.129 0 0 1-14.066-13.048c-.027-.355-.054-.71-.054-1.072s.027-.717.054-1.072a14.154 14.154 0 0 1 11.034-12.712V267.47H461v19.009a13.958 13.958 0 0 1 2.144.66 14.135 14.135 0 0 1 8.889 12.052c.026.355.054.71.054 1.072s-.028.717-.054 1.072a14.129 14.129 0 0 1-14.062 13.049z" class="cls-2" transform="translate(-432.648 -252.43)"/>
    </g>
</svg>
