<svg xmlns="http://www.w3.org/2000/svg" id="Group_60" width="27.675" height="42.655" viewBox="0 0 27.675 42.655">
    <defs>
        <style>
            .cls-2{fill:#fff}
        </style>
    </defs>
    <path id="Path_46" fill="#23beb9" d="M454.143 324.389a9.4 9.4 0 0 0 9.36-8.683h-18.72a9.4 9.4 0 0 0 9.36 8.683z" transform="translate(-437.292 -283.161)"/>
    <g id="Group_10" transform="translate(0 0)">
        <g id="Group_15" transform="translate(0 11.498)">
            <path id="Path_47" d="M441.99 235.694a.714.714 0 1 0 1.01-1.009l-1.559-1.559a.713.713 0 0 0-1.009 1.009z" class="cls-2" transform="translate(-440.222 -232.917)"/>
            <path id="Path_48" d="M451.7 245.405a.714.714 0 0 0 1.009-1.009l-1.559-1.559a.713.713 0 1 0-1.009 1.009z" class="cls-2" transform="translate(-445.314 -238.009)"/>
            <path id="Path_49" d="M450.647 235.9a.711.711 0 0 0 .5-.209l1.559-1.559a.714.714 0 0 0-1.009-1.009l-1.558 1.559a.713.713 0 0 0 .5 1.218z" class="cls-2" transform="translate(-445.314 -232.917)"/>
            <path id="Path_50" d="M441.44 245.405l1.56-1.559a.714.714 0 1 0-1.009-1.009l-1.558 1.559a.713.713 0 0 0 1.009 1.009z" class="cls-2" transform="translate(-440.222 -238.009)"/>
        </g>
        <g id="Group_16" transform="translate(4.582)">
            <path id="Path_51" d="M471.414 247.181a.713.713 0 1 0 1.009-1.009l-1.165-1.165a.714.714 0 1 0-1.009 1.009z" class="cls-2" transform="translate(-470.04 -244.798)"/>
            <path id="Path_52" d="M478.675 254.442a.714.714 0 1 0 1.009-1.009l-1.165-1.165a.713.713 0 0 0-1.009 1.009z" class="cls-2" transform="translate(-473.848 -248.605)"/>
            <path id="Path_53" d="M478.015 247.39a.712.712 0 0 0 .5-.209l1.165-1.165a.714.714 0 0 0-1.009-1.009l-1.165 1.165a.714.714 0 0 0 .5 1.218z" class="cls-2" transform="translate(-473.848 -244.798)"/>
            <path id="Path_54" d="M470.754 254.651a.712.712 0 0 0 .5-.209l1.165-1.165a.713.713 0 1 0-1.009-1.009l-1.165 1.165a.714.714 0 0 0 .5 1.218z" class="cls-2" transform="translate(-470.04 -248.605)"/>
        </g>
        <path id="Path_55" d="M463.328 287.863a10.845 10.845 0 0 0-7.353-9.545v-11.565h1.73a.713.713 0 1 0 0-1.427h-10.349a.713.713 0 0 0 0 1.427h1.73v11.565a10.844 10.844 0 0 0-7.353 9.545c-.015.236-.026.474-.026.713s.01.478.026.714a10.821 10.821 0 0 0 21.6 0c.015-.236.026-.473.026-.714s-.016-.476-.031-.713zm-10.8 10.11a9.4 9.4 0 0 1-9.36-8.683c-.018-.236-.036-.473-.036-.714s.018-.477.036-.713a9.419 9.419 0 0 1 7.343-8.46v-12.65h4.035V279.4a9.289 9.289 0 0 1 1.427.439 9.406 9.406 0 0 1 5.916 8.021c.018.236.036.473.036.713s-.019.477-.036.714a9.4 9.4 0 0 1-9.358 8.686z" class="cls-2" transform="translate(-435.679 -256.744)"/>
    </g>
</svg>
