<svg xmlns="http://www.w3.org/2000/svg" width="108" height="40" viewBox="0 0 108 40">
    <defs>
        <style>
            .cls-4{fill:#23beb9}.cls-2{fill:#fff}.cls-3{fill:none}
        </style>
    </defs>
    <g id="Group_4467" transform="translate(-695 -503.574)">
        <text id="CryptoLab" fill="#23beb9" font-family="Montserrat-Bold, Montserrat" font-size="13px" font-weight="700" transform="translate(732 527.574)">
            <tspan x="0" y="0">Crypto</tspan><tspan y="0" class="cls-2">Lab</tspan>
        </text>
        <g id="Group_1" transform="translate(695 503.574)">
            <g id="Group_3" transform="translate(0 0)">
                <path id="Rectangle_1" d="M0 0H40V40H0z" class="cls-3"/>
                <g id="Group_2" transform="translate(4.047 5.389)">
                    <path id="Path_1" d="M383.513 219.731l-2.093-3.622-2.116 3.66a2.435 2.435 0 0 0-.186.445 2.385 2.385 0 0 0-.119.742v.082a2.424 2.424 0 0 0 4.847-.082 2.355 2.355 0 0 0-.333-1.225z" class="cls-4" transform="translate(-355.465 -202.837)"/>
                    <g id="Group_1-2">
                        <path id="Path_2" d="M224.238 159.423a6.931 6.931 0 0 0 4.456-.172l.538-1.842a.827.827 0 0 1 .209-.354l3.449-3.449-3.325-3.325-3.449 3.449a.828.828 0 0 1-.354.209l-4.482 1.31-4.747 1.387-.364.1-.134.038a14.917 14.917 0 0 1 5.358 1.288 23.731 23.731 0 0 0 2.845 1.361z" class="cls-3" transform="translate(-211.791 -144.803)"/>
                        <path id="Path_3" d="M337.288 111.513l-7.282-7.282a.829.829 0 0 0-1.172 1.172l7.282 7.282a.829.829 0 0 0 1.172-1.172z" class="cls-2" transform="translate(-311.023 -103.989)"/>
                        <path id="Path_4" d="M204.844 121.506a.829.829 0 0 0-1.172 1.172l.807.807-3.341 3.341-5.428 1.586-3.6 1.051-.351.1a6.031 6.031 0 0 0-2.9 1.45c1.137.023 2.28.129 2.745.153.157.008.314.018.471.029l.134-.038.364-.1 4.747-1.387 4.482-1.31a.829.829 0 0 0 .354-.209l3.449-3.449 3.325 3.325-3.449 3.449a.827.827 0 0 0-.209.354l-.538 1.842c.65-.212 1.292-.474 1.941-.735l.128-.438 3.341-3.341.807.807a.829.829 0 1 0 1.172-1.172z" class="cls-2" transform="translate(-187.834 -119.219)"/>
                        <path id="Path_5" d="M194.514 206.408a1.84 1.84 0 0 0-.187 1.8c.154.214.957 1.107 4.5 4.618.147.145.253.249.3.3l.012.012.009.009.012.012.3.3c3.511 3.543 4.4 4.347 4.618 4.5a1.841 1.841 0 0 0 1.8-.187 3.888 3.888 0 0 0 1.278-2.379c.034-.121.069-.243.1-.364l.819-2.8 1.339-4.583a6.931 6.931 0 0 1-4.456.172 23.73 23.73 0 0 1-2.844-1.355 14.917 14.917 0 0 0-5.358-1.288 3.684 3.684 0 0 0-2.242 1.233z" class="cls-4" transform="translate(-192.515 -193.191)"/>
                        <path id="Path_6" d="M195.737 210.865l-.819 2.8c-.036.121-.07.243-.1.364a3.888 3.888 0 0 1-1.278 2.379 1.841 1.841 0 0 1-1.8.187c-.214-.154-1.106-.957-4.618-4.5l-.3-.3-.012-.012-.009-.009-.012-.012-.3-.3c-3.543-3.511-4.347-4.4-4.5-4.618a1.84 1.84 0 0 1 .187-1.8 3.684 3.684 0 0 1 2.246-1.24c-.157-.011-.314-.021-.471-.029-.465-.024-1.609-.13-2.745-.153a3.766 3.766 0 0 0-.4.491 3.481 3.481 0 0 0-.273 3.522c.141.269.626.877 4.79 5l.277.274.036.036.036.036.274.277c.526.531.994 1 1.413 1.42 2.862 2.862 3.355 3.248 3.59 3.371a3.482 3.482 0 0 0 3.522-.272 5.325 5.325 0 0 0 1.941-3.3l.1-.351.625-2.138 1.884-6.45c-.649.262-1.292.523-1.941.735z" class="cls-2" transform="translate(-180.172 -191.833)"/>
                        <circle id="Ellipse_1" cx="1.584" cy="1.584" r="1.584" class="cls-2" transform="translate(6.726 14.419)"/>
                        <circle id="Ellipse_2" cx="1.188" cy="1.188" r="1.188" class="cls-2" transform="translate(11.608 17.242)"/>
                        <circle id="Ellipse_3" cx=".792" cy=".792" r=".792" class="cls-4" transform="translate(12.54 11.458)"/>
                    </g>
                </g>
            </g>
        </g>
    </g>
</svg>
