<svg xmlns="http://www.w3.org/2000/svg" width="36" height="36" viewBox="0 0 36 36">
    <g transform="translate(-461 -748)">
        <circle cx="18" cy="18" r="18" fill="#fff" transform="translate(461 748)"/>
        <g>
            <path fill="#1e1e1e" d="M10.676 0A10.719 10.719 0 0 0 0 10.676a10.966 10.966 0 0 0 .563 3.468 1.527 1.527 0 0 0 1.878.936 1.52 1.52 0 0 0 .907-1.871 7.044 7.044 0 0 1-.415-2.721A7.7 7.7 0 1 1 11.1 18.4s-1.5.091-2.244.182a7.75 7.75 0 0 0-.816.162.1.1 0 0 1-.14 0 .1.1 0 0 1 0-.119l.232-1.265 1.407-6.33a1.463 1.463 0 0 0-2.862-.612s-3.35 15.497-3.35 15.638a1.407 1.407 0 0 0 1.017 1.71l.025.006h.078a1.406 1.406 0 0 0 1.714-1.01.381.381 0 0 0 .009-.038.361.361 0 0 1 0-.07c.042-.182.464-2.244.464-2.244a3.8 3.8 0 0 1 3.143-2.989c.323-.05 1.681-.141 1.681-.141A10.668 10.668 0 0 0 10.676 0z" transform="translate(468.466 751.91)"/>
            <path fill="#e6007a" d="M816.809 2182.987a1.779 1.779 0 0 0-2.1 1.379c0 .009 0 .018-.006.027a1.772 1.772 0 0 0 1.354 2.109h.053a1.743 1.743 0 0 0 2.1-1.286c0-.007 0-.015.006-.021v-.1a1.845 1.845 0 0 0-1.407-2.108z" transform="translate(468.466 751.91) translate(-805.487 -2158.372)"/>
        </g>
    </g>
</svg>
