<svg xmlns="http://www.w3.org/2000/svg" width="100%" height="268.405" viewBox="0 0 414 268.405">
    <defs>
        <clipPath id="clip-path">
            <circle id="Ellipse_194" cx="126" cy="126" r="126" fill="#17212d" transform="translate(842 461)"/>
        </clipPath>
        <style>
            .cls-empty-staking-4{fill:#fadfd3}.cls-empty-staking-5{fill:#2b3851}.cls-empty-staking-6{fill:#59b9f4}.cls-empty-staking-7{fill:#0197fb}.cls-empty-staking-8{fill:#fbded6}.cls-empty-staking-10{fill:#0373c3}.cls-empty-staking-13{fill:#e9aa41}.cls-empty-staking-14{fill:#5e1ca3}.cls-empty-staking-15{fill:#ca8bf2}.cls-empty-staking-16{fill:#394813}.cls-empty-staking-18{fill:#f0f0f0}.cls-empty-staking-19{fill:#542cea}.cls-empty-staking-20{fill:#264712}.cls-empty-staking-21{fill:#3a0b46}.cls-empty-staking-22{fill:#270946}.cls-empty-staking-23{fill:#9a88f2}.cls-empty-staking-24{fill:#420f07}.cls-empty-staking-25{fill:#1e471c}.cls-empty-staking-26{fill:#1d472a}
        </style>
    </defs>
    <g id="Group_4564" transform="translate(-765 -472.595)">
        <g id="Group_4562" transform="translate(0 28)">
            <g id="Group_4561" transform="translate(-18)">
                <g id="Mask_Group_6" clip-path="url(#clip-path)">
                    <circle id="Ellipse_195" cx="129" cy="129" r="129" fill="#24292f" transform="translate(842 461)"/>
                    <g id="Group_4559" transform="translate(226.575 -782.42)">
                        <path id="Path_3545" d="M583.234 1442.676a20.344 20.344 0 0 0-5.033.951 16.389 16.389 0 0 0-3.873 2.187 75.044 75.044 0 0 0-10.011 9.256 2.674 2.674 0 0 0-1.027 2.063 1.785 1.785 0 0 0 1.781 1.336 4.777 4.777 0 0 0 2.279-.731 37.317 37.317 0 0 0 4.916-3.148l.28.5c-3.862 3.376-8.758 5.269-13.417 7.416a5.742 5.742 0 0 0-2.191 1.471 2.029 2.029 0 0 0-.171 2.458 2 2 0 0 0 1.919.571 5.454 5.454 0 0 0 1.888-.894c2.8-1.83 5.478-3.98 8.662-5.015q-4.68 4.058-8.947 8.562a.679.679 0 0 0-.08 1.075c.512.722 1.225 1.532 2.1 1.375a2.408 2.408 0 0 0 1.051-.609 67.024 67.024 0 0 1 11.017-7.438l-8.975 9.727a3.41 3.41 0 0 0-.844 1.243 1.166 1.166 0 0 0 .409 1.343c.605.354 1.341-.129 1.872-.587l12.848-11.073c.425-.366 1.1-.726 1.48-.31l-10.967 12.322a1.2 1.2 0 0 0 1.308.891 3.148 3.148 0 0 0 1.562-.716c3.6-2.617 6.226-6.325 9.33-9.514a53.286 53.286 0 0 1 16.111-10.977c-.664.3-4.527-7.818-4.864-8.627-.616-1.481-.949-3.128-1.616-4.572-.535-1.157-1.383-1.183-2.556-1.107-2.085.134-4.166.362-6.241.571z" class="cls-empty-staking-4"/>
                        <path id="Path_3546" d="M770.051 1409.773l5.159 87.156a176.234 176.234 0 0 1-27.715 5.135c-1.755.182-3.708.436-4.825 1.8l-4.437-2.295a493.776 493.776 0 0 1-4-77.972c.092-3.3.194-6.719-1.115-9.746s-4.484-5.524-7.725-4.913a10.122 10.122 0 0 1 7.816 4.212 214.6 214.6 0 0 0-2.4-47.338c-.509-3.127-1.088-6.321-.542-9.442a24.957 24.957 0 0 0 .594-3.456 12.911 12.911 0 0 0-.277-2.625l-1.641-9.349c-.357-2.032-1.952-6.153-.965-8.063 1.518-2.94 8.59-4.226 11.492-4.594 8.694-1.1 18.072 1.985 23.788 8.772a13.841 13.841 0 0 1 2.6 4.27 18.924 18.924 0 0 1 .767 5.468q.42 10.018.945 20.033c.457 8.723.974 17.444 1.49 26.164l.567 9.585c.157 2.652-.418 6.207 1.445 8.236l.938-1.529" class="cls-empty-staking-5"/>
                        <path id="Path_3547" d="M757.129 1298.892l98.082-11.467s7.16.834 5.859 14.071-6.293 11.46-6.293 11.46L758 1302.46s-2.778-1.212-.871-3.568z" class="cls-empty-staking-5"/>
                        <path id="Path_3548" d="M735.649 1500.244a194.172 194.172 0 0 1-47.466-12.13c.658-18.733 1.228-37.694 1.886-56.428-7.349 8.195-12.814 21.193-23.691 22.884-13.242 2.059-26.538 4.122-39.939 4.3-3.487.045-6.979-.038-10.458.206-6.5.455-12.765 1.7-18.97-.269-.116.248-.491.06-.67-.148a30.079 30.079 0 0 1-6.719-22.793c18.57-5.734 37.75-10.881 56.473-16.092l17.833-27.505c2.589-3.993 5.177-7.986 7.7-12.021q6.553-10.479 12.507-21.318a15.958 15.958 0 0 1 2.97-4.253 16.768 16.768 0 0 1 3.453-2.216c12.487-6.731 23.636-15.651 34.708-24.518 3.985 10.668 4.123 22.925 4.707 34.3l1.216 23.687c.624 12.146 1.247 24.293 1.8 36.442q1.595 35.186 2.377 70.4c.049 2.286.355 5.181.283 7.472z" class="cls-empty-staking-6"/>
                        <path id="Path_3549" d="M796.346 1487.245c-.41-27.015-1.045-54.193-3.461-81.1 5.62 6.3 12.116 12.158 20.056 15.021s17.582 2.193 23.86-3.449c4.516-4.058 6.784-10.164 7.314-16.212s-.513-12.116-1.7-18.069a348.4 348.4 0 0 0-21.888-69.276 41.169 41.169 0 0 0-14.876-.9 3.4 3.4 0 0 0-1.716.55 3.126 3.126 0 0 0-.924 1.577 21.715 21.715 0 0 0-.754 7.048c.288 13.381 4.376 26.636 4.348 40.02-7.963-9.168-16.045-18.442-26.07-25.3a142.437 142.437 0 0 0-13.813-8c-3.973-2.1-8.142-4.263-12.638-4.307 6.486 5.455 10.069 13.153 12.075 21.387a57.41 57.41 0 0 1 1.213 7.245c.67 6.007.8 12.06.922 18.1l.91 43.837c.055 2.615-.132 5.5-.163 8.111a46.727 46.727 0 0 0 .983 7.906c.466 2.9.726 5.821.986 8.743.341 3.836.682 7.671 1 11.508q1.937 23.379 2.719 46.836c.128-.328.3-.328.657-.343 6.271-.263 12.064-3.262 17.553-6.307a7.239 7.239 0 0 0 2.342-1.758c.593-.767 1.589-2.036 1.065-2.868z" class="cls-empty-staking-6"/>
                        <path id="Path_3550" d="M758.036 1326.42a2.824 2.824 0 0 1 2.476.966 28.314 28.314 0 0 1 8.743 14.52c-2.3.039-4.672.11-6.972.15a18.862 18.862 0 0 0-2.475-3.665l-6.525-8.682a10.947 10.947 0 0 1 4.753-3.289z" class="cls-empty-staking-7"/>
                        <path id="Path_3551" d="M725.795 1326.089a3.837 3.837 0 0 0-1.994 1.1 4.4 4.4 0 0 0-.716 2.873 37.534 37.534 0 0 0 2.808 14.2 47.131 47.131 0 0 1 6.581-.227l-.883-4.658a28.222 28.222 0 0 1-.731-7.043c.073-1.125.281-2.242.267-3.37-.012-.989-.184-2.648-1.182-3.152-1.045-.529-3.09-.012-4.15.277z" class="cls-empty-staking-7"/>
                        <g id="Group_4558">
                            <path id="Path_3552" d="M761.2 1291.994a.666.666 0 0 0 .813.813l-.616 10.76c-.147 2.572-.294 5.149-.194 7.723.055 1.435.188 2.87.145 4.3a35.376 35.376 0 0 1-1.343 7.587 25.579 25.579 0 0 1-.986 3.272 12.855 12.855 0 0 1-4.742 5.849.815.815 0 0 0-.117.071v12.733a33.815 33.815 0 0 1-4.864-.164 24.713 24.713 0 0 1-14.34-5.561 16.822 16.822 0 0 1-5.993-13.825c1.809-1.731 1.712-4.512 1.558-7.011q-.309-5.019-.407-10.048a41.918 41.918 0 0 1 .187-5.888c.127-1.037.324-2.063.522-3.088l1.539-8.005a161.373 161.373 0 0 1 21.418-1.135c2.37.038 5.668.023 7.42 1.617z" class="cls-empty-staking-8"/>
                            <path id="Path_3553" d="M729.784 1291.168l.075 16.629a1.061 1.061 0 0 0 .093.525 1.019 1.019 0 0 0 .6.391c1.046.346 2.474.384 2.954-.608a2.215 2.215 0 0 0-.487-2.176 5.784 5.784 0 0 1-1.23-1.977 2.029 2.029 0 0 1 2.782-2.318c1.386.6 1.655 2.414 1.724 3.922l.654 14.21c.173 3.751 2.947 6.738 5.317 9.651a15.724 15.724 0 0 0 2.4 2.538c3.075 2.41 7.542 2.187 11.157.708a9.611 9.611 0 0 0 5.108-4.143 11.655 11.655 0 0 0 1-4.759 70.162 70.162 0 0 0-.368-11.941 7.241 7.241 0 0 0-7.223-1.841c-2.218.712-3.916 2.463-5.6 4.073s-3.6 3.21-5.918 3.475a3.375 3.375 0 0 1-2.085-.34c-1.107-.647-1.49-2.048-1.651-3.32-.506-3.98-.005-7.907-.458-11.893a12.971 12.971 0 0 1-.07-4.057 11.963 11.963 0 0 1 1.239-3.042l1.837-3.54a25.316 25.316 0 0 1-6.43-.1c-1.87-.183-3.549.121-5.42-.067z" class="cls-empty-staking-5"/>
                            <path id="Path_3554" fill="#5ab9fd" d="M729.343 1292a13.855 13.855 0 0 1 3.927-11 16.484 16.484 0 0 1 10.138-4.485 27.016 27.016 0 0 1 11.118 1.566 15.778 15.778 0 0 1 4.054 1.917 10.027 10.027 0 0 1 4.059 9.446 11.725 11.725 0 0 0 .213 1.977l11.063-.368a.4.4 0 0 1 .495.531l-.141 1.723c-1.235.092-2.471.143-3.708.195-13.693.57-27.463 1.137-41.061-.578a4.238 4.238 0 0 1-.157-.924z"/>
                        </g>
                        <path id="Path_3555" d="M732.482 1344.036l7.538 161.217h-6.47l-7.649-160.99z" class="cls-empty-staking-10"/>
                        <path id="Path_3556" d="M769.263 1341.906l7.964 156.876-5.084 1.849-9.851-158.575z" class="cls-empty-staking-10"/>
                        <path id="Path_3557" d="M802.82 1308.845a16.914 16.914 0 0 1-1.592-5.919c-.254-2.012-.386-4.179.612-5.944a10.3 10.3 0 0 1 2.611-2.736l7.255-5.928a3.9 3.9 0 0 1 1.31-.806 3.587 3.587 0 0 1 1.6.011 23.594 23.594 0 0 1 5.035 1.449 2.37 2.37 0 0 1 1.326 1 2.479 2.479 0 0 1 .119 1.3l-1.191 13.533a14.213 14.213 0 0 1-.928 4.6 12.806 12.806 0 0 0-.766 1.737 6.7 6.7 0 0 0-.052 2.474 15.831 15.831 0 0 1-2.2-.016 12 12 0 0 1-1.7-.131c-1.495-.273-7.317.313-8.619-.213-1.734-.697-1.89-2.673-2.82-4.411z" class="cls-empty-staking-8"/>
                    </g>
                </g>
                <g id="Group_4560" transform="translate(0 -3.325)">
                    <path id="Path_3558" fill="#1ea9a5" d="M757.29 1301.65l121.655-14.223s10.758-.943 9.795 15.727-10.333 15.94-10.333 15.94l-120.825-13.146s-2.658-1.376-.292-4.298z" transform="translate(226.576 -782.42)"/>
                    <ellipse id="Ellipse_196" cx="8.682" cy="13.644" fill="#2e3742" rx="8.682" ry="13.644" transform="matrix(1, 0.017, -0.017, 1, 1096.102, 507.332)"/>
                </g>
                <path id="Path_3560" d="M583.234 1442.676a20.344 20.344 0 0 0-5.033.951 16.389 16.389 0 0 0-3.873 2.187 75.044 75.044 0 0 0-10.011 9.256 2.674 2.674 0 0 0-1.027 2.063 1.785 1.785 0 0 0 1.781 1.336 4.777 4.777 0 0 0 2.279-.731 37.317 37.317 0 0 0 4.916-3.148l.28.5c-3.862 3.376-8.758 5.269-13.417 7.416a5.742 5.742 0 0 0-2.191 1.471 2.029 2.029 0 0 0-.171 2.458 2 2 0 0 0 1.919.571 5.454 5.454 0 0 0 1.888-.894c2.8-1.83 5.478-3.98 8.662-5.015q-4.68 4.058-8.947 8.562a.679.679 0 0 0-.08 1.075c.512.722 1.225 1.532 2.1 1.375a2.408 2.408 0 0 0 1.051-.609 67.024 67.024 0 0 1 11.017-7.438l-8.975 9.727a3.41 3.41 0 0 0-.844 1.243 1.166 1.166 0 0 0 .409 1.343c.605.354 1.341-.129 1.872-.587l12.848-11.073c.425-.366 1.1-.726 1.48-.31l-10.967 12.322a1.2 1.2 0 0 0 1.308.891 3.148 3.148 0 0 0 1.562-.716c3.6-2.617 6.226-6.325 9.33-9.514a53.286 53.286 0 0 1 16.111-10.977c-.664.3-4.527-7.818-4.864-8.627-.616-1.481-.949-3.128-1.616-4.572-.535-1.157-1.383-1.183-2.556-1.107-2.085.134-4.166.362-6.241.571z" class="cls-empty-staking-4" transform="translate(226.575 -782.42)"/>
                <path id="Path_3561" d="M690.069 1431.686c-7.349 8.195-12.814 21.193-23.691 22.884-13.242 2.059-26.538 4.122-39.939 4.3-3.487.045-6.979-.038-10.458.206-6.5.455-12.765 1.7-18.97-.269-.116.248-.491.06-.67-.148a30.079 30.079 0 0 1-6.719-22.793c18.57-5.734 37.75-10.881 56.473-16.092l17.833-27.505c2.589-3.993 5.177-7.986 7.7-12.021q6.553-10.479 12.507-21.318a15.958 15.958 0 0 1 2.97-4.253 16.768 16.768 0 0 1 3.453-2.216c12.488-6.735-1.147 97.959-.489 79.225z" class="cls-empty-staking-6" transform="translate(226.575 -782.42)"/>
                <path id="Path_3562" d="M802.82 1308.845a16.914 16.914 0 0 1-1.592-5.919c-.254-2.012-.386-4.179.612-5.944a10.3 10.3 0 0 1 2.611-2.736l7.255-5.928a3.9 3.9 0 0 1 1.31-.806 3.587 3.587 0 0 1 1.6.011 23.594 23.594 0 0 1 5.035 1.449 2.37 2.37 0 0 1 1.326 1 2.479 2.479 0 0 1 .119 1.3l-1.191 13.533a14.213 14.213 0 0 1-.928 4.6 12.806 12.806 0 0 0-.766 1.737 6.7 6.7 0 0 0-.052 2.474 15.831 15.831 0 0 1-2.2-.016 12 12 0 0 1-1.7-.131c-1.495-.273-7.317.313-8.619-.213-1.734-.697-1.89-2.673-2.82-4.411z" class="cls-empty-staking-8" transform="translate(226.575 -782.42)"/>
            </g>
            <circle id="Ellipse_197" cx="6" cy="6" r="6" class="cls-empty-staking-13" transform="translate(1167 489)"/>
            <circle id="Ellipse_198" cx="3.5" cy="3.5" r="3.5" class="cls-empty-staking-14" transform="translate(1079 483)"/>
            <circle id="Ellipse_201" cx="3.5" cy="3.5" r="3.5" class="cls-empty-staking-15" transform="translate(1147 502)"/>
            <circle id="Ellipse_200" cx="3" cy="3" r="3" class="cls-empty-staking-13" transform="translate(1099 553)"/>
            <circle id="Ellipse_202" cx="3" cy="3" r="3" class="cls-empty-staking-16" transform="translate(1115 508)"/>
            <circle id="Ellipse_199" cx="7" cy="7" r="7" fill="#fff" transform="translate(1133 524)"/>
        </g>
        <g id="Group_4486" transform="translate(477 156)">
            <circle id="Ellipse_4" cx="17.5" cy="17.5" r="17.5" class="cls-empty-staking-18" transform="translate(650 394)"/>
            <g id="Group_51" transform="translate(-912 301)">
                <circle id="Ellipse_5" cx="2.5" cy="2.5" r="2.5" class="cls-empty-staking-14" transform="translate(1577 96)"/>
                <circle id="Ellipse_6" cx="2.5" cy="2.5" r="2.5" class="cls-empty-staking-19" transform="translate(1577 102)"/>
                <circle id="Ellipse_10" cx="2.5" cy="2.5" r="2.5" class="cls-empty-staking-20" transform="translate(1572 99)"/>
                <circle id="Ellipse_14" cx="2.5" cy="2.5" r="2.5" class="cls-empty-staking-15" transform="translate(1582 99)"/>
                <circle id="Ellipse_7" cx="2.5" cy="2.5" r="2.5" class="cls-empty-staking-21" transform="translate(1577 108)"/>
                <circle id="Ellipse_11" cx="2.5" cy="2.5" r="2.5" class="cls-empty-staking-22" transform="translate(1572 105)"/>
                <circle id="Ellipse_18" cx="2.5" cy="2.5" r="2.5" class="cls-empty-staking-23" transform="translate(1567 102)"/>
                <circle id="Ellipse_21" cx="2.5" cy="2.5" r="2.5" class="cls-empty-staking-13" transform="translate(1587 102)"/>
                <circle id="Ellipse_15" cx="2.5" cy="2.5" r="2.5" class="cls-empty-staking-24" transform="translate(1582 105)"/>
                <circle id="Ellipse_8" cx="2.5" cy="2.5" r="2.5" class="cls-empty-staking-24" transform="translate(1577 114)"/>
                <circle id="Ellipse_12" cx="2.5" cy="2.5" r="2.5" class="cls-empty-staking-19" transform="translate(1572 111)"/>
                <circle id="Ellipse_19" cx="2.5" cy="2.5" r="2.5" class="cls-empty-staking-20" transform="translate(1567 108)"/>
                <circle id="Ellipse_22" cx="2.5" cy="2.5" r="2.5" class="cls-empty-staking-16" transform="translate(1587 108)"/>
                <circle id="Ellipse_16" cx="2.5" cy="2.5" r="2.5" class="cls-empty-staking-25" transform="translate(1582 111)"/>
                <circle id="Ellipse_9" cx="2.5" cy="2.5" r="2.5" class="cls-empty-staking-13" transform="translate(1577 120)"/>
                <circle id="Ellipse_13" cx="2.5" cy="2.5" r="2.5" class="cls-empty-staking-15" transform="translate(1572 117)"/>
                <circle id="Ellipse_20" cx="2.5" cy="2.5" r="2.5" class="cls-empty-staking-14" transform="translate(1567 114)"/>
                <circle id="Ellipse_23" cx="2.5" cy="2.5" r="2.5" class="cls-empty-staking-26" transform="translate(1587 114)"/>
                <circle id="Ellipse_17" cx="2.5" cy="2.5" r="2.5" class="cls-empty-staking-16" transform="translate(1582 117)"/>
            </g>
        </g>
        <g id="Group_4563" opacity="0.673" transform="translate(1804.62 124.178) rotate(120)">
            <circle id="Ellipse_4-2" cx="17.5" cy="17.5" r="17.5" class="cls-empty-staking-18" transform="translate(650 394)"/>
            <g id="Group_51-2" transform="translate(-912 301)">
                <circle id="Ellipse_5-2" cx="2.5" cy="2.5" r="2.5" class="cls-empty-staking-14" transform="translate(1577 96)"/>
                <circle id="Ellipse_6-2" cx="2.5" cy="2.5" r="2.5" class="cls-empty-staking-19" transform="translate(1577 102)"/>
                <circle id="Ellipse_10-2" cx="2.5" cy="2.5" r="2.5" class="cls-empty-staking-20" transform="translate(1572 99)"/>
                <circle id="Ellipse_14-2" cx="2.5" cy="2.5" r="2.5" class="cls-empty-staking-15" transform="translate(1582 99)"/>
                <circle id="Ellipse_7-2" cx="2.5" cy="2.5" r="2.5" class="cls-empty-staking-21" transform="translate(1577 108)"/>
                <circle id="Ellipse_11-2" cx="2.5" cy="2.5" r="2.5" class="cls-empty-staking-22" transform="translate(1572 105)"/>
                <circle id="Ellipse_18-2" cx="2.5" cy="2.5" r="2.5" class="cls-empty-staking-23" transform="translate(1567 102)"/>
                <circle id="Ellipse_21-2" cx="2.5" cy="2.5" r="2.5" class="cls-empty-staking-13" transform="translate(1587 102)"/>
                <circle id="Ellipse_15-2" cx="2.5" cy="2.5" r="2.5" class="cls-empty-staking-24" transform="translate(1582 105)"/>
                <circle id="Ellipse_8-2" cx="2.5" cy="2.5" r="2.5" class="cls-empty-staking-24" transform="translate(1577 114)"/>
                <circle id="Ellipse_12-2" cx="2.5" cy="2.5" r="2.5" class="cls-empty-staking-19" transform="translate(1572 111)"/>
                <circle id="Ellipse_19-2" cx="2.5" cy="2.5" r="2.5" class="cls-empty-staking-20" transform="translate(1567 108)"/>
                <circle id="Ellipse_22-2" cx="2.5" cy="2.5" r="2.5" class="cls-empty-staking-16" transform="translate(1587 108)"/>
                <circle id="Ellipse_16-2" cx="2.5" cy="2.5" r="2.5" class="cls-empty-staking-25" transform="translate(1582 111)"/>
                <circle id="Ellipse_9-2" cx="2.5" cy="2.5" r="2.5" class="cls-empty-staking-13" transform="translate(1577 120)"/>
                <circle id="Ellipse_13-2" cx="2.5" cy="2.5" r="2.5" class="cls-empty-staking-15" transform="translate(1572 117)"/>
                <circle id="Ellipse_20-2" cx="2.5" cy="2.5" r="2.5" class="cls-empty-staking-14" transform="translate(1567 114)"/>
                <circle id="Ellipse_23-2" cx="2.5" cy="2.5" r="2.5" class="cls-empty-staking-26" transform="translate(1587 114)"/>
                <circle id="Ellipse_17-2" cx="2.5" cy="2.5" r="2.5" class="cls-empty-staking-16" transform="translate(1582 117)"/>
            </g>
        </g>
    </g>
</svg>
