<svg xmlns="http://www.w3.org/2000/svg" width="324.267" height="241.123">
    <defs>
        <style>
            .cls-empty-2{fill:#f5f5f5}.cls-empty-3{fill:#23beb9}
        </style>
    </defs>
    <g id="Group_4711" data-name="Group 4711" transform="translate(-219.232 -146.667)">
        <path id="Path_3915" data-name="Path 3915" d="m449.579 306.029.374-.344a1.371 1.371 0 0 0 .087-1.937l-7.584-8.285a61.71 61.71 0 1 0-14.415 13.194l7.584 8.286a1.37 1.37 0 0 0 1.937.088l.374-.344 56.219 61.42h21.388z" style="opacity:.438;fill:#212121"/>
        <g id="Group_4711-2" data-name="Group 4711" transform="rotate(19 440.756 289.896)">
            <path id="Path_3916" data-name="Path 3916" class="cls-empty-2" d="M507.694 237.77v35.563c0 2.889-1.309 4.217-4.223 4.218q-24.325.013-48.651 0-4.03 0-4.036-4.036-.011-29.693-.026-59.386c0-1.093.3-1.458 1.422-1.442 4.14.059 8.28.023 12.421.018 2.741 0 3.759-1.024 3.756-3.733 0-3.261.03-6.522-.011-9.782-.013-1.031.309-1.4 1.385-1.4 11.31.034 22.619.018 33.929.027 2.683 0 4.03 1.358 4.031 4.04q.009 17.959.003 35.913zm-28.588-.077v.006h18.983a2.785 2.785 0 0 0 1.35-.117c.419-.264.924-.818.907-1.226s-.577-.911-1.019-1.127a3.593 3.593 0 0 0-1.474-.086q-18.753-.006-37.506 0c-.268 0-.537 0-.805.007-.877.021-1.556.364-1.524 1.329.031.9.722 1.185 1.531 1.213.306.011.613.008.92.008zm.082 8.539q9.427 0 18.855-.005a3.22 3.22 0 0 0 1.461-.155 1.7 1.7 0 0 0 .868-1.15c0-.4-.474-.893-.863-1.178a2.079 2.079 0 0 0-1.116-.131q-19.085-.006-38.169 0c-1.523 0-2.267.461-2.233 1.365.031.854.723 1.249 2.228 1.249q9.481.005 18.969.005zm-.034 8.477h19.079c1.534 0 2.158-.359 2.193-1.251.037-.942-.6-1.335-2.218-1.335h-38.042c-1.437 0-2.17.447-2.163 1.3s.724 1.281 2.189 1.282q9.48.006 18.962.004zm.065 5.937h-18.963c-1.554 0-2.272.431-2.253 1.337.018.862.694 1.244 2.206 1.244h37.927c.345 0 .691.014 1.034-.016a1.267 1.267 0 0 0 .047-2.532 9.753 9.753 0 0 0-1.148-.031l-18.85-.002zm-.119-31.466v.006h11.383c.306 0 .7.092.9-.06.419-.312 1.049-.785 1.021-1.147-.036-.463-.591-.934-1.013-1.3-.183-.157-.591-.062-.9-.062h-22.308c-.383 0-.849-.108-1.128.069-.433.275-1.046.775-1.02 1.14.032.457.581.94 1.011 1.279.219.173.667.066 1.011.066q5.528.012 11.043.009z"/>
            <path id="Path_3917" data-name="Path 3917" class="cls-empty-2" d="M467.3 200.43v1.788c0 2.526-.009 5.052.005 7.578.005.947-.3 1.562-1.364 1.561-3.558 0-7.115 0-10.671-.007a5.752 5.752 0 0 1-1.027-.257l12.657-10.834z" transform="translate(-.822 -.582)"/>
        </g>
        <g id="Group_4712" data-name="Group 4712" transform="rotate(-11 323.42 173.866)">
            <path id="Path_3918" data-name="Path 3918" class="cls-empty-2" d="M276.705 235.257v33.327c0 2.708-1.226 3.952-3.958 3.953q-22.8.012-45.591 0-3.778 0-3.782-3.782l-.025-55.652c0-1.024.281-1.367 1.333-1.352 3.879.055 7.76.021 11.64.017 2.569 0 3.522-.96 3.52-3.5 0-3.056.027-6.112-.011-9.167-.012-.966.291-1.312 1.3-1.308 10.6.032 21.2.017 31.8.026 2.514 0 3.776 1.273 3.777 3.786q.002 16.827-.003 33.652zm-26.791-.072v.006h17.789a2.608 2.608 0 0 0 1.265-.11c.393-.247.867-.767.85-1.149s-.54-.854-.954-1.056a3.368 3.368 0 0 0-1.382-.08q-17.575-.005-35.148 0c-.252 0-.5 0-.755.006-.822.019-1.459.341-1.428 1.246.029.844.677 1.11 1.434 1.137.287.01.575.007.863.007zm.077 8q8.835 0 17.668-.005a3.021 3.021 0 0 0 1.37-.145 1.592 1.592 0 0 0 .813-1.077c0-.379-.444-.837-.808-1.1a1.952 1.952 0 0 0-1.047-.122q-17.884-.005-35.768 0c-1.428 0-2.125.432-2.093 1.279.03.8.678 1.171 2.088 1.171l17.777.001zm-.032 7.944h17.878c1.438 0 2.022-.336 2.055-1.172.034-.883-.566-1.251-2.078-1.251h-35.65c-1.347 0-2.034.419-2.028 1.221s.679 1.2 2.052 1.2q8.885.005 17.771.003zm.061 5.564h-17.772c-1.455 0-2.128.4-2.11 1.253.017.808.65 1.166 2.066 1.166h35.542c.323 0 .648.014.969-.015a1.187 1.187 0 0 0 .044-2.373 9.118 9.118 0 0 0-1.075-.029zm-.107-29.488v.006h10.668c.286 0 .654.086.843-.056.393-.293.983-.735.956-1.075-.033-.434-.553-.875-.949-1.214-.171-.147-.554-.058-.84-.058h-20.9c-.359 0-.8-.1-1.057.064-.407.258-.98.726-.956 1.068.031.428.545.881.948 1.2.2.162.624.062.947.062q5.167.007 10.339.004z"/>
            <path id="Path_3919" data-name="Path 3919" class="cls-empty-2" d="M239.07 200.419v1.675c0 2.367-.009 4.734.006 7.1.005.888-.285 1.464-1.279 1.463-3.333 0-6.667 0-10-.006a5.389 5.389 0 0 1-.962-.241l11.865-10.151z" transform="translate(-.99 -.7)"/>
        </g>
        <path id="Path_3920" data-name="Path 3920" class="cls-empty-3" d="m456.006 185.764-3.312-3.312-3.157 3.157-3.157-3.157-3.312 3.312 3.157 3.157-3.157 3.157 3.312 3.312 3.157-3.157 3.157 3.157 3.312-3.312-3.157-3.157z"/>
        <path id="Path_3921" data-name="Path 3921" class="cls-empty-3" d="m253.7 304.974-3.312-3.312-3.157 3.157-3.157-3.157-3.312 3.312 3.157 3.157-3.157 3.157 3.312 3.312 3.157-3.157 3.157 3.157 3.312-3.312-3.157-3.157z" transform="translate(11.303 -5.794)"/>
        <path id="Path_3922" data-name="Path 3922" class="cls-empty-3" d="m313.915 163.843-3.312-3.312-3.157 3.157-3.157-3.157-3.312 3.312 3.157 3.157-3.157 3.157 3.312 3.312 3.157-3.157 3.157 3.157 3.312-3.312-3.158-3.157z"/>
        <path id="Path_3923" data-name="Path 3923" class="cls-empty-3" d="m522.013 329.256-3.312-3.312-3.157 3.157-3.157-3.157-3.312 3.312 3.157 3.157-3.157 3.157 3.312 3.312 3.157-3.157 3.157 3.157 3.312-3.312-3.157-3.157z"/>
        <g id="Group_4713" data-name="Group 4713">
            <path id="Path_3924" data-name="Path 3924" class="cls-empty-3" d="M253.7 200.224a4.833 4.833 0 1 1 4.834-4.833 4.838 4.838 0 0 1-4.834 4.833zm0-7.667a2.833 2.833 0 1 0 2.834 2.834 2.836 2.836 0 0 0-2.834-2.834z"/>
        </g>
        <g id="Group_4714" data-name="Group 4714">
            <path id="Path_3925" data-name="Path 3925" class="cls-empty-3" d="M394.105 156.333a4.833 4.833 0 1 1 4.834-4.833 4.838 4.838 0 0 1-4.834 4.833zm0-7.666a2.833 2.833 0 1 0 2.834 2.833 2.836 2.836 0 0 0-2.834-2.833z"/>
        </g>
        <g id="Group_4715" data-name="Group 4715">
            <path id="Path_3926" data-name="Path 3926" class="cls-empty-3" d="M529.623 224.045a4.833 4.833 0 1 1 4.834-4.833 4.838 4.838 0 0 1-4.834 4.833zm0-7.667a2.833 2.833 0 1 0 2.834 2.834 2.837 2.837 0 0 0-2.834-2.834z"/>
        </g>
        <g id="Group_4716" data-name="Group 4716">
            <path id="Path_3927" data-name="Path 3927" class="cls-empty-3" d="M467.975 303.819a4.833 4.833 0 1 1 4.834-4.834 4.839 4.839 0 0 1-4.834 4.834zm0-7.667a2.833 2.833 0 1 0 2.834 2.833 2.836 2.836 0 0 0-2.834-2.833z"/>
        </g>
        <g id="Group_4717" data-name="Group 4717" transform="translate(1.635 -11.632)">
            <path id="Path_3928" data-name="Path 3928" class="cls-empty-3" d="M300.976 364.96a4.833 4.833 0 1 1 4.834-4.833 4.838 4.838 0 0 1-4.834 4.833zm0-7.667a2.833 2.833 0 1 0 2.834 2.834 2.836 2.836 0 0 0-2.834-2.834z"/>
        </g>
        <circle id="Ellipse_255" data-name="Ellipse 255" class="cls-empty-3" cx="8.989" cy="8.989" r="8.989" transform="translate(300.891 189.349)"/>
        <circle id="Ellipse_256" data-name="Ellipse 256" class="cls-empty-3" cx="4.521" cy="4.521" r="4.521" transform="translate(309.828 297.298)"/>
        <path id="Path_3929" data-name="Path 3929" class="cls-empty-3" d="M543.5 287.249a4.521 4.521 0 1 1-4.521-4.521 4.521 4.521 0 0 1 4.521 4.521z"/>
        <path id="Path_3930" data-name="Path 3930" class="cls-empty-3" d="M228.275 229.35a4.521 4.521 0 1 1-4.521-4.521 4.521 4.521 0 0 1 4.521 4.521z"/>
        <path id="Path_3931" data-name="Path 3931" class="cls-empty-3" d="M454.059 229.35a4.521 4.521 0 1 1-4.522-4.521 4.522 4.522 0 0 1 4.522 4.521z"/>
        <circle id="Ellipse_257" data-name="Ellipse 257" class="cls-empty-3" cx="6.799" cy="6.799" r="6.799" transform="translate(433.32 348.494)"/>
        <g id="Group_4718" data-name="Group 4718">
            <path id="Path_3932" data-name="Path 3932" d="m510.353 373.583-79.586-79.591-11.775 11.775 79.591 79.585a8.322 8.322 0 0 0 12.235-.506 8.322 8.322 0 0 0-.465-11.263z" style="fill:#454545"/>
            <path id="Path_3933" data-name="Path 3933" d="m410.505 300.084 11.054 11.055a1.446 1.446 0 0 0 2.045 0l12.535-12.539a1.446 1.446 0 0 0 0-2.045l-11.055-11.054z" style="fill:#e0e0e0"/>
            <path id="Path_3934" data-name="Path 3934" d="m426.828 287.249 1.409 1.409-11.846 17.312-5.21-5.21z" style="fill:#bdbdbd"/>
            <path id="Path_3935" data-name="Path 3935" d="m423.985 310.758 11.772-11.772.8.8-9.2 14.342z" style="opacity:.64;fill:#212121"/>
            <path id="Path_3936" data-name="Path 3936" class="cls-empty-2" d="M375 184.881A65.119 65.119 0 1 0 440.119 250 65.118 65.118 0 0 0 375 184.881zm0 116.781A51.662 51.662 0 1 1 426.662 250 51.662 51.662 0 0 1 375 301.662z"/>
            <circle id="Ellipse_258" data-name="Ellipse 258" class="cls-empty-3" cx="51.662" cy="51.662" r="51.662" transform="translate(323.338 198.338)"/>
            <path id="Path_3937" data-name="Path 3937" d="M340.712 215.712c-7.472 7.473-11.963 15.1-10.03 17.03s9.557-2.558 17.029-10.031 11.963-15.1 10.031-17.029-9.558 2.558-17.03 10.03z" style="fill:#fff"/>
        </g>
    </g>
</svg>
