<svg xmlns="http://www.w3.org/2000/svg" width="44.17" height="44.17" viewBox="0 0 44.17 44.17">
    <defs>
        <style>
            .cls-2{fill:#fff}
        </style>
    </defs>
    <g id="Group_14">
        <path id="Path_58" fill="#23beb9" d="M651.07 173.077c-3.185-5.88-10.116-9.967-18.138-9.967s-14.953 4.087-18.138 9.967c-.146.269-.282.541-.412.818.13.276.267.548.412.817 3.185 5.88 10.116 9.967 18.138 9.967s14.953-4.088 18.138-9.967q.218-.4.412-.817-.195-.416-.412-.818zm-18.138 4.8a3.979 3.979 0 1 1 3.978-3.978 3.978 3.978 0 0 1-3.978 3.974z" opacity="0.65" transform="translate(-611.008 -151.97)"/>
        <path id="Path_59" d="M635.1 186.078a13.112 13.112 0 1 1 13.112-13.112 13.127 13.127 0 0 1-13.112 13.112zm0-24.08a10.968 10.968 0 1 0 10.968 10.968A10.98 10.98 0 0 0 635.1 162z" class="cls-2" transform="translate(-613.178 -151.041)"/>
        <path id="Path_60" d="M631.768 191.7a1.072 1.072 0 0 1 0-2.144 19.937 19.937 0 0 0 6.158-.975 1.072 1.072 0 0 1 .664 2.039 22.062 22.062 0 0 1-6.82 1.08zm-6.492-1.015a1.084 1.084 0 0 1-.33-.052 22 22 0 0 1-6.157-3.132 1.072 1.072 0 0 1 1.259-1.735 19.845 19.845 0 0 0 5.558 2.827 1.072 1.072 0 0 1-.33 2.093zm18.833-3a1.072 1.072 0 0 1-.632-1.939 20.014 20.014 0 0 0 4.409-4.413 1.072 1.072 0 1 1 1.734 1.262 22.153 22.153 0 0 1-4.88 4.885 1.066 1.066 0 0 1-.631.197zm-29.343-4.617a1.071 1.071 0 0 1-.867-.44 21.985 21.985 0 0 1-3.149-6.148 1.072 1.072 0 1 1 2.038-.665 19.848 19.848 0 0 0 2.843 5.548 1.072 1.072 0 0 1-.865 1.7zm36.972-5.886a1.074 1.074 0 0 1-1.02-1.4 19.921 19.921 0 0 0 .969-6.16v-.084a1.072 1.072 0 0 1 2.144 0v.071a22.084 22.084 0 0 1-1.074 6.835 1.073 1.073 0 0 1-1.019.73zm-41-6.471a1.054 1.054 0 0 1-1.072-1.051v-.041a22.063 22.063 0 0 1 1.061-6.78 1.072 1.072 0 1 1 2.041.658 19.948 19.948 0 0 0-.957 6.123 1.09 1.09 0 0 1-1.077 1.08zm40.978-6.591a1.071 1.071 0 0 1-1.018-.738 19.861 19.861 0 0 0-2.855-5.543 1.072 1.072 0 0 1 1.729-1.268 21.972 21.972 0 0 1 3.162 6.141 1.071 1.071 0 0 1-.683 1.353 1.051 1.051 0 0 1-.339.047zm-37-5.742a1.072 1.072 0 0 1-.867-1.7 22.152 22.152 0 0 1 4.87-4.894 1.072 1.072 0 1 1 1.266 1.73 20.034 20.034 0 0 0-4.4 4.422 1.07 1.07 0 0 1-.869.434zm29.324-4.73a1.067 1.067 0 0 1-.627-.2 19.853 19.853 0 0 0-5.563-2.816 1.072 1.072 0 1 1 .655-2.041 21.981 21.981 0 0 1 6.163 3.119 1.072 1.072 0 0 1-.629 1.941zm-18.84-2.937a1.072 1.072 0 0 1-.333-2.091 22.077 22.077 0 0 1 6.818-1.094 1.072 1.072 0 0 1 0 2.144 19.936 19.936 0 0 0-6.157.988 1.069 1.069 0 0 1-.328.053z" class="cls-2" transform="translate(-609.662 -147.525)"/>
    </g>
</svg>
