<svg xmlns="http://www.w3.org/2000/svg" width="17.094" height="15.386" viewBox="0 0 17.094 15.386">
    <path fill="red" d="M97.057 128.051a4.433 4.433 0 0 1 3.873 1.293 4.827 4.827 0 0 1 1.488 4 6.983 6.983 0 0 1-2.25 4.216c-.368.359-1.356 1.327-2.774 2.717l-2 1.963-.665.652-.264.259a.812.812 0 0 1-1.138 0l-2.3-2.256-.485-.475-2.922-2.86a6.981 6.981 0 0 1-2.25-4.216 4.825 4.825 0 0 1 1.488-4 4.434 4.434 0 0 1 3.873-1.293 6.594 6.594 0 0 1 3.161 1.542 6.6 6.6 0 0 1 3.161-1.542z" transform="translate(-85.349 -127.996)"/>
</svg>
