<svg xmlns="http://www.w3.org/2000/svg" id="fill-system" width="18.602" height="18.602" viewBox="0 0 18.602 18.602">
    <defs>
        <style>
            .cls-filter-1{fill:#23beb9}
        </style>
    </defs>
    <path id="Path_3136" d="M112.455 97H98.146A2.149 2.149 0 0 0 96 99.146v14.309a2.149 2.149 0 0 0 2.146 2.146h14.309a2.149 2.149 0 0 0 2.146-2.146V99.146A2.149 2.149 0 0 0 112.455 97zm-1.431 6.439h-5.008a.693.693 0 0 1-.089-.006 2.862 2.862 0 0 1-5.545 0 .693.693 0 0 1-.089.006h-.715a.715.715 0 1 1 0-1.431h.715a.693.693 0 0 1 .089.006 2.862 2.862 0 0 1 5.545 0 .693.693 0 0 1 .089-.006h5.008a.715.715 0 1 1 0 1.431zm.715 6.439a.716.716 0 0 1-.715.715h-.715a.7.7 0 0 1-.089-.006 2.862 2.862 0 0 1-5.545 0 .7.7 0 0 1-.089.006h-4.293a.715.715 0 1 1 0-1.431h4.293a.693.693 0 0 1 .089.006 2.862 2.862 0 0 1 5.545 0 .693.693 0 0 1 .089-.006h.715a.716.716 0 0 1 .716.716z" class="cls-filter-1" transform="translate(-96 -97)"/>
    <path id="Path_3137" d="M352 290.431a1.431 1.431 0 1 0 1.431-1.431 1.431 1.431 0 0 0-1.431 1.431z" class="cls-filter-1" transform="translate(-346.276 -284.707)"/>
    <path id="Path_3138" d="M544 610.431a1.431 1.431 0 1 0 1.431-1.431 1.431 1.431 0 0 0-1.431 1.431z" class="cls-filter-1" transform="translate(-533.984 -597.553)"/>
</svg>
