<svg xmlns="http://www.w3.org/2000/svg" width="45.113" height="44" viewBox="0 0 45.113 44">
    <defs>
        <style>
            .cls-1234121{fill:#1ea9a5}
        </style>
    </defs>
    <g id="Group_4474" transform="translate(-273.221 -58.431)">
        <path id="Path_3503" fill="#1ea9a5" fill-rule="evenodd" d="M312.778 58.431a22.559 22.559 0 0 0-7.131 43.961c1.127.208 1.541-.49 1.541-1.085 0-.538-.021-2.315-.031-4.2-6.275 1.365-7.6-2.661-7.6-2.661a5.975 5.975 0 0 0-2.5-3.3c-2.047-1.4.154-1.371.154-1.371a4.741 4.741 0 0 1 3.458 2.325c2.012 3.448 5.277 2.451 6.564 1.875a4.805 4.805 0 0 1 1.432-3.017c-5.01-.57-10.277-2.5-10.277-11.148a8.729 8.729 0 0 1 2.324-6.054 8.106 8.106 0 0 1 .219-5.97s1.894-.606 6.2 2.313a21.386 21.386 0 0 1 11.3 0c4.305-2.918 6.2-2.313 6.2-2.313a8.1 8.1 0 0 1 .221 5.97 8.712 8.712 0 0 1 2.321 6.054c0 8.664-5.277 10.571-10.3 11.13a5.392 5.392 0 0 1 1.53 4.177c0 3.018-.026 5.447-.026 6.19 0 .6.406 1.3 1.549 1.082a22.56 22.56 0 0 0-7.144-43.958z" transform="translate(-17)"/>
        <path id="Path_3504" d="M312.08 144.493c-.05.112-.226.146-.387.069s-.255-.227-.2-.339.225-.148.388-.071.257.228.2.34zm-.278-.205" class="cls-1234121" transform="translate(-13.315 -53.676)"/>
        <path id="Path_3505" d="M314.544 146.814c-.108.1-.318.053-.461-.1a.345.345 0 0 1-.066-.469c.111-.1.315-.053.463.1s.176.368.064.469zm-.215-.231" class="cls-1234121" transform="translate(-14.866 -54.977)"/>
        <path id="Path_3506" d="M316.9 150.046c-.138.1-.364.006-.5-.194s-.138-.442 0-.538.363-.009.5.189.138.445 0 .543zm0 0" class="cls-1234121" transform="translate(-16.334 -56.911)"/>
        <path id="Path_3507" d="M319.884 153.452c-.124.136-.387.1-.58-.087a.434.434 0 0 1-.128-.576c.125-.136.39-.1.584.087s.255.441.124.576zm0 0" class="cls-1234121" transform="translate(-18.098 -59.061)"/>
        <path id="Path_3508" d="M324.1 155.826c-.055.176-.308.257-.564.182s-.422-.284-.371-.462.308-.261.565-.181.422.282.369.462zm0 0" class="cls-1234121" transform="translate(-20.633 -60.706)"/>
        <path id="Path_3509" d="M329 156.461c.006.186-.21.34-.479.344s-.488-.145-.491-.328.212-.34.481-.345.488.145.488.329zm0 0" class="cls-1234121" transform="translate(-23.686 -61.206)"/>
        <path id="Path_3510" d="M333.61 155.8c.032.181-.154.368-.421.417s-.5-.064-.538-.244.157-.372.419-.421.505.063.539.247zm0 0" class="cls-1234121" transform="translate(-26.579 -60.836)"/>
    </g>
</svg>
