<svg xmlns="http://www.w3.org/2000/svg" width="442" height="93">
    <defs>
        <style>
            .cls-1{fill:#dee0e1}.cls-5{fill:none;stroke:#17222d;stroke-linecap:round}.cls-9{fill:#23beb9}.cls-11{fill:#5e1ca3}.cls-12{fill:#542cea}.cls-13{fill:#264712}.cls-14{fill:#ca8bf2}.cls-18{fill:#e9aa41}.cls-19{fill:#420f07}.cls-20{fill:#394813}
        </style>
    </defs>
    <g id="Group_4710" data-name="Group 4710" transform="translate(-455 -171)">
        <g id="Group_51" data-name="Group 51" transform="translate(-1058 177)">
            <rect id="Rectangle_25" data-name="Rectangle 25" class="cls-1" width="143" height="41" rx="20.5" transform="translate(1530 28)"/>
            <text id="KSM" transform="translate(1576 54)" style="font-family:Montserrat-Bold,Montserrat;font-weight:700;font-size:16px;fill:#17222d"><tspan x="0" y="0">KSM</tspan></text>
            <g id="Group_31" data-name="Group 31">
                <circle id="Ellipse_4" data-name="Ellipse 4" cx="17.5" cy="17.5" r="17.5" transform="translate(1533 31)" style="fill:#0b0d13"/>
                <path id="Path_62" data-name="Path 62" d="M72.078 116.948a3.082 3.082 0 0 0-1.666-.815 3.415 3.415 0 0 0-2.106.763c-.536.345-1.548 1.358-1.967 1.666s-1.49.594-3.214 1.629-8.49 5.379-8.49 5.379l1.761.022-7.852 4.043h.785l-1.13.859a2.556 2.556 0 0 0 1.835-.264v.242s9.349-3.684 11.154-2.73l-1.1.323c.1 0 1.871.117 1.871.117a2.52 2.52 0 0 0 1.13 1.82c1.071.7 1.093 1.093 1.093 1.093s-.558.227-.558.514a5.781 5.781 0 0 1 1.585-.227 6.065 6.065 0 0 1 1.431.227s-.059-.308-.8-.514a4.405 4.405 0 0 1-1.835-1.453 2.055 2.055 0 0 1-.3-2.011c.257-.668 1.152-1.035 3-1.989 2.179-1.13 2.678-1.967 2.987-2.62s.763-1.952 1.02-2.561a3.306 3.306 0 0 1 1.049-1.453 13.463 13.463 0 0 1 1.8-.8s-1.123-.974-1.483-1.26z" transform="translate(1489.621 -75.365)" style="fill:#fff"/>
            </g>
            <g id="Group_30" data-name="Group 30" transform="rotate(-45 882.418 -1964.764)">
                <path id="Line_1" data-name="Line 1" class="cls-5" transform="translate(0 8.358)" d="M0 0h8.358"/>
                <path id="Line_2" data-name="Line 2" class="cls-5" transform="rotate(90 4.179 4.179)" d="M0 0h8.358"/>
            </g>
        </g>
        <g id="Group_52" data-name="Group 52" transform="translate(-930 116)">
            <rect id="Rectangle_25-2" data-name="Rectangle 25" class="cls-1" width="238" height="41" rx="20.5" transform="translate(1559 89)"/>
            <text id="cryptolab.network" transform="translate(1605 107)" style="font-size:13px;font-family:Montserrat-Bold,Montserrat;font-weight:700;fill:#17222d"><tspan x="0" y="0">cryptolab.network</tspan></text>
            <text id="Balance:_60_3233_KSM" data-name="Balance: 60,3233 KSM" transform="translate(1605 122)" style="fill:#75818d;font-size:13px;font-family:Montserrat-Bold,Montserrat;font-weight:700"><tspan x="0" y="0">Balance:</tspan><tspan y="0" style="fill:#17222d"> </tspan><tspan class="cls-9" y="0">60,3233 KSM</tspan></text>
            <circle id="Ellipse_4-2" data-name="Ellipse 4" cx="17.5" cy="17.5" r="17.5" transform="translate(1562 92)" style="fill:#f0f0f0"/>
            <g id="Group_30-2" data-name="Group 30" transform="rotate(-45 1018.2 -2084.303)">
                <path id="Line_1-2" data-name="Line 1" class="cls-5" transform="translate(0 8.358)" d="M0 0h8.358"/>
                <path id="Line_2-2" data-name="Line 2" class="cls-5" transform="rotate(90 4.179 4.179)" d="M0 0h8.358"/>
            </g>
            <g id="Group_51-2" data-name="Group 51" transform="translate(0 -1)">
                <circle id="Ellipse_5" data-name="Ellipse 5" class="cls-11" cx="2.5" cy="2.5" r="2.5" transform="translate(1577 96)"/>
                <circle id="Ellipse_6" data-name="Ellipse 6" class="cls-12" cx="2.5" cy="2.5" r="2.5" transform="translate(1577 102)"/>
                <circle id="Ellipse_10" data-name="Ellipse 10" class="cls-13" cx="2.5" cy="2.5" r="2.5" transform="translate(1572 99)"/>
                <circle id="Ellipse_14" data-name="Ellipse 14" class="cls-14" cx="2.5" cy="2.5" r="2.5" transform="translate(1582 99)"/>
                <circle id="Ellipse_7" data-name="Ellipse 7" cx="2.5" cy="2.5" r="2.5" transform="translate(1577 108)" style="fill:#3a0b46"/>
                <circle id="Ellipse_11" data-name="Ellipse 11" cx="2.5" cy="2.5" r="2.5" transform="translate(1572 105)" style="fill:#270946"/>
                <circle id="Ellipse_18" data-name="Ellipse 18" cx="2.5" cy="2.5" r="2.5" transform="translate(1567 102)" style="fill:#9a88f2"/>
                <circle id="Ellipse_21" data-name="Ellipse 21" class="cls-18" cx="2.5" cy="2.5" r="2.5" transform="translate(1587 102)"/>
                <circle id="Ellipse_15" data-name="Ellipse 15" class="cls-19" cx="2.5" cy="2.5" r="2.5" transform="translate(1582 105)"/>
                <circle id="Ellipse_8" data-name="Ellipse 8" class="cls-19" cx="2.5" cy="2.5" r="2.5" transform="translate(1577 114)"/>
                <circle id="Ellipse_12" data-name="Ellipse 12" class="cls-12" cx="2.5" cy="2.5" r="2.5" transform="translate(1572 111)"/>
                <circle id="Ellipse_19" data-name="Ellipse 19" class="cls-13" cx="2.5" cy="2.5" r="2.5" transform="translate(1567 108)"/>
                <circle id="Ellipse_22" data-name="Ellipse 22" class="cls-20" cx="2.5" cy="2.5" r="2.5" transform="translate(1587 108)"/>
                <circle id="Ellipse_16" data-name="Ellipse 16" cx="2.5" cy="2.5" r="2.5" transform="translate(1582 111)" style="fill:#1e471c"/>
                <circle id="Ellipse_9" data-name="Ellipse 9" class="cls-18" cx="2.5" cy="2.5" r="2.5" transform="translate(1577 120)"/>
                <circle id="Ellipse_13" data-name="Ellipse 13" class="cls-14" cx="2.5" cy="2.5" r="2.5" transform="translate(1572 117)"/>
                <circle id="Ellipse_20" data-name="Ellipse 20" class="cls-11" cx="2.5" cy="2.5" r="2.5" transform="translate(1567 114)"/>
                <circle id="Ellipse_23" data-name="Ellipse 23" cx="2.5" cy="2.5" r="2.5" transform="translate(1587 114)" style="fill:#1d472a"/>
                <circle id="Ellipse_17" data-name="Ellipse 17" class="cls-20" cx="2.5" cy="2.5" r="2.5" transform="translate(1582 117)"/>
            </g>
        </g>
        <g id="Rectangle_222" data-name="Rectangle 222" transform="translate(455 184)" style="stroke:#23beb9;stroke-width:3px;fill:none">
            <rect width="432" height="80" rx="5" style="stroke:none"/>
            <rect x="1.5" y="1.5" width="429" height="77" rx="3.5" style="fill:none"/>
        </g>
        <g id="Group_4709" data-name="Group 4709" transform="translate(869 171.409)">
            <circle id="Ellipse_29" data-name="Ellipse 29" class="cls-9" cx="14" cy="14" r="14" transform="translate(0 -.409)"/>
            <text id="_1" data-name="1" transform="translate(13.7 21)" style="font-size:20px;fill:#fff;font-family:Montserrat-Bold,Montserrat;font-weight:700"><tspan x="-3.92" y="0">1</tspan></text>
        </g>
    </g>
</svg>
