<svg xmlns="http://www.w3.org/2000/svg" width="603" height="736">
    <defs>
        <style>
            .cls-10,.cls-14,.cls-21,.cls-40,.cls-43{fill:none}.cls-20,.cls-4,.cls-41,.cls-5{fill:#fff}.cls-5{opacity:.998}.cls-9{fill:#17222d}.cls-41,.cls-8{font-family:Montserrat-Bold,Montserrat;font-weight:700}.cls-11,.cls-8{fill:#23beb9}.cls-8{font-size:25px}.cls-20,.cls-9{font-size:13px;font-family:Montserrat-Medium,Montserrat;font-weight:500}.cls-10{stroke:#d7d8d9}.cls-40{stroke:#23beb9}.cls-14,.cls-21{stroke:#17222d;stroke-linecap:round}.cls-21{stroke:#fff}.cls-26{fill:#5e1ca3}.cls-27{fill:#542cea}.cls-28{fill:#264712}.cls-29{fill:#ca8bf2}.cls-33{fill:#e9aa41}.cls-34{fill:#420f07}.cls-35{fill:#394813}.cls-40{stroke-width:3px}.cls-41{font-size:20px}.cls-42{stroke:none}
        </style>
    </defs>
    <g id="Group_4708" data-name="Group 4708" transform="translate(-440 -286)">
        <rect id="Rectangle_135" data-name="Rectangle 135" width="603" height="736" rx="10" transform="translate(440 286)" style="fill:#17212d"/>
        <g id="Group_190" data-name="Group 190" transform="translate(-219 105)">
            <g id="Group_59" data-name="Group 59" transform="translate(-2.684 -75.5)">
                <g id="Group_22" data-name="Group 22" transform="translate(677.684 274)">
                    <g id="Rectangle_12" data-name="Rectangle 12" style="fill:#18232f;stroke:#19474f;opacity:.893">
                        <rect class="cls-42" width="570" height="694.275" rx="8"/>
                        <rect class="cls-43" x=".5" y=".5" width="569" height="693.275" rx="7.5"/>
                    </g>
                </g>
                <path id="Line_3" data-name="Line 3" transform="translate(678.109 346.443)" style="stroke:#21aca8;opacity:.265;fill:none" d="M0 0h569.391"/>
            </g>
            <g id="Group_37" data-name="Group 37" transform="translate(1200.129 228.311)">
                <path id="Rectangle_40" data-name="Rectangle 40" class="cls-4" transform="translate(0 13.849)" d="M0 0h5.114v1.278H0z"/>
                <path id="Rectangle_43" data-name="Rectangle 43" class="cls-4" transform="translate(0 7.883)" d="M0 0h5.114v1.278H0z"/>
                <path id="Rectangle_46" data-name="Rectangle 46" class="cls-4" transform="rotate(180 8.097 1.598)" d="M0 0h5.114v1.278H0z"/>
                <path id="Rectangle_41" data-name="Rectangle 41" class="cls-4" transform="translate(7.67 13.849)" d="M0 0h8.523v1.278H0z"/>
                <path id="Rectangle_45" data-name="Rectangle 45" class="cls-4" transform="translate(7.67 7.883)" d="M0 0h8.523v1.278H0z"/>
                <path id="Rectangle_48" data-name="Rectangle 48" class="cls-4" transform="rotate(180 4.261 1.598)" d="M0 0h8.523v1.278H0z"/>
                <path id="Rectangle_42" data-name="Rectangle 42" class="cls-4" transform="rotate(90 -1.491 10.44)" d="M0 0h5.114v1.278H0z"/>
                <path id="Rectangle_44" data-name="Rectangle 44" class="cls-4" transform="rotate(90 -.426 5.54)" d="M0 0h5.114v1.278H0z"/>
                <path id="Rectangle_47" data-name="Rectangle 47" class="cls-4" transform="rotate(-90 8.097 -2.984)" d="M0 0h5.114v1.278H0z"/>
            </g>
            <rect id="Rectangle_49" data-name="Rectangle 49" class="cls-5" width="516.639" height="99" rx="6" transform="translate(699.684 300.5)"/>
            <g id="Group_38" data-name="Group 38" transform="translate(721.127 319.682)">
                <circle id="Ellipse_4" data-name="Ellipse 4" cx="31" cy="31" r="31" transform="translate(-.443 -.182)" style="fill:#0b0d13"/>
                <path id="Path_62" data-name="Path 62" class="cls-4" d="M89.874 117.565a5.379 5.379 0 0 0-2.907-1.422c-1.358-.179-2.741.73-3.676 1.332s-2.7 2.369-3.432 2.907-2.6 1.037-5.609 2.843-14.818 9.388-14.818 9.388l3.074.038-13.7 7.057h1.37l-1.972 1.5a4.46 4.46 0 0 0 3.2-.461v.423s16.316-6.429 19.467-4.764l-1.921.563c.167 0 3.266.2 3.266.2a4.4 4.4 0 0 0 1.972 3.176c1.87 1.229 1.908 1.908 1.908 1.908s-.973.4-.973.9a10.089 10.089 0 0 1 2.766-.4 10.585 10.585 0 0 1 2.5.4s-.1-.538-1.4-.9a7.688 7.688 0 0 1-3.2-2.536 3.586 3.586 0 0 1-.525-3.509c.448-1.165 2.011-1.806 5.238-3.471 3.8-1.972 4.675-3.432 5.212-4.572s1.332-3.407 1.78-4.47a5.77 5.77 0 0 1 1.831-2.536 23.5 23.5 0 0 1 3.138-1.4s-1.963-1.695-2.589-2.194z" transform="translate(-39.786 -99.095)"/>
            </g>
            <text id="KSM" transform="translate(821.684 355.5)" style="font-family:Montserrat-Bold,Montserrat;font-weight:700;font-size:18px;fill:#17222d"><tspan x="-20.862" y="0">KSM</tspan></text>
            <text id="_60.1939" data-name="60.194" class="cls-8" transform="translate(1190.639 364.5)"><tspan x="-94.925" y="0">60.1939</tspan></text>
            <text id="Balance:_60.3233_KSM" data-name="Balance: 60.3233 KSM" class="cls-9" transform="translate(1122.639 327.5)"><tspan x="-71.012" y="0">Balance: 60.3233 KSM</tspan></text>
            <path id="Line_4" data-name="Line 4" class="cls-10" transform="translate(1021.646 371.244)" d="M0 0h170.029"/>
            <g id="Group_41" data-name="Group 41" transform="translate(953 408.299)">
                <rect id="Rectangle_50" data-name="Rectangle 50" class="cls-11" width="15.341" height="1.278" rx=".639" transform="rotate(90 3.634 3.634)"/>
                <g id="Group_40" data-name="Group 40" transform="translate(0 8.491)">
                    <rect id="Rectangle_51" data-name="Rectangle 51" class="cls-11" width="9.375" height="1.278" rx=".639" transform="rotate(45 .452 1.091)"/>
                    <rect id="Rectangle_52" data-name="Rectangle 52" class="cls-11" width="9.375" height="1.278" rx=".639" transform="rotate(135 6.441 3.198)"/>
                </g>
            </g>
            <g id="Group_47" data-name="Group 47" transform="translate(850.16 788.035)">
                <g id="Rectangle_54" data-name="Rectangle 54" transform="translate(-.16 -.035)" style="stroke:#23beb9;fill:#17222d">
                    <rect class="cls-42" width="220" height="35" rx="17.5"/>
                    <rect class="cls-43" x=".5" y=".5" width="219" height="34" rx="17"/>
                </g>
                <text id="Nominate" transform="translate(108.84 21.965)" style="font-size:15px;fill:#23beb9;font-family:Montserrat-Bold,Montserrat;font-weight:700"><tspan x="-38.775" y="0">Nominate</tspan></text>
            </g>
            <g id="Group_48" data-name="Group 48" transform="translate(699.82 433.035)">
                <rect id="Rectangle_53" data-name="Rectangle 53" class="cls-5" width="516.639" height="99" rx="6" transform="translate(-.137 .465)"/>
                <text id="_17.6_" data-name="17.6%" class="cls-8" transform="translate(490.502 58.465)"><tspan x="-67.65" y="0">17.6%</tspan></text>
                <g id="Group_45" data-name="Group 45" transform="translate(27.699 40.465)">
                    <path id="Line_5" data-name="Line 5" class="cls-10" transform="translate(0 28.144)" d="M0 0h190"/>
                    <g id="Group_44" data-name="Group 44" transform="translate(.164)">
                        <text id="High_APY" data-name="High APY" class="cls-9" transform="translate(0 13)"><tspan x="0" y="0">High APY</tspan></text>
                        <g id="Group_43" data-name="Group 43" transform="rotate(-45 99.993 -208.14)">
                            <path id="Line_1" data-name="Line 1" class="cls-14" transform="translate(0 7.123)" d="M0 0h7.123"/>
                            <path id="Line_2" data-name="Line 2" class="cls-14" transform="rotate(90 3.562 3.562)" d="M0 0h7.123"/>
                        </g>
                    </g>
                </g>
            </g>
            <text id="Strategy" transform="translate(715.684 458.268)" style="font-size:13px;font-family:Montserrat-Bold,Montserrat;font-weight:700;fill:#17222d"><tspan x="0" y="0">Strategy</tspan></text>
            <g id="Group_60" data-name="Group 60" transform="translate(696.438 212.096)">
                <path id="Path_46" data-name="Path 46" class="cls-11" d="M454.143 324.389a9.4 9.4 0 0 0 9.36-8.683h-18.72a9.4 9.4 0 0 0 9.36 8.683z" transform="translate(-437.292 -283.161)"/>
                <g id="Group_10" data-name="Group 10">
                    <g id="Group_15" data-name="Group 15" transform="translate(0 11.498)">
                        <path id="Path_47" data-name="Path 47" class="cls-4" d="M441.99 235.694a.714.714 0 1 0 1.01-1.009l-1.559-1.559a.713.713 0 0 0-1.009 1.009z" transform="translate(-440.222 -232.917)"/>
                        <path id="Path_48" data-name="Path 48" class="cls-4" d="M451.7 245.405a.714.714 0 0 0 1.009-1.009l-1.559-1.559a.713.713 0 1 0-1.009 1.009z" transform="translate(-445.314 -238.009)"/>
                        <path id="Path_49" data-name="Path 49" class="cls-4" d="M450.647 235.9a.711.711 0 0 0 .5-.209l1.559-1.559a.714.714 0 0 0-1.009-1.009l-1.558 1.559a.713.713 0 0 0 .5 1.218z" transform="translate(-445.314 -232.917)"/>
                        <path id="Path_50" data-name="Path 50" class="cls-4" d="m441.44 245.405 1.56-1.559a.714.714 0 1 0-1.009-1.009l-1.558 1.559a.713.713 0 0 0 1.009 1.009z" transform="translate(-440.222 -238.009)"/>
                    </g>
                    <g id="Group_16" data-name="Group 16" transform="translate(4.582)">
                        <path id="Path_51" data-name="Path 51" class="cls-4" d="M471.414 247.181a.713.713 0 1 0 1.009-1.009l-1.165-1.165a.714.714 0 1 0-1.009 1.009z" transform="translate(-470.04 -244.798)"/>
                        <path id="Path_52" data-name="Path 52" class="cls-4" d="M478.675 254.442a.714.714 0 1 0 1.009-1.009l-1.165-1.165a.713.713 0 0 0-1.009 1.009z" transform="translate(-473.848 -248.605)"/>
                        <path id="Path_53" data-name="Path 53" class="cls-4" d="M478.015 247.39a.712.712 0 0 0 .5-.209l1.165-1.165a.714.714 0 0 0-1.009-1.009l-1.165 1.165a.714.714 0 0 0 .5 1.218z" transform="translate(-473.848 -244.798)"/>
                        <path id="Path_54" data-name="Path 54" class="cls-4" d="M470.754 254.651a.712.712 0 0 0 .5-.209l1.165-1.165a.713.713 0 1 0-1.009-1.009l-1.165 1.165a.714.714 0 0 0 .5 1.218z" transform="translate(-470.04 -248.605)"/>
                    </g>
                    <path id="Path_55" data-name="Path 55" class="cls-4" d="M463.328 287.863a10.845 10.845 0 0 0-7.353-9.545v-11.565h1.73a.713.713 0 1 0 0-1.427h-10.349a.713.713 0 0 0 0 1.427h1.73v11.565a10.844 10.844 0 0 0-7.353 9.545c-.015.236-.026.474-.026.713s.01.478.026.714a10.821 10.821 0 0 0 21.6 0c.015-.236.026-.473.026-.714s-.016-.476-.031-.713zm-10.8 10.11a9.4 9.4 0 0 1-9.36-8.683c-.018-.236-.036-.473-.036-.714s.018-.477.036-.713a9.419 9.419 0 0 1 7.343-8.46v-12.65h4.035V279.4a9.289 9.289 0 0 1 1.427.439 9.406 9.406 0 0 1 5.916 8.021c.018.236.036.473.036.713s-.019.477-.036.714a9.4 9.4 0 0 1-9.358 8.686z" transform="translate(-435.679 -256.744)"/>
                </g>
            </g>
            <g id="Group_61" data-name="Group 61" transform="translate(742.457 215.545)">
                <text id="Staking" transform="translate(36.227 16.955)" style="font-family:Montserrat-Bold,Montserrat;font-weight:700;font-size:18px;fill:#fff"><tspan x="-36.396" y="0">Staking</tspan></text>
                <text id="Select_the_preferred_type_for_evaluation" data-name="Select the preferred type for evaluation" transform="translate(.227 36.955)" style="font-size:11px;font-family:Montserrat-Medium,Montserrat;font-weight:500;fill:#fff"><tspan x="0" y="0">Select the preferred type for evaluation</tspan></text>
            </g>
            <path id="Path_63" data-name="Path 63" class="cls-4" d="M.713 2.985a.711.711 0 0 0 .5-.209l1.564-1.558A.714.714 0 0 0 1.767.209L.209 1.768a.713.713 0 0 0 .5 1.218z" transform="rotate(45 91.872 985.996)"/>
            <g id="Group_123" data-name="Group 123" transform="translate(0 -13)">
                <rect id="Rectangle_55" data-name="Rectangle 55" width="516.639" height="200" rx="6" transform="translate(699.684 560.5)" style="opacity:.099;fill:#fff"/>
                <g id="Group_49" data-name="Group 49" transform="translate(727.52 613.5)">
                    <path id="Line_5-2" data-name="Line 5" transform="translate(0 28.132)" style="opacity:.211;stroke:#d7d8d9;fill:none" d="M0 0h464.155"/>
                    <g id="Group_44-2" data-name="Group 44" transform="translate(.164)">
                        <text id="Stash_account_increase_the_amount_at_stake" data-name="Stash account (increase the amount at stake" class="cls-20" transform="translate(0 13)"><tspan x="0" y="0">Stash account (increase the amount at stake</tspan></text>
                        <g id="Group_43-2" data-name="Group 43" transform="rotate(-45 237.057 -539.082)">
                            <path id="Line_1-2" data-name="Line 1" class="cls-21" transform="translate(0 7.123)" d="M0 0h7.123"/>
                            <path id="Line_2-2" data-name="Line 2" class="cls-21" transform="rotate(90 3.562 3.562)" d="M0 0h7.123"/>
                        </g>
                    </g>
                </g>
                <g id="Group_50" data-name="Group 50" transform="translate(727.52 669.635)">
                    <path id="Line_5-3" data-name="Line 5" transform="translate(0 28.133)" style="stroke:#525a63;fill:none" d="M0 0h464.155"/>
                    <g id="Group_44-3" data-name="Group 44" transform="translate(36.846 .001)">
                        <text id="Crytolab.network" class="cls-20" transform="translate(0 13)"><tspan x="0" y="0">Crytolab.network</tspan></text>
                    </g>
                    <g id="Group_70" data-name="Group 70" transform="translate(278.155 2.001)">
                        <text id="DBBFZxZqGPb2LSQSA4WHugerXGwm2ivywqd_" data-name="DBBFZxZqGPb2LSQSA4WHugerXGwm2ivywqd…" transform="translate(185 11)" style="fill:#525a63;font-size:11px;font-family:Montserrat-Medium,Montserrat;font-weight:500"><tspan x="-272.668" y="0">DBBFZxZqGPb2LSQSA4WHugerXGwm2ivywqd…</tspan></text>
                    </g>
                </g>
                <text id="Reward_Destination" data-name="Reward Destination" transform="translate(715.684 586.5)" style="font-size:13px;font-family:Montserrat-Bold,Montserrat;font-weight:700;fill:#fff"><tspan x="0" y="0">Reward Destination</tspan></text>
                <g id="Group_69" data-name="Group 69" transform="translate(-29 -49)">
                    <circle id="Ellipse_24" data-name="Ellipse 24" cx="14" cy="14" r="14" transform="translate(757 714)" style="fill:#f0f0f0"/>
                    <g id="Group_68" data-name="Group 68" transform="translate(761.014 716.309)">
                        <circle id="Ellipse_5" data-name="Ellipse 5" class="cls-26" cx="2" cy="2" r="2" transform="translate(7.986 -.309)"/>
                        <circle id="Ellipse_6" data-name="Ellipse 6" class="cls-27" cx="2" cy="2" r="2" transform="translate(7.986 4.691)"/>
                        <circle id="Ellipse_10" data-name="Ellipse 10" class="cls-28" cx="2" cy="2" r="2" transform="translate(3.986 2.691)"/>
                        <circle id="Ellipse_14" data-name="Ellipse 14" class="cls-29" cx="2" cy="2" r="2" transform="translate(11.986 2.691)"/>
                        <circle id="Ellipse_7" data-name="Ellipse 7" cx="2" cy="2" r="2" transform="translate(7.986 9.691)" style="fill:#3a0b46"/>
                        <circle id="Ellipse_11" data-name="Ellipse 11" cx="2" cy="2" r="2" transform="translate(3.986 7.691)" style="fill:#270946"/>
                        <circle id="Ellipse_18" data-name="Ellipse 18" cx="2" cy="2" r="2" transform="translate(-.014 4.691)" style="fill:#9a88f2"/>
                        <circle id="Ellipse_21" data-name="Ellipse 21" class="cls-33" cx="2" cy="2" r="2" transform="translate(15.986 4.691)"/>
                        <circle id="Ellipse_15" data-name="Ellipse 15" class="cls-34" cx="2" cy="2" r="2" transform="translate(11.986 7.691)"/>
                        <circle id="Ellipse_8" data-name="Ellipse 8" class="cls-34" cx="2" cy="2" r="2" transform="translate(7.986 14.691)"/>
                        <circle id="Ellipse_12" data-name="Ellipse 12" class="cls-27" cx="2" cy="2" r="2" transform="translate(3.986 12.691)"/>
                        <circle id="Ellipse_19" data-name="Ellipse 19" class="cls-28" cx="2" cy="2" r="2" transform="translate(-.014 9.691)"/>
                        <circle id="Ellipse_22" data-name="Ellipse 22" class="cls-35" cx="2" cy="2" r="2" transform="translate(15.986 9.691)"/>
                        <circle id="Ellipse_16" data-name="Ellipse 16" cx="2" cy="2" r="2" transform="translate(11.986 12.691)" style="fill:#1e471c"/>
                        <circle id="Ellipse_9" data-name="Ellipse 9" class="cls-33" cx="2" cy="2" r="2" transform="translate(7.986 19.691)"/>
                        <circle id="Ellipse_13" data-name="Ellipse 13" class="cls-29" cx="2" cy="2" r="2" transform="translate(3.986 17.691)"/>
                        <circle id="Ellipse_20" data-name="Ellipse 20" class="cls-26" cx="2" cy="2" r="2" transform="translate(-.014 14.691)"/>
                        <circle id="Ellipse_23" data-name="Ellipse 23" cx="2" cy="2" r="2" transform="translate(15.986 14.691)" style="fill:#1d472a"/>
                        <circle id="Ellipse_17" data-name="Ellipse 17" class="cls-35" cx="2" cy="2" r="2" transform="translate(11.986 17.691)"/>
                    </g>
                </g>
            </g>
            <text id="There_is_currently_an_ongoing_election_for_new_validator_candidates._As_such_staking_operations_are_not_permitted." data-name="There is currently an ongoing election for new validator candidates. As such staking operations are not permitted." transform="translate(731.684 841.799)" style="font-size:12px;font-family:Montserrat-Medium,Montserrat;font-weight:500;fill:#fff"><tspan x="0" y="12">There is currently an ongoing election for new validator candidates. As such </tspan><tspan x="0" y="27">staking operations are not permitted.</tspan></text>
            <g id="Group_81" data-name="Group 81">
                <path id="Polygon_1" data-name="Polygon 1" d="M7.132 1.519a1 1 0 0 1 1.736 0L15.145 12.5a1 1 0 0 1-.868 1.5H1.723a1 1 0 0 1-.868-1.5z" transform="translate(709 843)" style="fill:#f7ab00"/>
                <g id="Group_80" data-name="Group 80">
                    <path id="Rectangle_56" data-name="Rectangle 56" class="cls-4" transform="translate(716 848)" d="M0 0h2v5H0z"/>
                    <path id="Rectangle_57" data-name="Rectangle 57" class="cls-4" transform="translate(716 854)" d="M0 0h2v2H0z"/>
                </g>
            </g>
            <text id="Calculated_APY" data-name="Calculated APY" class="cls-9" transform="translate(1193.639 458.268)"><tspan x="-100.984" y="0">Calculated APY</tspan></text>
        </g>
        <g id="Rectangle_138" data-name="Rectangle 138" class="cls-40" transform="translate(474 532)">
            <rect class="cls-42" width="243" height="112" rx="5"/>
            <rect class="cls-43" x="1.5" y="1.5" width="240" height="109" rx="3.5"/>
        </g>
        <g id="Rectangle_137" data-name="Rectangle 137" class="cls-40" transform="translate(788 399)">
            <rect class="cls-42" width="216" height="112" rx="5"/>
            <rect class="cls-43" x="1.5" y="1.5" width="213" height="109" rx="3.5"/>
        </g>
        <g id="Rectangle_139" data-name="Rectangle 139" class="cls-40" transform="translate(788 532)">
            <rect class="cls-42" width="216" height="112" rx="5"/>
            <rect class="cls-43" x="1.5" y="1.5" width="213" height="109" rx="3.5"/>
        </g>
        <g id="Rectangle_140" data-name="Rectangle 140" class="cls-40" transform="translate(474 694)">
            <rect class="cls-42" width="530" height="112" rx="5"/>
            <rect class="cls-43" x="1.5" y="1.5" width="527" height="109" rx="3.5"/>
        </g>
        <g id="Rectangle_141" data-name="Rectangle 141" class="cls-40" transform="translate(474 880)">
            <rect class="cls-42" width="530" height="62" rx="5"/>
            <rect class="cls-43" x="1.5" y="1.5" width="527" height="59" rx="3.5"/>
        </g>
        <g id="Group_193" data-name="Group 193" transform="translate(-441 163)">
            <circle id="Ellipse_29" data-name="Ellipse 29" class="cls-11" cx="14" cy="14" r="14" transform="translate(1140 356)"/>
            <text id="_3" data-name="3" class="cls-41" transform="translate(1153.619 377)"><tspan x="-5.92" y="0">3</tspan></text>
        </g>
        <g id="Group_192" data-name="Group 192" transform="translate(-154 30)">
            <circle id="Ellipse_29-2" data-name="Ellipse 29" class="cls-11" cx="14" cy="14" r="14" transform="translate(1140 356)"/>
            <text id="_2" data-name="2" class="cls-41" transform="translate(1153.619 377)"><tspan x="-5.9" y="0">2</tspan></text>
        </g>
        <g id="Group_194" data-name="Group 194" transform="translate(-154 163)">
            <circle id="Ellipse_29-3" data-name="Ellipse 29" class="cls-11" cx="14" cy="14" r="14" transform="translate(1140 356)"/>
            <text id="_4" data-name="4" class="cls-41" transform="translate(1153.632 377)"><tspan x="-6.89" y="0">4</tspan></text>
        </g>
        <g id="Group_195" data-name="Group 195" transform="translate(986 681)">
            <circle id="Ellipse_29-4" data-name="Ellipse 29" class="cls-11" cx="14" cy="14" r="14"/>
            <text id="_5" data-name="5" class="cls-41" transform="translate(13.619 21)"><tspan x="-5.95" y="0">5</tspan></text>
        </g>
        <g id="Group_196" data-name="Group 196" transform="translate(986 867)">
            <circle id="Ellipse_29-5" data-name="Ellipse 29" class="cls-11" cx="14" cy="14" r="14"/>
            <text id="_6" data-name="6" class="cls-41" transform="translate(13.619 21)"><tspan x="-6.37" y="0">6</tspan></text>
        </g>
    </g>
</svg>
