<svg xmlns="http://www.w3.org/2000/svg" width="14.63" height="16.228" viewBox="0 0 14.63 16.228">
    <path fill="#fff" d="M171.111 124.8a1.728 1.728 0 0 1 1.548.966l.02.046.052-.027a1.715 1.715 0 0 1 .5-.16l.133-.015.133-.005a1.739 1.739 0 0 1 1.731 1.624v.894l.04-.017a1.778 1.778 0 0 1 .286-.082l.148-.024.152-.011h.032a1.729 1.729 0 0 1 1.731 1.632v2.887a13.788 13.788 0 0 1-1.15 6.027 5.17 5.17 0 0 1-1.413 1.811 3.2 3.2 0 0 1-1.789.676l-.176.005h-3.985a2.453 2.453 0 0 1-1.327-.527 8.649 8.649 0 0 1-2.485-3.23l-2.107-4.27a1.847 1.847 0 0 1 .67-2.374 1.617 1.617 0 0 1 1.277-.176 1.7 1.7 0 0 1 .966.708l.071.119.809 1.4v-5.354a1.737 1.737 0 0 1 1.512-1.719l.111-.011h.11a1.726 1.726 0 0 1 .77.178l.051.028.021-.043a1.748 1.748 0 0 1 1.312-.943l.121-.013zm0 .942a.789.789 0 0 0-.792.792v5.982l-.005.067a.409.409 0 0 1-.4.341.389.389 0 0 1-.392-.405V127.251a.792.792 0 0 0-1.579.081V133.692c-.023.47-.184.738-.47.813-.311.079-.6-.111-.859-.588l-1.248-2.159-.05-.078a.751.751 0 0 0-.419-.3.682.682 0 0 0-.543.071.885.885 0 0 0-.315 1.126l.395.808 1.856 3.713a7.533 7.533 0 0 0 1.98 2.58 1.914 1.914 0 0 0 .878.416h4.119a3.012 3.012 0 0 0 2.388-1.966 12.816 12.816 0 0 0 1.055-5.6v-2.879a.792.792 0 0 0-1.579.081v3.591l-.005.067a.409.409 0 0 1-.81-.067V127.25a.792.792 0 0 0-1.579.081v5.185l-.005.067a.409.409 0 0 1-.81-.067v-6.062a.789.789 0 0 0-.811-.712z" transform="translate(-162.997 -124.8)"/>
</svg>
