<svg xmlns="http://www.w3.org/2000/svg" width="16.191" height="20.228" viewBox="0 0 16.191 20.228">
    <path fill="#20aca8" d="M208.188 132.415v9.648c0 4.192-2.967 6.122-6.13 6.122h-.6a5.919 5.919 0 0 1-5.56-3.287s-3.1-4.622-3.609-5.525c-.889-1.579.436-2.574 1.608-1.746.145.1 2.214 2.553 2.214 2.553v-8.98a1.216 1.216 0 0 1 .6-1.053 1.2 1.2 0 0 1 1.207 0 1.217 1.217 0 0 1 .6 1.053v5.675h.808v-7.7a1.207 1.207 0 1 1 2.414 0v7.7h.805v-6.891a1.217 1.217 0 0 1 .6-1.053 1.2 1.2 0 0 1 1.207 0 1.216 1.216 0 0 1 .6 1.053v6.892h.807v-4.46a1.209 1.209 0 1 1 2.416 0z" transform="translate(-191.998 -127.957)"/>
</svg>
