<svg xmlns="http://www.w3.org/2000/svg" width="62" height="62" viewBox="0 0 62 62">
    <g transform="translate(0.443 0.182)">
        <circle cx="31" cy="31" r="31" fill="#0b0d13" transform="translate(-0.443 -0.182)"/>
        <path fill="#fff" d="M89.874 117.565a5.379 5.379 0 0 0-2.907-1.422c-1.358-.179-2.741.73-3.676 1.332s-2.7 2.369-3.432 2.907-2.6 1.037-5.609 2.843-14.818 9.388-14.818 9.388l3.074.038-13.7 7.057h1.37l-1.972 1.5a4.46 4.46 0 0 0 3.2-.461v.423s16.316-6.429 19.467-4.764l-1.921.563c.167 0 3.266.2 3.266.2a4.4 4.4 0 0 0 1.972 3.176c1.87 1.229 1.908 1.908 1.908 1.908s-.973.4-.973.9a10.089 10.089 0 0 1 2.766-.4 10.585 10.585 0 0 1 2.5.4s-.1-.538-1.4-.9a7.688 7.688 0 0 1-3.2-2.536 3.586 3.586 0 0 1-.525-3.509c.448-1.165 2.011-1.806 5.238-3.471 3.8-1.972 4.675-3.432 5.212-4.572s1.332-3.407 1.78-4.47a5.77 5.77 0 0 1 1.831-2.536 23.5 23.5 0 0 1 3.138-1.4s-1.963-1.695-2.589-2.194z" transform="translate(-39.786 -99.095)"/>
    </g>
</svg>
