<svg xmlns="http://www.w3.org/2000/svg" width="47.935" height="35.951" viewBox="0 0 47.935 35.951">
    <g>
        <path fill="#cfd8dc" d="M99.531 300.153l-16.977-11.984a1 1 0 0 0-1.152 0l-16.978 11.984a1 1 0 0 0-.423.817v1a1 1 0 0 0 1 1h33.953a1 1 0 0 0 1-1v-1a1 1 0 0 0-.423-.817z" transform="translate(0 -64) translate(-58.009 -203.016)"/>
        <path fill="#fafafa" d="M82.553 172.145l-16.977-11.983a1 1 0 0 0-1.576.817v23.967a1 1 0 0 0 1.576.817l16.977-11.984a1 1 0 0 0 0-1.632z" transform="translate(0 -64) translate(-58.008 -86.992)"/>
        <path fill="#eee" d="M263.755 160.123a1.011 1.011 0 0 0-1.037.07l-16.977 11.984a1 1 0 0 0 0 1.632l16.977 11.984a1 1 0 0 0 1.576-.815V161.01a1 1 0 0 0-.539-.887z" transform="translate(0 -64) translate(-222.351 -87.024)"/>
        <path fill="#eceff1" d="M82.562 64.687a1 1 0 0 0-.949-.687H43.665a1 1 0 0 0-.6 1.8L62.04 79.779a1 1 0 0 0 1.184 0L82.2 65.8a1 1 0 0 0 .362-1.113z" transform="translate(0 -64) translate(-38.671)"/>
        <path fill="#f44336" d="M42.942 64a1 1 0 0 0-.6.2L23.967 77.739 5.592 64.2a1 1 0 0 0-.6-.2A4.993 4.993 0 0 0 0 68.993v25.965a4.993 4.993 0 0 0 4.993 4.993h2a1 1 0 0 0 1-1V75.914l15.4 10.873a1 1 0 0 0 1.152 0l15.4-10.873v23.039a1 1 0 0 0 1 1h2a4.993 4.993 0 0 0 4.993-4.993V68.993A4.993 4.993 0 0 0 42.942 64z" transform="translate(0 -64)"/>
    </g>
</svg>
