<svg xmlns="http://www.w3.org/2000/svg" width="273" height="186" viewBox="0 0 273 186">
    <defs>
        <style>
            .cls-4{fill:#23beb9}.cls-2{fill:#fff}.cls-3{fill:none}
        </style>
    </defs>
    <g id="Group_5" transform="translate(-824 -416)">
        <text id="CryptoLab" fill="#23beb9" font-family="Montserrat-Bold, Montserrat" font-size="50px" font-weight="700" transform="translate(824 589)">
            <tspan x="0" y="0">Crypto</tspan><tspan y="0" class="cls-2">Lab</tspan>
        </text>
        <g id="Group_1" transform="translate(825 341)">
            <g id="Group_3" transform="translate(68 75)">
                <path id="Rectangle_1" d="M0 0H136V136H0z" class="cls-3"/>
                <g id="Group_2" transform="translate(13.859 17.769)">
                    <path id="Path_1" d="M394.454 228.513l-7.168-12.4-7.244 12.531a8.34 8.34 0 0 0-.636 1.525 8.166 8.166 0 0 0-.407 2.542v.28a8.3 8.3 0 0 0 16.6-.28 8.062 8.062 0 0 0-1.145-4.198z" class="cls-4" transform="translate(-298.41 -170.664)"/>
                    <g id="Group_1-2">
                        <path id="Path_2" d="M244.122 181.582c5.513 1.764 10.442.987 15.258-.587l1.843-6.307a2.833 2.833 0 0 1 .717-1.211l11.81-11.81-11.384-11.384-11.81 11.81a2.838 2.838 0 0 1-1.211.717L234 167.294l-16.256 4.749c-.415.121-.831.239-1.246.357l-.458.13a51.077 51.077 0 0 1 18.346 4.412c3.249 1.542 6.306 3.543 9.736 4.64z" class="cls-3" transform="translate(-201.499 -131.519)"/>
                        <path id="Path_3" d="M358.37 129.754l-24.935-24.934a2.837 2.837 0 1 0-4.013 4.013l24.935 24.935a2.837 2.837 0 0 0 4.012-4.013z" class="cls-2" transform="translate(-268.433 -103.989)"/>
                        <path id="Path_4" d="M243.586 122.095a2.837 2.837 0 0 0-4.012 4.012l2.763 2.763-11.437 11.439-18.586 5.43-12.321 3.6c-.4.117-.8.23-1.2.344-3.359.95-7.1 2.016-9.926 4.965 3.893.079 7.807.443 9.4.524.538.028 1.076.062 1.613.1l.458-.13c.416-.118.832-.236 1.246-.357l16.256-4.749 15.348-4.484a2.838 2.838 0 0 0 1.211-.717l11.81-11.81 11.381 11.385-11.81 11.81a2.833 2.833 0 0 0-.717 1.211l-1.843 6.307c2.224-.727 4.425-1.622 6.648-2.518l.438-1.5 11.439-11.439 2.763 2.763a2.837 2.837 0 0 0 4.013-4.013z" class="cls-2" transform="translate(-185.34 -114.261)"/>
                        <path id="Path_5" d="M195.345 209.415a6.3 6.3 0 0 0-.64 6.157c.528.732 3.278 3.789 15.411 15.811.5.5.865.853 1.033 1.025l.041.04.031.031.041.041.01.01 1.015 1.023c12.024 12.133 15.079 14.884 15.811 15.411a6.3 6.3 0 0 0 6.156-.64c2.563-1.743 3.4-4.711 4.376-8.147.118-.416.236-.833.357-1.248l2.806-9.6 4.585-15.693c-4.816 1.574-9.746 2.351-15.258.587-3.429-1.1-6.486-3.1-9.74-4.641a51.078 51.078 0 0 0-18.346-4.412c-3.241.919-6.024 1.796-7.689 4.245z" class="cls-4" transform="translate(-188.497 -164.157)"/>
                        <path id="Path_6" d="M233.468 228.41l-2.806 9.6c-.122.415-.239.832-.357 1.248-.973 3.436-1.813 6.4-4.376 8.147a6.3 6.3 0 0 1-6.157.64c-.732-.528-3.787-3.278-15.811-15.411l-1.015-1.023-.01-.01-.041-.041-.031-.031-.041-.04c-.168-.173-.531-.528-1.033-1.025-12.133-12.022-14.884-15.079-15.411-15.811a6.3 6.3 0 0 1 .64-6.156c1.665-2.449 4.449-3.325 7.689-4.247-.537-.038-1.075-.073-1.613-.1-1.593-.081-5.508-.445-9.4-.524a12.9 12.9 0 0 0-1.368 1.68 11.92 11.92 0 0 0-.933 12.06c.482.921 2.144 3 16.4 17.13l.948.94c.039.042.081.083.122.123s.081.083.123.122l.94.948c1.8 1.818 3.405 3.43 4.837 4.862 9.8 9.8 11.489 11.122 12.293 11.542a11.922 11.922 0 0 0 12.06-.933c4.27-2.9 5.532-7.361 6.645-11.293.113-.4.227-.8.344-1.2l2.138-7.32L244.7 210.2c-2.222.9-4.423 1.792-6.648 2.518z" class="cls-2" transform="translate(-180.172 -163.241)"/>
                        <circle id="Ellipse_1" cx="5.423" cy="5.423" r="5.423" class="cls-2" transform="translate(23.03 49.374)"/>
                        <circle id="Ellipse_2" cx="4.067" cy="4.067" r="4.067" class="cls-2" transform="translate(39.749 59.039)"/>
                        <circle id="Ellipse_3" cx="2.711" cy="2.711" r="2.711" class="cls-4" transform="translate(42.94 39.234)"/>
                    </g>
                </g>
            </g>
        </g>
    </g>
</svg>
