<svg xmlns="http://www.w3.org/2000/svg" width="63.486" height="62.414" viewBox="0 0 63.486 62.414">
    <defs>
        <style>
            .cls-medal-101{fill:#23beb9}.cls-medal-2{fill:#fff}
        </style>
    </defs>
    <g id="Group_4485" transform="translate(-973.424 106.459)">
        <path id="Path_3525" d="M1007.438-66.762a19.516 19.516 0 0 1-19.493-19.494 19.515 19.515 0 0 1 19.493-19.493 19.516 19.516 0 0 1 19.494 19.493 19.516 19.516 0 0 1-19.494 19.494zm0-33.668a14.19 14.19 0 0 0-14.174 14.174 14.19 14.19 0 0 0 14.174 14.175 14.191 14.191 0 0 0 14.175-14.175 14.191 14.191 0 0 0-14.175-14.174z" class="cls-medal-101" transform="translate(-3.486 -0.17)"/>
        <g id="Group_4484" transform="translate(973.424 -106.459)">
            <path id="Path_3526" d="M1036.7-58.382l-15.537-16.239a20.435 20.435 0 0 0 3.657-11.683 20.618 20.618 0 0 0-16.413-20.139.761.761 0 0 0-.9.592.759.759 0 0 0 .592.9 19.093 19.093 0 0 1 15.2 18.65 19.058 19.058 0 0 1-19.036 19.036 18.919 18.919 0 0 1-7.234-1.423 19.046 19.046 0 0 1-6.748-4.685.511.511 0 0 0-.028-.043c-.012-.013-.029-.017-.042-.028a18.988 18.988 0 0 1-4.983-12.856 18.959 18.959 0 0 1 14.64-18.526.76.76 0 0 0 .565-.914.757.757 0 0 0-.915-.565 20.473 20.473 0 0 0-15.809 20 20.5 20.5 0 0 0 4.953 13.385l-15.01 14.785a.76.76 0 0 0-.194.761.76.76 0 0 0 .582.527l10.335 2.017 2.521 10.208a.761.761 0 0 0 .522.546.757.757 0 0 0 .736-.176l17.146-16.121 17.147 16.122a.76.76 0 0 0 .521.207.752.752 0 0 0 .2-.027.76.76 0 0 0 .53-.523l2.911-10.125 9.725-2.4a.76.76 0 0 0 .547-.526.758.758 0 0 0-.181-.737zM989.693-71.8a20.56 20.56 0 0 0 5.768 4.066L984.729-56.31l-8.985-1.753zm32.887 25.592l-16.761-15.762a.757.757 0 0 0-1.04 0l-16.72 15.722-2.226-9.017L996.945-67.1a20.442 20.442 0 0 0 7.319 1.348 20.419 20.419 0 0 0 9.141-2.152l11.746 12.75zm3.674-9.986l-11.474-12.457a20.7 20.7 0 0 0 5.459-4.736l14.455 15.107z" class="cls-medal-2" transform="translate(-973.424 106.459)"/>
            <path id="Path_3527" d="M995.033-84.314A14.325 14.325 0 0 0 1009.342-70a14.325 14.325 0 0 0 14.308-14.309 14.325 14.325 0 0 0-14.308-14.309 14.325 14.325 0 0 0-14.309 14.304zm14.309-12.786a12.8 12.8 0 0 1 12.788 12.789 12.8 12.8 0 0 1-12.788 12.789 12.8 12.8 0 0 1-12.789-12.789 12.8 12.8 0 0 1 12.789-12.789z" class="cls-medal-2" transform="translate(-978.612 104.578)"/>
        </g>
        <path id="Path_3528" d="M1012.209-89.1l1.928 3.905a.38.38 0 0 0 .286.208l4.31.626a.38.38 0 0 1 .211.648l-3.119 3.04a.38.38 0 0 0-.109.337l.736 4.293a.38.38 0 0 1-.552.4l-3.854-2.027a.379.379 0 0 0-.354 0l-3.855 2.027a.38.38 0 0 1-.551-.4l.736-4.293a.38.38 0 0 0-.109-.337l-3.119-3.04a.38.38 0 0 1 .21-.648l4.31-.626a.38.38 0 0 0 .286-.208l1.928-3.905a.379.379 0 0 1 .681 0z" class="cls-medal-101" transform="translate(-7.503 -4.115)"/>
    </g>
</svg>
