<svg xmlns="http://www.w3.org/2000/svg" width="44.411" height="62.419" viewBox="0 0 44.411 62.419">
    <g>
        <path fill="#23beb9" d="M466.388 375.67a4.817 4.817 0 0 1 2.962 1.019l2.5-2.5-1.213-1.213c-.011-.011-.026-.014-.038-.025l-3.424-3.425c-.011-.011-.014-.026-.025-.037l-1.213-1.213L449.209 385l3.008 3.008 2.9 2.9 7.433-7.432a4.843 4.843 0 0 1 3.833-7.814z" transform="translate(15.264 4.378) translate(-449.209 -368.278)"/>
    </g>
    <path fill="#fff" d="M471.193 417h-13.6v-4.557a18.015 18.015 0 0 0 7.335-32.215 4.816 4.816 0 0 0-.3-3.623l3.4-3.4a1.072 1.072 0 0 0 0-1.516l-1.244-1.244 3.034-3.035a1.072 1.072 0 0 0 0-1.516l-3.425-3.424a1.072 1.072 0 0 0-1.516 0l-3.034 3.034-1.244-1.244a1.1 1.1 0 0 0-1.516 0l-18.24 18.24a1.071 1.071 0 0 0 0 1.516l3.009 3.01-1.852 1.85a1.072 1.072 0 1 0 1.516 1.516l1.853-1.853 2.9 2.9a1.073 1.073 0 0 0 1.516 0l8.337-8.337a4.819 4.819 0 0 0 5.706-1.021 15.872 15.872 0 0 1-6.242 28.17v-1.579a3.714 3.714 0 0 0-7.428 0v1.387a15.91 15.91 0 0 1-11.7-13.743h7.2a1.072 1.072 0 1 0 0-2.144h-16.73a1.072 1.072 0 1 0 0 2.144h7.367a18.075 18.075 0 0 0 13.868 15.964V417h-12.87a1.073 1.073 0 0 0-1.072 1.072v5.428a1.072 1.072 0 0 0 2.144 0v-4.357h31.758v4.357a1.072 1.072 0 1 0 2.144 0v-5.43a1.073 1.073 0 0 0-1.074-1.07zm-5.557-52.258l1.908 1.909-2.276 2.276-1.909-1.908zm-16.606 24.427l-2.9-2.9-3.008-3.008 16.725-16.725 1.213 1.213c.011.011.014.026.025.037l3.424 3.425c.011.011.026.014.038.025l1.213 1.213-2.5 2.5a4.843 4.843 0 0 0-6.8 6.8zm11.266-7.688a2.686 2.686 0 1 1 2.704-2.707 2.687 2.687 0 0 1-2.7 2.707zM452.305 417v-8.321a1.57 1.57 0 0 1 3.14 0V417z" transform="translate(-427.854 -362.153)"/>
</svg>
