<svg xmlns="http://www.w3.org/2000/svg" width="73.276" height="59" viewBox="0 0 73.276 59">
    <defs>
        <style>
            .cls-1{fill:#fff}
        </style>
    </defs>
    <g id="Group_4483" transform="translate(-751.982 -123.332)">
        <path id="Path_3521" d="M788.6 137.469h-33.252c-1.475 0-1.472 0-1.471 1.445v38.636c0 2.186.725 2.9 2.935 2.9h3.763c.645 0 1.168.186 1.149.96-.017.712-.526.894-1.118.9-1.628 0-3.259.064-4.879-.043a3.869 3.869 0 0 1-3.74-4.027q-.018-25.419 0-50.839a3.9 3.9 0 0 1 3.734-4.039c.37-.035.745-.028 1.117-.028h63.758c3.158 0 4.659 1.5 4.659 4.661v49.72c0 3.034-1.511 4.583-4.543 4.586q-24.1.019-48.2.009c-.2 0-.457.064-.6-.033-.381-.256-.953-.541-1.014-.89-.108-.622.426-.925 1.054-.932h48.403c2.314 0 3-.7 3-3.036v-38.331c0-1.617-.01-1.617-1.6-1.617H788.6zm.009-1.864h23.375c3.422 0 6.843-.009 10.265 0 .648 0 1.121-.066 1.112-.905-.029-2.472.007-4.945-.025-7.418a1.994 1.994 0 0 0-1.686-2 7.089 7.089 0 0 0-1.415-.091q-22.917-.006-45.835 0-8.892 0-17.786.012c-2.026.006-2.735.753-2.732 2.78s0 4.064 0 6.1c0 1.531 0 1.53 1.5 1.53q16.618-.005 33.23-.013z" class="cls-1" transform="translate(0 0)"/>
        <path id="Path_3522" d="M772.282 147.252c.106.013.441-.044.633.1 1.353.979 2.429-.08 3.577-.478.249-.086.447-.477.56-.769a2.9 2.9 0 0 1 2.823-2.062c1.965-.126 3.6.219 4.184 2.447.058.22.436.372.686.523 1.53.913 3.085 1.785 4.587 2.741a.862.862 0 0 0 1.14-.029c1.438-.931 2.94-1.763 4.387-2.682a2.49 2.49 0 0 0 .959-1.008 2.96 2.96 0 0 1 2.69-1.974 15.225 15.225 0 0 1 1.626.009 2.924 2.924 0 0 1 2.54 1.891 3.206 3.206 0 0 0 1.009 1.083 3.159 3.159 0 0 0 1.2.524 2.409 2.409 0 0 0 1.322.011c1.573-.644 2.609-.406 4.066 1.074a3.076 3.076 0 0 1 .785 3.859 1.876 1.876 0 0 0-.02 1.132 4.856 4.856 0 0 0 .607 1.387 2.356 2.356 0 0 0 .916.916 2.84 2.84 0 0 1 2.029 2.842 16.368 16.368 0 0 1-.039 1.726 2.238 2.238 0 0 1-1.61 2.143c-1.639.422-1.455 1.954-2.062 3-.087.151.121.5.229.736a3 3 0 0 1-.567 3.464c-.326.344-.659.684-1.017.993a2.725 2.725 0 0 1-2.931.542 3.209 3.209 0 0 0-4.042 1.7 2.637 2.637 0 0 1-2.382 1.632c-.609.025-1.221.02-1.829-.015a2.753 2.753 0 0 1-2.5-1.91 2.519 2.519 0 0 0-.961-1.027c-1.416-.9-2.91-1.684-4.29-2.634a1 1 0 0 0-1.389.017c-1.436.929-2.958 1.725-4.419 2.618a2.085 2.085 0 0 0-.827.905 2.84 2.84 0 0 1-2.822 2.062c-.541.019-1.085.016-1.625-.018a2.627 2.627 0 0 1-2.334-1.7 3.317 3.317 0 0 0-3.9-1.682 2.851 2.851 0 0 1-3.117-.532c-1.545-1.324-2.5-2.764-1.321-4.852.137-.24-.165-.739-.284-1.113a2.936 2.936 0 0 0-1.972-2.31 2.163 2.163 0 0 1-1.4-2.174c-.007-.542-.016-1.084-.015-1.626a2.841 2.841 0 0 1 1.981-2.779 2.591 2.591 0 0 0 .984-.973 3.947 3.947 0 0 0 .54-1.306 2.122 2.122 0 0 0-.014-1.213 3.944 3.944 0 0 1 3.629-5.211zm14.369 7.974a29.308 29.308 0 0 1 1.474-2.683c.524-.751.376-1.251-.355-1.65-1.447-.788-2.876-1.618-4.374-2.292a1.731 1.731 0 0 1-1.19-1.332c-.261-1.26-.459-1.317-1.943-1.347a1.376 1.376 0 0 0-1.569 1.448 1.28 1.28 0 0 1-1.05 1.185 15.931 15.931 0 0 0-2.7 1.138 1.471 1.471 0 0 1-1.859-.124c-.872-.755-1.5-.32-2.18.337s-.953 1.294-.258 2.094a1.529 1.529 0 0 1 .112 1.877 13.719 13.719 0 0 0-1.067 2.515 1.6 1.6 0 0 1-1.356 1.289c-1.212.269-1.381.6-1.367 1.938.011 1.018.534 1.386 1.47 1.591a2.1 2.1 0 0 1 1.164 1.019c.446.826.656 1.778 1.1 2.606a1.6 1.6 0 0 1-.1 2.043c-.81.912-.18 1.517.428 2.156s1.247.938 2.013.247a1.54 1.54 0 0 1 1.954-.128 19.922 19.922 0 0 0 2.621 1.069c.593.207 1.023.473 1.087 1.166.094 1.018.566 1.6 1.709 1.544 1.334-.062 1.482-.2 1.886-1.5a1.942 1.942 0 0 1 1.041-1.155 11.286 11.286 0 0 0 8.364-10.97 7.562 7.562 0 0 1 9.655-7.154 7.743 7.743 0 0 1 5.384 6.027 7.663 7.663 0 0 1-3.782 7.82 7.546 7.546 0 0 1-9.354-1.594c-.548-.6-.8-.595-1.107.165a9.041 9.041 0 0 1-.938 1.8c-.386.551-.241.9.184 1.308a10.386 10.386 0 0 0 4.564 2.542 1.4 1.4 0 0 1 1.174 1.208c.223 1.269.532 1.485 1.751 1.492 1.283.007 1.54-.16 1.771-1.44a1.486 1.486 0 0 1 1.216-1.292 11.215 11.215 0 0 0 2.439-.979 1.589 1.589 0 0 1 2.045.069c.84.724 1.438.3 2.084-.333.661-.654 1.005-1.287.318-2.1a1.624 1.624 0 0 1-.072-2.046 14.437 14.437 0 0 0 1.052-2.518c.211-.665.54-1.074 1.25-1.116 1.094-.064 1.391-.729 1.4-1.717.009-.96-.18-1.679-1.31-1.776a1.473 1.473 0 0 1-1.386-1.246 14.47 14.47 0 0 0-1.1-2.61 1.4 1.4 0 0 1 .112-1.768c.82-.9.353-1.536-.332-2.249a1.35 1.35 0 0 0-2.115-.183 1.428 1.428 0 0 1-1.772.093 14.037 14.037 0 0 0-2.61-1.1 1.459 1.459 0 0 1-1.227-1.401c-.117-1.18-.93-1.284-1.906-1.295s-1.494.371-1.582 1.3a1.462 1.462 0 0 1-1.243 1.374 11.283 11.283 0 0 0-7.293 6.3 15.786 15.786 0 0 0-1.03 5.452 7.554 7.554 0 1 1-10.958-7.673 7.581 7.581 0 0 1 9.04 1.578 6.788 6.788 0 0 1 .624.981zm-.5 4.038a5.667 5.667 0 1 0-5.87 5.8 5.675 5.675 0 0 0 5.867-5.801zm13.127-5.526a5.674 5.674 0 1 0 5.64 5.6 5.664 5.664 0 0 0-5.643-5.601z" class="cls-1" transform="translate(-0.658 -1.033)"/>
        <path id="Path_3523" d="M767.9 184.576c-.339.228-.683.638-1.017.63-.288-.007-.818-.523-.787-.753a1.256 1.256 0 0 1 .774-.9c.295-.054.679.382 1.024.6z" transform="translate(-0.705 -3.008)"/>
        <path id="Path_3524" fill="#23beb9" d="M786.747 155.325a6.788 6.788 0 0 0-.62-.972 7.567 7.567 0 1 0-5.087 12.682 7.492 7.492 0 0 0 7-6.588 15.786 15.786 0 0 1 1.03-5.452 11.283 11.283 0 0 1 7.293-6.3 1.462 1.462 0 0 0 1.243-1.374c.087-.933.618-1.315 1.582-1.3s1.789.115 1.906 1.295a1.459 1.459 0 0 0 1.227 1.389 14.037 14.037 0 0 1 2.61 1.1 1.428 1.428 0 0 0 1.772-.093 1.35 1.35 0 0 1 2.115.183c.686.713 1.152 1.349.332 2.249a1.4 1.4 0 0 0-.112 1.768 14.47 14.47 0 0 1 1.1 2.61 1.473 1.473 0 0 0 1.386 1.246c1.131.1 1.32.815 1.31 1.776-.01.988-.306 1.653-1.4 1.717-.711.042-1.039.451-1.25 1.116a14.437 14.437 0 0 1-1.052 2.518 1.624 1.624 0 0 0 .072 2.046c.687.817.343 1.451-.318 2.1-.646.637-1.245 1.056-2.084.333a1.589 1.589 0 0 0-2.045-.069 11.215 11.215 0 0 1-2.439.979 1.486 1.486 0 0 0-1.216 1.292c-.231 1.281-.487 1.447-1.771 1.44-1.219-.007-1.528-.222-1.751-1.492a1.4 1.4 0 0 0-1.174-1.208 10.386 10.386 0 0 1-4.564-2.542c-.426-.408-.57-.757-.184-1.308a9.041 9.041 0 0 0 .938-1.8c.3-.76.559-.763 1.107-.165a7.546 7.546 0 0 0 9.354 1.594 7.663 7.663 0 0 0 3.782-7.826 7.743 7.743 0 0 0-5.384-6.027 7.562 7.562 0 0 0-9.655 7.158 11.286 11.286 0 0 1-8.364 10.97 1.942 1.942 0 0 0-1.041 1.155c-.4 1.305-.552 1.442-1.886 1.5-1.143.051-1.615-.525-1.709-1.544-.064-.693-.494-.959-1.087-1.166a19.922 19.922 0 0 1-2.621-1.069 1.54 1.54 0 0 0-1.954.128c-.766.691-1.4.4-2.013-.247s-1.239-1.244-.428-2.156a1.6 1.6 0 0 0 .1-2.043c-.444-.827-.653-1.78-1.1-2.606a2.1 2.1 0 0 0-1.164-1.019c-.936-.205-1.458-.574-1.47-1.591-.014-1.338.155-1.669 1.367-1.938a1.6 1.6 0 0 0 1.356-1.289 13.719 13.719 0 0 1 1.067-2.515 1.529 1.529 0 0 0-.112-1.877c-.694-.8-.429-1.43.258-2.094s1.308-1.093 2.18-.337a1.471 1.471 0 0 0 1.859.124 15.931 15.931 0 0 1 2.7-1.138 1.28 1.28 0 0 0 1.05-1.185 1.376 1.376 0 0 1 1.569-1.448c1.484.03 1.682.087 1.943 1.347a1.731 1.731 0 0 0 1.19 1.332c1.5.675 2.927 1.5 4.374 2.292.732.4.88.9.355 1.65a29.308 29.308 0 0 0-1.472 2.689z" transform="translate(-0.753 -1.133)"/>
        <rect id="Rectangle_170" width="5.001" height="1.883" class="cls-1" rx=".942" transform="translate(814.621 129.508)"/>
        <rect id="Rectangle_171" width="5.001" height="1.883" class="cls-1" rx=".942" transform="translate(807.083 129.508)"/>
        <rect id="Rectangle_172" width="5.001" height="1.883" class="cls-1" rx=".942" transform="translate(799.545 129.508)"/>
    </g>
</svg>
