<svg xmlns="http://www.w3.org/2000/svg" width="73.77" height="59" viewBox="0 0 73.77 59">
    <defs>
        <style>
            .cls-102{fill:#23beb9}.cls-2{fill:#fff}
        </style>
    </defs>
    <g id="Group_4482" transform="translate(-559.786 -83.546)">
        <path id="Path_3513" d="M604.014 127.742c-.491.134-.806.231-1.127.306a2.92 2.92 0 0 1-3.8-2.923c.284-4.168.606-8.345 1.213-12.474a6.713 6.713 0 0 1 6.725-5.44q4.372-.015 8.745.006a6.824 6.824 0 0 1 6.892 5.869c.517 3.932.837 7.894 1.124 11.852a2.953 2.953 0 0 1-3.866 3.094c-.317-.079-.635-.154-1.156-.28v1.721q0 9.314-.009 18.628a3.047 3.047 0 0 1-3.075 3.3c-1.869.017-3.124-1.3-3.133-3.375-.021-5.069-.008-10.137-.008-15.206v-1.014c.006-.75-.208-1.411-1.065-1.44-.955-.032-1.156.687-1.157 1.474q-.008 5 0 10.01c0 2.07.018 4.14-.006 6.21a3.115 3.115 0 1 1-6.213-.006c-.021-6.336-.009-12.672-.014-19.008-.004-.373-.04-.746-.07-1.304z" class="cls-102" transform="translate(-14.779 -8.898)"/>
        <path id="Path_3514" d="M611.155 108.452q2.305 0 4.61.013a5.6 5.6 0 0 1 5.662 4.783c.487 3.708.8 7.391 1.117 11.779a1.643 1.643 0 0 1-1.723 1.869 2.458 2.458 0 0 1-.6-.076c-.21-.052-.42-.1-.686-.167l-.479-.115-1.54-.372v8.506q0 6.713-.009 13.426a1.814 1.814 0 0 1-1.863 2.055 1.874 1.874 0 0 1-1.85-2.132c-.015-3.6-.013-7.263-.009-10.806V132.439v-.628a2.351 2.351 0 0 0-2.27-2.7h-.1c-.549 0-2.341.2-2.345 2.721q-.006 3.712 0 7.424v4.489c0 1.408.007 2.863-.009 4.29-.015 1.3-.694 2.091-1.815 2.108h-.038c-1.163 0-1.86-.786-1.864-2.1q-.02-6.243-.013-12.487v-6.517c0-.286-.018-.556-.039-.868-.009-.151-.021-.316-.031-.5l-.082-1.545-1.492.408c-.173.047-.325.09-.463.129-.235.067-.426.121-.618.166a2.39 2.39 0 0 1-.539.063 1.836 1.836 0 0 1-1.349-.54 1.484 1.484 0 0 1-.382-1.146c.27-3.955.584-8.169 1.2-12.377a5.5 5.5 0 0 1 5.495-4.374q2.061-.007 4.123-.007m0-1.248q-2.064 0-4.128.007a6.713 6.713 0 0 0-6.725 5.44c-.607 4.13-.93 8.307-1.213 12.474a2.833 2.833 0 0 0 2.976 3.018 3.656 3.656 0 0 0 .822-.1c.321-.075.636-.172 1.127-.306.03.557.067.931.067 1.3.005 6.336-.006 12.672.014 19.008a3.067 3.067 0 0 0 3.112 3.346h.056a3.069 3.069 0 0 0 3.045-3.34c.024-2.069.006-4.14.006-6.21v-10.01c0-.771.193-1.476 1.1-1.475h.06c.857.029 1.071.69 1.065 1.44v1.014c0 5.069-.013 10.138.008 15.206.009 2.066 1.248 3.375 3.1 3.375h.036a3.047 3.047 0 0 0 3.075-3.3q.022-9.313.009-18.628v-1.721c.521.126.839.2 1.156.28a3.731 3.731 0 0 0 .9.113 2.887 2.887 0 0 0 2.967-3.207c-.286-3.957-.607-7.919-1.124-11.852a6.824 6.824 0 0 0-6.892-5.869q-2.309-.014-4.617-.013z" class="cls-2" transform="translate(-14.779 -8.898)"/>
        <path id="Path_3515" d="M562.656 91.722a1.8 1.8 0 0 1 1.373.767q1.036 1.148 2.084 2.284c1.192 1.3 2.426 2.643 3.6 3.99a9.232 9.232 0 0 0 7.179 3.418c.211 0 .424-.006.64-.019s.427-.019.636-.019a8.925 8.925 0 0 1 4.614 1.235c.045.026.082.05.114.07l-.031.059a14.042 14.042 0 0 0-1.341 6.176c-.047.8-.092 1.558-.192 2.3-.226 1.665-.342 3.353-.455 4.985q-.039.575-.081 1.149a6.578 6.578 0 0 0 2.825 6.137 1.4 1.4 0 0 1 .469.724c.613 4.586 1.165 9.143 1.638 13.546a35.029 35.029 0 0 1 .115 4.014v.4c0 .327-.479.769-1.184.907a1.857 1.857 0 0 1-.354.034 1.73 1.73 0 0 1-1.575-.915 4.714 4.714 0 0 1-.31-1.237q-.891-5.91-1.764-11.821l-.7-4.714c-.027-.183-.064-.364-.1-.545l-.042-.207-.205-1.057-1.076.049-.32.015-1.19.054v3.535q0 2.167.006 4.335c.007 3.395.013 6.9-.011 10.354-.009 1.262-.749 2.178-1.761 2.178a2 2 0 0 1-.9-.228c-.556-.279-1.071-.732-1.067-2.136.012-4.3.011-8.675.009-12.9v-4.586-3.444c0-2.524-.006-5.135.006-7.7a12.75 12.75 0 0 0-3.279-8.561q-1.821-2.113-3.654-4.218c-1.55-1.784-3.153-3.629-4.715-5.452a2.061 2.061 0 0 1-.535-1.955 1.5 1.5 0 0 1 1.184-.958 1.741 1.741 0 0 1 .361-.041m0-1.248a2.957 2.957 0 0 0-.621.068c-2.3.491-3 3.01-1.337 4.945 2.775 3.237 5.588 6.442 8.372 9.672a11.463 11.463 0 0 1 2.976 7.741c-.018 3.717 0 7.433 0 11.15 0 5.828.011 11.657-.007 17.485a3.273 3.273 0 0 0 1.755 3.255 3.241 3.241 0 0 0 1.457.361 3.165 3.165 0 0 0 3.009-3.417c.035-4.9.007-9.8.006-14.7v-2.343l.319-.015c.046.232.1.463.134.7q1.231 8.269 2.464 16.537a5.787 5.787 0 0 0 .414 1.579 2.973 2.973 0 0 0 2.705 1.634 3.126 3.126 0 0 0 .593-.057 2.463 2.463 0 0 0 2.193-2.121 39.6 39.6 0 0 0-.118-4.556q-.732-6.8-1.643-13.578a2.6 2.6 0 0 0-.971-1.567 5.348 5.348 0 0 1-2.315-5.039c.147-2.021.255-4.05.527-6.056.367-2.7.032-5.543 1.394-8.049.5-.916.23-1.348-.552-1.8a10.211 10.211 0 0 0-5.242-1.406q-.353 0-.711.021-.286.018-.565.017a7.965 7.965 0 0 1-6.238-2.99c-1.857-2.133-3.8-4.19-5.7-6.29a3.071 3.071 0 0 0-2.3-1.179z" class="cls-2" transform="translate(0 -2.606)"/>
        <path id="Path_3516" d="M658.782 91.728a1.473 1.473 0 0 1 1.013.427c.978.9.3 2-.2 2.569-3.034 3.526-5.59 6.485-8.2 9.466a13.288 13.288 0 0 0-3.426 9.026c.027 9.375.016 18.909 0 28.13v.244c0 1.374-.709 2.3-1.761 2.3a2.224 2.224 0 0 1-.858-.187c-.569-.239-1.095-.648-1.095-2.013v-18.121l-1.168-.075-.242-.016-.131-.008-1.147-.074-.168 1.137-.448 3.029-1.044 7.086q-.189 1.294-.367 2.59c-.231 1.653-.47 3.363-.746 5.03a1.771 1.771 0 0 1-1.757 1.605 2.115 2.115 0 0 1-.753-.145c-.854-.324-.89-.675-.848-1.1q.217-2.2.431-4.409c.435-4.46.885-9.071 1.363-13.6a1.553 1.553 0 0 1 .333-.3 6.253 6.253 0 0 0 2.943-5.737c-.294-4.2-.744-8.366-1.18-12.274a8.33 8.33 0 0 0-.926-2.846 7.551 7.551 0 0 1 3.909-1.282c.146 0 .293.006.439.017.36.03.718.045 1.065.045a10.325 10.325 0 0 0 8.418-4.193c1.117-1.383 2.375-2.721 3.592-4.016.457-.486.915-.973 1.366-1.463a2.256 2.256 0 0 1 1.583-.835m0-1.248a3.454 3.454 0 0 0-2.5 1.237c-1.688 1.831-3.45 3.606-5.012 5.541a9.139 9.139 0 0 1-7.448 3.729q-.471 0-.963-.041c-.182-.015-.362-.022-.541-.022a8.831 8.831 0 0 0-4.611 1.5c-.658.4-.839.771-.45 1.522a7.389 7.389 0 0 1 .837 2.5c.453 4.068.889 8.141 1.175 12.223a4.993 4.993 0 0 1-2.4 4.617 1.914 1.914 0 0 0-.861 1.094c-.638 6.04-1.212 12.086-1.807 18.131a2.175 2.175 0 0 0 1.646 2.388 3.357 3.357 0 0 0 1.2.226 3.022 3.022 0 0 0 2.988-2.65c.419-2.539.744-5.095 1.116-7.641q.74-5.058 1.491-10.114l.374.024v16.95a3.072 3.072 0 0 0 1.859 3.164 3.467 3.467 0 0 0 1.342.285c1.688 0 3.007-1.413 3.009-3.545q.017-14.189 0-28.378a11.961 11.961 0 0 1 3.117-8.2q4.133-4.714 8.211-9.474c1.3-1.512 1.32-3.173.1-4.3a2.713 2.713 0 0 0-1.858-.757z" class="cls-2" transform="translate(-27.983 -2.608)"/>
        <path id="Path_3517" d="M584.606 84.794a5 5 0 0 1 3.551 1.461 4.933 4.933 0 0 1 1.467 3.524 5.041 5.041 0 0 1-5.046 5.022 5 5 0 0 1-.015-10.008h.044m0-1.248h-.054a6.292 6.292 0 1 0 .054 0z" class="cls-2" transform="translate(-6.971)"/>
        <path id="Path_3518" d="M645.545 84.8a5 5 0 1 1 .031 10 5.008 5.008 0 0 1-3.617-8.5 4.961 4.961 0 0 1 3.529-1.5h.057m0-1.248h-.07a6.25 6.25 0 0 0 .1 12.5h.027a6.25 6.25 0 1 0-.059-12.5z" class="cls-2" transform="translate(-29.903 -0.003)"/>
        <path id="Path_3519" d="M615.149 96.05a6.25 6.25 0 0 1-.1-12.5 6.251 6.251 0 1 1 .1 12.5z" class="cls-102" transform="translate(-18.478 -0.002)"/>
        <path id="Path_3520" d="M615.113 84.8a5 5 0 1 1 .03 10 5.075 5.075 0 0 1-4.981-4.97 4.972 4.972 0 0 1 1.431-3.532 4.882 4.882 0 0 1 3.467-1.5h.053m0-1.248h-.064a6.25 6.25 0 0 0 .094 12.5h.006a6.25 6.25 0 1 0-.036-12.5z" class="cls-2" transform="translate(-18.478 -0.002)"/>
    </g>
</svg>
