<svg xmlns="http://www.w3.org/2000/svg" width="126.742" height="101.365" viewBox="0 0 126.742 101.365">
    <defs>
        <style>
            .cls-people-1{fill:#23beb9}.cls-people-2{fill:none}.cls-people-3{fill:#1b6d6f}
        </style>
    </defs>
    <g id="Group_4482" transform="translate(-559.786 -83.546)">
        <path id="Path_3513" d="M607.555 142.489c-.844.23-1.385.4-1.936.526-3.5.815-6.767-1.485-6.526-5.022.488-7.16 1.042-14.337 2.085-21.431.807-5.481 6-9.328 11.554-9.346q7.512-.026 15.025.01A11.724 11.724 0 0 1 639.6 117.31c.888 6.755 1.439 13.562 1.931 20.362.276 3.8-2.958 6.234-6.641 5.315-.545-.136-1.09-.265-1.985-.481v2.957q0 16-.015 32c-.009 3.388-2.158 5.641-5.283 5.67-3.211.029-5.368-2.225-5.383-5.8-.035-8.708-.013-17.416-.013-26.125 0-.58-.006-1.161 0-1.742.011-1.288-.357-2.425-1.83-2.474-1.641-.055-1.986 1.18-1.988 2.533q-.013 8.6-.008 17.2c0 3.557.031 7.113-.011 10.668-.041 3.435-2.135 5.693-5.231 5.739-3.206.046-5.431-2.232-5.443-5.749-.035-10.886-.016-21.771-.025-32.657-.005-.637-.068-1.28-.12-2.237z" class="cls-people-1" transform="translate(2.825 1.701)"/>
        <path id="Path_3514" d="M619.824 109.348q3.96 0 7.92.023a9.614 9.614 0 0 1 9.728 8.218c.837 6.37 1.372 12.7 1.919 20.237a2.823 2.823 0 0 1-2.961 3.211 4.224 4.224 0 0 1-1.024-.131c-.36-.09-.721-.177-1.179-.286l-.823-.2-2.647-.64v14.62q0 11.533-.015 23.066c-.005 2.193-1.187 3.513-3.2 3.531-2.854 0-3.174-2.561-3.178-3.663-.026-6.187-.021-12.479-.016-18.565V150.572v-1.078c.027-3.319-2-4.569-3.9-4.634h-.177c-.943 0-4.022.337-4.028 4.674q-.01 6.377-.008 12.754v4.447q0 1.637.005 3.272c.006 2.418.013 4.919-.016 7.37-.026 2.239-1.192 3.593-3.118 3.621h-.065c-2 0-3.2-1.351-3.2-3.612q-.034-10.726-.022-21.454v-11.2c0-.491-.031-.955-.066-1.492-.016-.259-.035-.543-.053-.863l-.141-2.654-2.564.7c-.3.08-.558.154-.8.221-.4.115-.731.208-1.062.285a4.106 4.106 0 0 1-.926.108 3.154 3.154 0 0 1-2.318-.927 2.549 2.549 0 0 1-.657-1.969c.463-6.795 1-14.034 2.068-21.264.617-4.2 4.764-7.5 9.44-7.515q3.541-.011 7.084-.013m0-2.144q-3.545 0-7.092.013c-5.555.018-10.747 3.865-11.554 9.346-1.043 7.095-1.6 14.271-2.085 21.431a4.866 4.866 0 0 0 5.113 5.186 6.279 6.279 0 0 0 1.413-.164c.551-.129 1.092-.3 1.936-.526.052.956.115 1.6.116 2.241.009 10.886-.011 21.771.025 32.657.012 3.481 2.192 5.749 5.347 5.749h.1c3.1-.046 5.19-2.3 5.231-5.739.042-3.555.01-7.112.011-10.668q0-8.6.008-17.2c0-1.324.332-2.535 1.884-2.534h.1c1.473.049 1.84 1.186 1.83 2.474v1.742c0 8.709-.022 17.417.013 26.125.015 3.55 2.144 5.8 5.322 5.8h.061c3.126-.029 5.275-2.282 5.283-5.67q.038-16 .015-32v-2.957c.9.217 1.441.345 1.985.481a6.409 6.409 0 0 0 1.543.194 4.96 4.96 0 0 0 5.1-5.509c-.492-6.8-1.043-13.605-1.931-20.362a11.723 11.723 0 0 0-11.841-10.083q-3.967-.024-7.933-.023z" class="cls-people-2" transform="translate(2.825 1.701)"/>
        <path id="Path_3515" d="M564.717 92.618a3.1 3.1 0 0 1 2.358 1.317q1.78 1.973 3.581 3.924c2.048 2.233 4.167 4.542 6.181 6.855a15.86 15.86 0 0 0 12.333 5.873c.362 0 .728-.011 1.1-.033s.734-.033 1.092-.033a15.333 15.333 0 0 1 7.927 2.122c.077.045.142.086.2.121l-.052.1c-1.884 3.465-2.1 7.1-2.3 10.611-.081 1.376-.158 2.676-.33 3.953-.389 2.861-.588 5.76-.781 8.564q-.067.987-.138 1.974a11.3 11.3 0 0 0 4.854 10.544 2.406 2.406 0 0 1 .806 1.243c1.054 7.879 2 15.709 2.815 23.273a60.185 60.185 0 0 1 .2 6.9l-.007.683c0 .562-.823 1.322-2.034 1.559a3.191 3.191 0 0 1-.608.058 2.972 2.972 0 0 1-2.706-1.571 8.1 8.1 0 0 1-.533-2.124q-1.531-10.153-3.03-20.309l-1.2-8.1c-.047-.314-.11-.625-.175-.936l-.073-.355-.353-1.816-1.849.084-.55.026-2.045.093v6.073q0 3.724.01 7.447c.012 5.832.023 11.863-.019 17.789-.015 2.168-1.287 3.742-3.026 3.742a3.437 3.437 0 0 1-1.541-.392c-.956-.48-1.839-1.257-1.833-3.67.021-7.391.018-14.9.015-22.169v-7.878-5.917c-.005-4.337-.011-8.823.01-13.23a21.9 21.9 0 0 0-5.633-14.708q-3.129-3.63-6.278-7.246c-2.663-3.066-5.416-6.235-8.1-9.367a3.541 3.541 0 0 1-.919-3.358 2.569 2.569 0 0 1 2.034-1.645 2.991 2.991 0 0 1 .62-.07m0-2.144a5.08 5.08 0 0 0-1.067.117c-3.952.844-5.146 5.172-2.3 8.5 4.768 5.562 9.6 11.068 14.384 16.617A19.7 19.7 0 0 1 580.85 129c-.03 6.385-.005 12.77-.005 19.157 0 10.014.018 20.027-.012 30.041-.007 2.45.752 4.456 3.015 5.592a5.568 5.568 0 0 0 2.5.621c2.805 0 5.145-2.362 5.17-5.871.06-8.418.012-16.835.01-25.251v-4.025l.549-.026c.078.4.172.8.23 1.2q2.114 14.207 4.234 28.411a9.941 9.941 0 0 0 .711 2.713 5.108 5.108 0 0 0 4.648 2.807 5.37 5.37 0 0 0 1.018-.1c2.106-.412 3.754-1.9 3.768-3.644a68.028 68.028 0 0 0-.2-7.827q-1.257-11.681-2.822-23.327a4.467 4.467 0 0 0-1.669-2.693 9.188 9.188 0 0 1-3.977-8.657c.252-3.473.437-6.959.9-10.4.63-4.639.055-9.523 2.395-13.828.854-1.574.394-2.316-.948-3.1a17.544 17.544 0 0 0-9.006-2.415q-.606 0-1.221.036-.492.031-.971.03a13.684 13.684 0 0 1-10.717-5.136c-3.19-3.665-6.531-7.2-9.787-10.807a5.276 5.276 0 0 0-3.95-2.026z" class="cls-people-3" transform="translate(0 0.498)"/>
        <path id="Path_3516" d="M676.442 92.624a2.531 2.531 0 0 1 1.74.733c1.679 1.547.509 3.43-.338 4.414-5.213 6.058-9.6 11.142-14.093 16.263a22.83 22.83 0 0 0-5.887 15.507c.047 16.107.027 32.487.008 48.328v.419c0 2.361-1.219 3.949-3.026 3.949a3.822 3.822 0 0 1-1.475-.322c-.978-.411-1.881-1.114-1.881-3.458v-31.133l-2.006-.129-.416-.027-.225-.014-1.97-.126-.288 1.953-.77 5.2q-.9 6.087-1.793 12.174-.325 2.224-.631 4.449c-.4 2.841-.808 5.777-1.281 8.642a3.043 3.043 0 0 1-3.018 2.758 3.634 3.634 0 0 1-1.294-.249c-1.467-.556-1.528-1.16-1.457-1.889q.373-3.788.741-7.575c.748-7.663 1.521-15.585 2.342-23.37a2.67 2.67 0 0 1 .572-.521 10.743 10.743 0 0 0 5.057-9.857c-.506-7.216-1.279-14.374-2.027-21.087a14.312 14.312 0 0 0-1.591-4.89 12.973 12.973 0 0 1 6.717-2.2c.251 0 .5.01.754.03.618.051 1.234.077 1.83.077 5.819 0 10.55-2.357 14.463-7.2 1.919-2.376 4.081-4.676 6.172-6.9.786-.835 1.572-1.671 2.348-2.514a3.876 3.876 0 0 1 2.719-1.434m0-2.144a5.934 5.934 0 0 0-4.3 2.126c-2.9 3.146-5.928 6.2-8.611 9.519-3.421 4.237-7.566 6.407-12.8 6.407q-.809 0-1.654-.07c-.312-.026-.622-.038-.929-.038a15.173 15.173 0 0 0-7.922 2.57c-1.131.7-1.441 1.325-.773 2.615a12.692 12.692 0 0 1 1.451 4.29c.779 6.989 1.527 13.986 2.02 21a8.578 8.578 0 0 1-4.124 7.933 3.288 3.288 0 0 0-1.479 1.88c-1.1 10.377-2.083 20.765-3.1 31.15-.215 2.179.979 3.4 2.829 4.1a5.767 5.767 0 0 0 2.055.388 5.192 5.192 0 0 0 5.134-4.553c.719-4.363 1.278-8.753 1.918-13.128q1.272-8.69 2.562-17.376l.642.041v4.526q0 12.3-.006 24.6c0 2.438.8 4.43 3.194 5.436a5.956 5.956 0 0 0 2.306.489c2.9 0 5.166-2.428 5.17-6.09q.029-24.378-.007-48.756a20.549 20.549 0 0 1 5.355-14.087q7.1-8.1 14.106-16.278c2.235-2.6 2.268-5.452.165-7.39a4.661 4.661 0 0 0-3.192-1.3z" class="cls-people-3" transform="translate(5.348 0.498)"/>
        <path id="Path_3517" d="M589.119 85.69a8.593 8.593 0 0 1 6.1 2.51 8.475 8.475 0 0 1 2.52 6.055 8.661 8.661 0 0 1-8.67 8.629 8.6 8.6 0 0 1-.026-17.194h.075m0-2.144h-.092a10.811 10.811 0 1 0 .092 0z" class="cls-people-3" transform="translate(1.332 0)"/>
        <path id="Path_3518" d="M650.034 85.7a8.594 8.594 0 1 1 .052 17.188 8.6 8.6 0 0 1-6.214-14.6 8.522 8.522 0 0 1 6.063-2.583h.1m0-2.144h-.121a10.738 10.738 0 0 0 .175 21.475h.047a10.738 10.738 0 1 0-.1-21.475z" class="cls-people-3" transform="translate(5.715 0.001)"/>
        <path id="Path_3519" d="M619.625 105.025a10.738 10.738 0 0 1-.172-21.474 10.739 10.739 0 1 1 .172 21.474z" class="cls-people-1" transform="translate(3.532 0)"/>
        <path id="Path_3520" d="M619.564 85.694a8.595 8.595 0 1 1 .052 17.188 8.719 8.719 0 0 1-8.557-8.539 8.543 8.543 0 0 1 2.458-6.069 8.387 8.387 0 0 1 5.956-2.579h.091m0-2.144h-.11a10.738 10.738 0 0 0 .162 21.474h.01a10.738 10.738 0 1 0-.061-21.475z" class="cls-people-2" transform="translate(3.532 0)"/>
    </g>
</svg>
