<svg xmlns="http://www.w3.org/2000/svg" width="37.846" height="37.86" viewBox="0 0 37.846 37.86">
    <defs>
        <style>
            .cls-2{fill:#fff}
        </style>
    </defs>
    <g id="money-1" transform="translate(-0.191 0)">
        <path id="Path_74" fill="#23beb9" d="M142.405 155.843a13.663 13.663 0 1 0 13.663-13.663 13.663 13.663 0 0 0-13.663 13.663z" transform="translate(-136.957 -136.923)"/>
        <path id="Path_75" d="M38.037 18.919A18.927 18.927 0 1 0 4.7 31.191a8 8 0 0 1-3.4 3.856 1.41 1.41 0 0 0 .4 2.658 9.792 9.792 0 0 0 1.468.108 11.215 11.215 0 0 0 6.77-2.326 18.933 18.933 0 0 0 28.1-16.568zm-27.8 15.115a.687.687 0 0 0-.881.147.644.644 0 0 0-.093.062 9.589 9.589 0 0 1-7.341 2.071c0-.008-.008-.015 0-.015a9.589 9.589 0 0 0 4.212-4.861 1.1 1.1 0 0 0-.147-.9 17.52 17.52 0 1 1 4.25 3.5z" class="cls-2" transform="translate(0)"/>
        <path id="Path_76" d="M138.756 138.535h-2.419a1.955 1.955 0 1 1 0-3.91h4.263a.7.7 0 0 0 0-1.406h-2.357v-1.831a.7.7 0 0 0-1.406 0v1.839h-.51a3.354 3.354 0 1 0 0 6.708h2.419a1.955 1.955 0 0 1 0 3.91H134.4a.7.7 0 0 0 0 1.406h2.442v1.862a.7.7 0 1 0 1.406 0v-1.862h.51a3.358 3.358 0 0 0 0-6.715zm-11.762 9.42a.705.705 0 0 0-.046.989.7.7 0 0 0 .989.039.705.705 0 0 0 .046-.989.7.7 0 0 0-.989-.038zm.456-17.21a.688.688 0 0 0 .518-.232.7.7 0 1 0-.989.046.686.686 0 0 0 .471.187zm22.835 6.1a.7.7 0 0 0 .688.572.761.761 0 0 0 .131-.015.7.7 0 0 0 .564-.819.7.7 0 0 0-1.383.263zm-24.713 9.018a.7.7 0 0 0 .371 1.3.665.665 0 0 0 .371-.108.708.708 0 0 0 .224-.966.7.7 0 0 0-.966-.22zm17.743-18.23a.747.747 0 0 0 .309.07.7.7 0 0 0 .626-.386.7.7 0 0 0-1.26-.626.717.717 0 0 0 .325.948zm6.314 6.916a.7.7 0 0 0 .649.448.742.742 0 0 0 .255-.046.7.7 0 1 0-.9-.4zm-8.539-7.782a.824.824 0 0 0 .193.023.7.7 0 1 0-.193-.023zm-15.618 17.179a.7.7 0 1 0-.657.951.742.742 0 0 0 .255-.046.694.694 0 0 0 .402-.898zm17.867 6.893a.7.7 0 1 0 .935.317.681.681 0 0 0-.936-.31zm7.867-12.318a.7.7 0 1 0 .7.7.706.706 0 0 0-.701-.693zm-.1 2.527a.7.7 0 0 0-.255 1.383.749.749 0 0 0 .131.008.7.7 0 0 0 .124-1.391zm-26.854 1.422a.708.708 0 0 0 .564-.819.7.7 0 1 0-.688.835c.038-.002.072-.002.123-.009zm21.1-13.578a.7.7 0 0 0 .981-.139.7.7 0 1 0-.981.139zm4.2 16.932a.7.7 0 1 0-.371 1.3.7.7 0 0 0 .371-1.3zm1-2.318a.7.7 0 1 0-.5 1.306.741.741 0 0 0 .255.046.7.7 0 0 0 .247-1.352zm-25.965-4.235v-.031a.7.7 0 0 0-1.406 0v.031a.7.7 0 0 0 1.406 0zm-.6-1.855a.68.68 0 0 0 .131.015.722.722 0 1 0-.131-.015zm.564-2.457a.741.741 0 0 0 .255.046.7.7 0 1 0-.255-.046zm1-2.311a.713.713 0 0 0 .371.108.7.7 0 0 0 .6-.332.7.7 0 1 0-.966.224zm10.819 19.5a.7.7 0 0 0-.124 1.391h.062a.693.693 0 0 0 .7-.641.708.708 0 0 0-.632-.746zm-2.349-.433a.7.7 0 0 0-.379 1.352.825.825 0 0 0 .193.023.7.7 0 0 0 .672-.51.71.71 0 0 0-.48-.861zm-2.233-.858a.7.7 0 0 0-.935.317.707.707 0 0 0 .317.943.748.748 0 0 0 .309.07.7.7 0 0 0 .309-1.329zm9.32.85a.7.7 0 0 0 .193 1.376.561.561 0 0 0 .193-.031.7.7 0 0 0-.386-1.345zm-9.66-23.995a.654.654 0 0 0 .309-.077.7.7 0 0 0-.626-1.252.705.705 0 0 0-.317.943.718.718 0 0 0 .639.391zm-1.7 21.893a.7.7 0 1 0-.842 1.121.7.7 0 0 0 .842-1.121zm17.882-18.871a.686.686 0 0 0 .471-.185.7.7 0 1 0-.943-1.036.7.7 0 0 0-.046.989.688.688 0 0 0 .523.236zm-8.9-4.4h.062a.7.7 0 1 0-.7-.757.7.7 0 0 0 .641.764zm6.638 23.237a.7.7 0 1 0 .85 1.113.7.7 0 0 0 .139-.981.718.718 0 0 0-.986-.125zm1.77-1.615a.7.7 0 0 0 .518 1.175.688.688 0 0 0 .518-.232.7.7 0 0 0-1.036-.943zm-8.377 4.188a.707.707 0 0 0-.634.765.7.7 0 0 0 .7.634h.062a.7.7 0 0 0 .634-.765.69.69 0 0 0-.759-.626zM133.8 126.8a.561.561 0 0 0 .193-.031.684.684 0 1 0-.193.031zm2.473-.464h.062a.7.7 0 1 0-.765-.634.716.716 0 0 0 .705.639zm12.882 6.406a.648.648 0 0 0 .371-.108.7.7 0 1 0-.371.108zm-19.845-3.7a.734.734 0 0 0 .425-.139.7.7 0 1 0-.981-.139.671.671 0 0 0 .559.282z" class="cls-2" transform="translate(-118.439 -120.327)"/>
    </g>
</svg>
