<svg xmlns="http://www.w3.org/2000/svg" width="49" height="49" viewBox="0 0 49 49">
    <defs>
        <linearGradient id="l0bp2662a" x1=".667" x2=".417" y1=".167" y2=".75" gradientUnits="objectBoundingBox">
            <stop offset="0" stop-color="#37aee2"/>
            <stop offset="1" stop-color="#1e96c8"/>
        </linearGradient>
        <linearGradient id="rpt50sl47b" x1=".66" x2=".851" y1=".437" y2=".802" gradientUnits="objectBoundingBox">
            <stop offset="0" stop-color="#eff7fc"/>
            <stop offset="1" stop-color="#fff"/>
        </linearGradient>
    </defs>
    <g transform="translate(0 -0.023)">
        <circle cx="24.5" cy="24.5" r="24.5" fill="url(#l0bp2662a)" transform="translate(0 0.023)"/>
        <g>
            <path fill="#a9c9dd" d="M98 152.1a1.933 1.933 0 0 0 1.509-.754l4.023-3.912-5.018-3.026" transform="translate(6.868 12.286) translate(-85.66 -126.247)"/>
            <g>
                <path fill="#c8daea" d="M86.023 103.886c-.978 0-.811-.369-1.149-1.3L82 93.126 104.126 80" transform="translate(6.868 12.286) translate(0) translate(-73.683 -78.033)"/>
                <path fill="url(#rpt50sl47b)" d="M61.772 90.341l12.159 8.983c1.388.766 2.389.369 2.735-1.288l4.949-23.324c.507-2.032-.774-2.953-2.1-2.351L50.45 83.569c-1.984.8-1.972 1.9-.362 2.4l7.458 2.328L74.814 77.4c.815-.494 1.563-.229.949.316" transform="translate(6.868 12.286) translate(0) translate(-48.919 -72.18)"/>
            </g>
        </g>
    </g>
</svg>
