<svg data-name="area chart (1)" xmlns="http://www.w3.org/2000/svg" width="17.219" height="15.964">
    <path data-name="Path 72" d="M145.129 160.158h-16.323V145.09a.09.09 0 0 0-.09-.089h-.627a.09.09 0 0 0-.09.089v15.784a.09.09 0 0 0 .09.09h17.04a.09.09 0 0 0 .09-.09v-.627a.09.09 0 0 0-.09-.089z" transform="translate(-128 -145)" style="fill:#fff"/>
    <path data-name="Path 73" d="M132.014 162.158h13.646v-10.127l-3.23 1.8-3.208-1.087-3.426 3.321-1.656-.311-2.127 1.994z" transform="translate(-129.85 -148.241)" style="fill:#23beb9"/>
</svg>
