<svg xmlns="http://www.w3.org/2000/svg" id="Group_4703" width="30.758" height="28.804" viewBox="0 0 30.758 28.804">
    <defs>
        <style>
            .cls-1,.cls-3{fill:#fff}.cls-3{opacity:.401}
        </style>
    </defs>
    <path id="Path_1" d="M383.891 220.035l-2.268-3.926-2.293 3.966a2.641 2.641 0 0 0-.2.483 2.584 2.584 0 0 0-.129.8v.089a2.627 2.627 0 0 0 5.253-.089 2.551 2.551 0 0 0-.363-1.323z" class="cls-1" transform="translate(-353.495 -201.727)"/>
    <g id="Group_1">
        <path id="Path_2" fill="none" d="M224.925 160.188a7.511 7.511 0 0 0 4.829-.186l.583-2a.9.9 0 0 1 .227-.383l3.737-3.737-3.6-3.6-3.737 3.737a.9.9 0 0 1-.383.227l-4.857 1.419-5.145 1.5-.394.113-.145.041a16.165 16.165 0 0 1 5.806 1.4 25.72 25.72 0 0 0 3.079 1.469z" transform="translate(-211.436 -144.345)"/>
        <path id="Path_3" d="M338.015 112.143l-7.891-7.891a.9.9 0 0 0-1.27 1.27l7.891 7.891a.9.9 0 0 0 1.27-1.27z" class="cls-1" transform="translate(-309.553 -103.989)"/>
        <path id="Path_4" d="M206.182 121.527a.9.9 0 0 0-1.27 1.27l.874.874-3.62 3.62-5.882 1.718-3.9 1.139-.38.109a6.536 6.536 0 0 0-3.141 1.571c1.232.025 2.471.14 2.975.166.17.009.34.02.511.032l.145-.041.394-.113 5.145-1.5 4.857-1.419a.9.9 0 0 0 .383-.227l3.737-3.737 3.6 3.6-3.737 3.737a.9.9 0 0 0-.227.383l-.583 2c.7-.23 1.4-.513 2.1-.8l.139-.475 3.62-3.62.874.874a.9.9 0 0 0 1.27-1.27z" class="cls-1" transform="translate(-187.748 -119.048)"/>
        <path id="Path_5" d="M194.543 206.512a1.994 1.994 0 0 0-.2 1.948c.167.232 1.037 1.2 4.877 5 .159.158.274.27.327.325l.013.013.01.01.013.013.321.324c3.805 3.84 4.772 4.71 5 4.877a2 2 0 0 0 1.948-.2 4.214 4.214 0 0 0 1.385-2.578l.113-.395.888-3.039 1.451-4.966a7.511 7.511 0 0 1-4.829.186 25.715 25.715 0 0 1-3.082-1.469 16.165 16.165 0 0 0-5.806-1.4 3.993 3.993 0 0 0-2.429 1.351z" class="cls-3" transform="translate(-192.376 -192.189)"/>
        <path id="Path_6" d="M197.039 211.47l-.888 3.039-.113.395a4.214 4.214 0 0 1-1.385 2.578 2 2 0 0 1-1.948.2c-.232-.167-1.2-1.037-5-4.877l-.321-.324-.013-.013-.01-.01-.013-.013c-.053-.055-.168-.167-.327-.325-3.84-3.8-4.71-4.772-4.877-5a2 2 0 0 1 .2-1.948 3.992 3.992 0 0 1 2.434-1.344c-.17-.012-.34-.023-.511-.032-.5-.026-1.743-.141-2.975-.166a4.081 4.081 0 0 0-.433.532 3.773 3.773 0 0 0-.3 3.817c.152.292.679.95 5.191 5.421l.3.3.039.039.039.039.3.3c.57.575 1.078 1.085 1.531 1.539 3.1 3.1 3.636 3.52 3.891 3.653a3.773 3.773 0 0 0 3.817-.3 5.77 5.77 0 0 0 2.1-3.574l.109-.38.677-2.317 2.042-6.99c-.7.284-1.4.567-2.1.8z" class="cls-1" transform="translate(-180.172 -190.846)"/>
        <circle id="Ellipse_1" cx="1.716" cy="1.716" r="1.716" class="cls-1" transform="translate(7.288 15.626)"/>
        <circle id="Ellipse_2" cx="1.287" cy="1.287" r="1.287" class="cls-1" transform="translate(12.58 18.685)"/>
        <circle id="Ellipse_3" cx=".858" cy=".858" r=".858" class="cls-3" transform="translate(13.59 12.417)"/>
    </g>
</svg>
