<svg xmlns="http://www.w3.org/2000/svg" width="280" height="68" viewBox="0 0 280 68">
    <defs>
        <style>
            .cls-5{fill:#23beb9}.cls-2{fill:#fff}.cls-41{fill:none}
        </style>
    </defs>
    <g id="Group_4480" transform="translate(-29 -14)">
        <g id="Group_6" transform="translate(-666 -489.574)">
            <text id="CryptoLab" fill="#23beb9" font-family="Montserrat-Bold, Montserrat" font-size="24px" font-weight="700" transform="translate(759 545.574)">
                <tspan x="0" y="0">Crypto</tspan><tspan y="0" class="cls-2">Lab</tspan>
            </text>
            <text id="Tools" fill="#fff" font-family="Montserrat-Bold, Montserrat" font-size="24px" font-weight="700" transform="translate(910 545.574)">
                <tspan x="0" y="0">Tools</tspan>
            </text>
            <g id="Group_1" transform="translate(695 503.574)">
                <g id="Group_3" transform="translate(0 0)">
                    <path id="Rectangle_1" d="M0 0H68V68H0z" class="cls-41"/>
                    <g id="Group_2" transform="translate(6.929 9.226)">
                        <path id="Path_1" d="M386.727 222.311l-3.584-6.2-3.622 6.265a4.169 4.169 0 0 0-.318.763 4.082 4.082 0 0 0-.2 1.271v.14a4.151 4.151 0 0 0 8.3-.14 4.03 4.03 0 0 0-.576-2.099z" class="cls-5" transform="translate(-338.708 -193.388)"/>
                        <g id="Group_1-2">
                            <path id="Path_2" d="M230.078 165.931a11.866 11.866 0 0 0 7.629-.294l.921-3.153a1.416 1.416 0 0 1 .358-.605l5.9-5.9-5.692-5.692-5.9 5.9a1.418 1.418 0 0 1-.605.358l-7.674 2.242-8.127 2.374c-.207.061-.415.12-.623.178l-.229.065a25.537 25.537 0 0 1 9.173 2.206 40.628 40.628 0 0 0 4.869 2.321z" class="cls-41" transform="translate(-208.768 -140.901)"/>
                            <path id="Path_3" d="M343.479 116.871L331.013 104.4a1.419 1.419 0 0 0-2.006 2.006l12.467 12.467a1.419 1.419 0 0 0 2.006-2.006z" class="cls-2" transform="translate(-298.514 -103.989)"/>
                            <path id="Path_4" d="M216.223 121.679a1.418 1.418 0 0 0-2.006 2.006l1.381 1.381-5.719 5.719-9.292 2.715-6.16 1.8-.6.172a10.325 10.325 0 0 0-4.963 2.482c1.946.039 3.9.221 4.7.262.269.014.538.031.807.05l.229-.065c.208-.059.416-.118.623-.179l8.127-2.374 7.674-2.242a1.419 1.419 0 0 0 .605-.358l5.9-5.9 5.692 5.692-5.9 5.9a1.417 1.417 0 0 0-.358.605l-.921 3.153c1.112-.363 2.212-.811 3.324-1.259l.219-.75 5.719-5.719 1.381 1.381a1.419 1.419 0 0 0 2.006-2.006z" class="cls-2" transform="translate(-187.102 -117.763)"/>
                            <path id="Path_5" d="M194.758 207.291a3.151 3.151 0 0 0-.32 3.078c.264.366 1.639 1.895 7.705 7.905.251.249.433.426.517.513l.02.02.015.016.02.02.005.005.508.512c6.012 6.066 7.539 7.441 7.905 7.705a3.151 3.151 0 0 0 3.078-.32c1.282-.872 1.7-2.355 2.188-4.073.059-.208.118-.416.179-.624l1.4-4.8 2.292-7.846a11.865 11.865 0 0 1-7.629.294 40.628 40.628 0 0 1-4.869-2.32 25.537 25.537 0 0 0-9.173-2.206c-1.617.459-3.008.897-3.841 2.121z" class="cls-5" transform="translate(-191.335 -184.664)"/>
                            <path id="Path_6" d="M206.818 216.018l-1.4 4.8c-.061.208-.12.416-.179.624-.486 1.718-.906 3.2-2.188 4.073a3.151 3.151 0 0 1-3.078.32c-.366-.264-1.894-1.639-7.905-7.705l-.508-.511-.005-.005-.02-.02-.015-.016-.02-.02c-.084-.086-.265-.264-.517-.513-6.066-6.011-7.441-7.539-7.705-7.905a3.151 3.151 0 0 1 .32-3.078c.832-1.224 2.224-1.663 3.844-2.123-.269-.019-.538-.036-.807-.05-.8-.041-2.754-.223-4.7-.262a6.449 6.449 0 0 0-.684.84 5.96 5.96 0 0 0-.467 6.029c.241.461 1.072 1.5 8.2 8.565l.474.47c.019.021.04.042.061.062s.041.042.062.061l.47.474c.9.909 1.7 1.715 2.418 2.431 4.9 4.9 5.744 5.561 6.146 5.77a5.96 5.96 0 0 0 6.03-.467c2.135-1.452 2.766-3.68 3.322-5.646.057-.2.113-.4.172-.6l1.069-3.66 3.226-11.043c-1.111.448-2.212.9-3.324 1.259z" class="cls-2" transform="translate(-180.172 -183.435)"/>
                            <circle id="Ellipse_1" cx="2.711" cy="2.711" r="2.711" class="cls-2" transform="translate(11.514 24.685)"/>
                            <circle id="Ellipse_2" cx="2.033" cy="2.033" r="2.033" class="cls-2" transform="translate(19.873 29.518)"/>
                            <circle id="Ellipse_3" cx="1.356" cy="1.356" r="1.356" class="cls-5" transform="translate(21.469 19.616)"/>
                        </g>
                    </g>
                </g>
            </g>
        </g>
        <circle id="Ellipse_191" cx="3" cy="3" r="3" class="cls-2" transform="translate(231 46)"/>
    </g>
</svg>
