<svg xmlns="http://www.w3.org/2000/svg" width="44" height="44" viewBox="0 0 44 44">
    <g transform="translate(-1112 -1211)">
        <circle cx="22" cy="22" r="22" fill="#47a1ed" transform="translate(1112 1211)"/>
        <path fill="#fff" d="M26.354 4.783a10.8 10.8 0 0 1-3.105.851 5.416 5.416 0 0 0 2.377-2.991 10.831 10.831 0 0 1-3.434 1.312 5.41 5.41 0 0 0-9.214 4.93A15.349 15.349 0 0 1 1.835 3.237a5.414 5.414 0 0 0 1.672 7.219A5.384 5.384 0 0 1 1.06 9.78a5.411 5.411 0 0 0 4.34 5.369 5.419 5.419 0 0 1-2.442.092A5.411 5.411 0 0 0 8.005 19 10.871 10.871 0 0 1 0 21.236a15.306 15.306 0 0 0 8.288 2.429A15.291 15.291 0 0 0 23.656 7.582a11.008 11.008 0 0 0 2.7-2.8z" transform="translate(1120.975 1222.214)"/>
    </g>
</svg>
