<svg xmlns="http://www.w3.org/2000/svg" width="12.764" height="19.991" viewBox="0 0 12.764 19.991">
    <path fill="#21aca8" d="M200.06 602.154l3.646 1.434-.468.875.052.094c1.714-.35 3.416-.756 5.12-1.152l.024-.093-3.961-3.21-.1.045v.673c0 .184-.073.261-.253.212a12.743 12.743 0 0 1-3.518-1.346 3.957 3.957 0 0 1-1.909-3.109 5.054 5.054 0 0 1 1.134-3.949 5.213 5.213 0 0 1 2.585-1.569c.256-.074.369-.181.355-.457-.021-.4 0-.793-.007-1.19 0-.176.061-.248.241-.247q1.756.007 3.513 0c.165 0 .229.065.226.231-.007.415.011.831-.007 1.245-.011.248.1.344.323.391a10.176 10.176 0 0 1 3.934 1.814c.162.119.178.207.081.38-.523.931-1.035 1.867-1.545 2.8-.073.134-.119.188-.29.117-1.045-.43-2.1-.842-3.148-1.261-.093-.037-.183-.08-.3-.132l.484-.927-.059-.085-5.109 1.163-.033.108 3.957 3.21.106-.039c0-.234.005-.467 0-.7-.005-.176.072-.242.236-.2a13.593 13.593 0 0 1 3.379 1.254 4.268 4.268 0 0 1 2.048 4.539 4.613 4.613 0 0 1-1.514 3.017 5.429 5.429 0 0 1-2.229 1.175c-.228.062-.323.16-.314.4.014.405 0 .812 0 1.217 0 .184-.046.268-.247.267q-1.729-.009-3.457 0c-.2 0-.28-.074-.275-.277.01-.4-.012-.794.008-1.19.012-.246-.088-.345-.314-.395a10.371 10.371 0 0 1-3.935-1.813c-.151-.11-.2-.191-.1-.376.514-.914 1.012-1.838 1.517-2.757.042-.072.096-.141.123-.187z" transform="translate(-198.364 -589.165)"/>
</svg>
