<svg xmlns="http://www.w3.org/2000/svg" xmlns:xlink="http://www.w3.org/1999/xlink" width="345.008" height="298.155" viewBox="0 0 345.008 298.155">
    <defs>
        <linearGradient id="linear-gradient" x1=".5" x2=".5" y1="-.116" y2="1.253" gradientUnits="objectBoundingBox">
            <stop offset="0" stop-color="#fff"/>
            <stop offset=".086" stop-color="#fff" stop-opacity=".969"/>
            <stop offset=".218" stop-color="#fff" stop-opacity=".886"/>
            <stop offset=".38" stop-color="#fff" stop-opacity=".749"/>
            <stop offset=".565" stop-color="#fff" stop-opacity=".557"/>
            <stop offset=".77" stop-color="#fff" stop-opacity=".31"/>
            <stop offset=".989" stop-color="#fff" stop-opacity=".016"/>
            <stop offset="1" stop-color="#fff" stop-opacity="0"/>
        </linearGradient>
        <linearGradient id="linear-gradient-4" x1=".5" x2=".5" y1=".113" y2=".957" gradientUnits="objectBoundingBox">
            <stop offset="0" stop-color="#fff"/>
            <stop offset=".999" stop-color="#e0e0e0"/>
        </linearGradient>
        <linearGradient id="linear-gradient-6" x1=".5" x2=".5" y1="-.065" y2=".878" gradientUnits="objectBoundingBox">
            <stop offset="0" stop-color="#ffd22e"/>
            <stop offset=".355" stop-color="#ffc72e"/>
            <stop offset=".96" stop-color="#ffac2e"/>
            <stop offset=".997" stop-color="#ffab2e"/>
        </linearGradient>
        <linearGradient id="linear-gradient-7" x1=".5" x2=".5" y1="-.022" y2="1.075" xlink:href="#linear-gradient-6"/>
        <linearGradient id="linear-gradient-9" x1=".5" x2=".5" y1=".107" y2=".977" gradientUnits="objectBoundingBox">
            <stop offset="0" stop-color="#fff"/>
            <stop offset="1" stop-color="#fff" stop-opacity="0"/>
        </linearGradient>
        <linearGradient id="linear-gradient-11" x1=".5" x2=".5" y1="-.104" y2="1.673" gradientUnits="objectBoundingBox">
            <stop offset="0" stop-color="#d6d6d6"/>
            <stop offset=".283" stop-color="#d3d3d3"/>
            <stop offset=".436" stop-color="#cbcbcb"/>
            <stop offset=".559" stop-color="#bdbdbd"/>
            <stop offset=".665" stop-color="#aaa"/>
            <stop offset=".761" stop-color="#919191"/>
            <stop offset=".849" stop-color="#727272"/>
            <stop offset=".93" stop-color="#4e4e4e"/>
            <stop offset=".976" stop-color="#363636"/>
        </linearGradient>
        <linearGradient id="linear-gradient-12" x1=".5" x2=".5" y1=".35" y2="2.128" xlink:href="#linear-gradient-11"/>
        <linearGradient id="linear-gradient-13" x1=".5" x2=".5" y1="-.745" y2="1.033" xlink:href="#linear-gradient-11"/>
        <linearGradient id="linear-gradient-14" x1=".5" x2=".5" y1=".59" y2="1.168" gradientUnits="objectBoundingBox">
            <stop offset="0" stop-color="#fff"/>
            <stop offset=".976" stop-color="#363636"/>
        </linearGradient>
        <clipPath id="clip-path">
            <path id="Path_3570" d="M1355.236 604.329h-3.078a2.907 2.907 0 0 0-2.647 2.049l-24.572 67.461h57.516l-24.572-67.461a2.906 2.906 0 0 0-2.647-2.049z" class="cls-1" transform="translate(-1324.939 -604.329)"/>
        </clipPath>
        <clipPath id="clip-path-2">
            <path id="Path_3575" d="M1623.07 604.329h-3.078a2.906 2.906 0 0 0-2.646 2.049l-24.573 67.461h57.516l-24.572-67.461a2.907 2.907 0 0 0-2.647-2.049z" class="cls-1" transform="translate(-1592.773 -604.329)"/>
        </clipPath>
        <clipPath id="clip-path-3">
            <rect id="Rectangle_198" width="178.175" height="38.622" class="cls-1" rx="5.471"/>
        </clipPath>
        <clipPath id="clip-path-5">
            <ellipse id="Ellipse_221" cx="58.916" cy="15.764" class="cls-1" rx="58.916" ry="15.764"/>
        </clipPath>
        <style>
            .cls-1{fill:none}.cls-2{opacity:.8;fill:url(#linear-gradient)}.cls-14ccc,.cls-3ccc{fill:#969696}.cls-4{fill:#23beb9}.cls-6{fill:#fff}.cls-7{fill:#cdd4de}.cls-14ccc,.cls-18,.cls-7,.cls-9{mix-blend-mode:multiply;isolation:isolate}.cls-36,.cls-9{fill:#9e9e9e}.cls-14,.cls-9{opacity:.35}.cls-10{fill:#737373}.cls-11{fill:#636363}.cls-12{fill:#dbdbdb}.cls-13{fill:#616161}.cls-15{fill:#363636}.cls-18{fill:#666;opacity:.7}.cls-19{clip-path:url(#clip-path-3)}.cls-20{fill:url(#linear-gradient-4)}.cls-22{fill:#ffedad}.cls-23{fill:#212121}.cls-25{fill:#454545}.cls-26{fill:url(#linear-gradient-7)}.cls-27{opacity:.28;fill:url(#linear-gradient-9)}.cls-32{fill:url(#linear-gradient-14)}.cls-35{fill:gray}
        </style>
    </defs>
    <g id="Group_4589" transform="translate(-1302.96 -434.842)">
        <path id="Path_3565" d="M1489.187 439.506v-4.664h-3.22v4.664h-4.667v3.22h4.664v4.664h3.22v-4.664h4.664v-3.22z" class="cls-2" transform="translate(-17.059)"/>
        <path id="Path_3566" d="M1619.187 525.734v-4.664h-3.22v4.664h-4.667v3.22h4.664v4.664h3.22v-4.664h4.664v-3.22z" class="cls-2" transform="translate(-29.494 -8.248)"/>
        <path id="Path_3567" d="M1361.187 525.734v-4.664h-3.22v4.664h-4.667v3.22h4.664v4.664h3.22v-4.664h4.664v-3.22z" class="cls-2" transform="translate(-4.816 -8.248)"/>
        <path id="Path_3568" d="M1389.655 686.914c.112 2.891-16.324 5.827-36.716 5.817-20.394.009-36.829-2.928-36.716-5.817.111-2.91 16.546-4.686 36.716-4.695 20.169.011 36.604 1.781 36.716 4.695z" class="cls-3ccc" transform="translate(-1.268 -23.663)"/>
        <path id="Path_3569" d="M1355.236 604.329h-3.078a2.907 2.907 0 0 0-2.647 2.049l-24.572 67.461a102.585 102.585 0 0 0 57.516 0l-24.573-67.461a2.906 2.906 0 0 0-2.646-2.049z" class="cls-4" transform="translate(-2.102 -16.212)"/>
        <g id="Group_4590" transform="translate(1322.837 588.117)">
            <g id="Group_4589-2" clip-path="url(#clip-path)">
                <path id="Rectangle_185" d="M0 0H52.554V13.933H0z" class="cls-6" transform="translate(2.019 16.875)"/>
                <path id="Rectangle_186" d="M0 0H52.554V13.933H0z" class="cls-6" transform="translate(2.019 44.121)"/>
            </g>
        </g>
        <path id="Path_3571" d="M1360.383 648.832a75.174 75.174 0 0 1-3.4 11.9 34.628 34.628 0 0 1-5.219 10.057 66.975 66.975 0 0 1-5.828 5.638l38.528-2.592-24.572-67.461a2.906 2.906 0 0 0-2.646-2.049h-.354c4.534 14.342 6.352 29.642 3.491 44.507z" class="cls-7" transform="translate(-4.111 -16.212)"/>
        <path id="Path_3572" d="M1386.922 686.157a180.344 180.344 0 0 1-68.007 0 2.531 2.531 0 0 1-2.064-2.964q.152-.732.3-1.467a2.549 2.549 0 0 1 2.985-1.955 173.884 173.884 0 0 0 65.555 0 2.55 2.55 0 0 1 2.986 1.955l.3 1.467a2.529 2.529 0 0 1-2.055 2.964z" class="cls-4" transform="translate(-1.324 -23.424)"/>
        <path id="Path_3573" d="M1657.489 686.914c.112 2.891-16.324 5.827-36.716 5.817-20.394.009-36.828-2.928-36.716-5.817.112-2.91 16.546-4.686 36.716-4.695 20.169.011 36.605 1.781 36.716 4.695z" class="cls-3ccc" transform="translate(-26.888 -23.663)"/>
        <path id="Path_3574" d="M1623.07 604.329h-3.078a2.906 2.906 0 0 0-2.646 2.049l-24.573 67.461a102.585 102.585 0 0 0 57.516 0l-24.572-67.461a2.907 2.907 0 0 0-2.647-2.049z" class="cls-4" transform="translate(-27.722 -16.212)"/>
        <g id="Group_4592" transform="translate(1565.051 588.117)">
            <g id="Group_4591" clip-path="url(#clip-path-2)">
                <path id="Rectangle_187" d="M0 0H52.554V13.933H0z" class="cls-6" transform="translate(2.019 16.875)"/>
                <path id="Rectangle_188" d="M0 0H52.554V13.933H0z" class="cls-6" transform="translate(2.019 44.121)"/>
            </g>
        </g>
        <path id="Path_3576" d="M1628.217 648.832a75.157 75.157 0 0 1-3.4 11.9 34.637 34.637 0 0 1-5.22 10.057 66.838 66.838 0 0 1-5.828 5.638l38.529-2.592-24.572-67.461a2.907 2.907 0 0 0-2.647-2.049h-.353c4.535 14.342 6.353 29.642 3.491 44.507z" class="cls-7" transform="translate(-29.73 -16.212)"/>
        <path id="Path_3577" d="M1654.756 686.157a180.344 180.344 0 0 1-68.007 0 2.531 2.531 0 0 1-2.064-2.964l.3-1.467a2.55 2.55 0 0 1 2.986-1.955 173.883 173.883 0 0 0 65.555 0 2.549 2.549 0 0 1 2.985 1.955l.3 1.467a2.529 2.529 0 0 1-2.055 2.964z" class="cls-4" transform="translate(-26.943 -23.424)"/>
        <ellipse id="Ellipse_206" cx="31.461" cy="3.701" class="cls-9" rx="31.461" ry="3.701" transform="translate(1317.073 691.754)"/>
        <path id="Rectangle_189" d="M0 0H11.465V4.517H0z" class="cls-10" transform="translate(1317.523 687.33)"/>
        <path id="Rectangle_190" d="M0 0H11.465V4.951H0z" class="cls-10" transform="translate(1368.075 686.896)"/>
        <path id="Path_3578" d="M1318.893 721.862c3.806 2.414 13.891 2.425 17.791-.162l26.411-.144a7.843 7.843 0 0 0 1.637.715c4.735 1.685 12.813 1.246 16.336-.813v-3.708s-10.665 3.127-15.942-1.173l-29.38-.26s-10.579 3.272-16.852 1.766z" class="cls-11" transform="translate(-1.524 -26.924)"/>
        <path id="Path_3579" d="M1364.647 712.856c-.739.267-1.111.532-1.665.732l-26.043.141c-.546-.194-.908-.456-1.637-.714-4.735-1.686-12.813-1.247-16.336.812l5.5-.03c2.935-.016 5.12.761 5.1 1.814s-2.236 1.855-5.17 1.871l-5.5.161c3.806 2.414 13.891 2.425 17.791-.162l26.411-.144a7.843 7.843 0 0 0 1.637.715c4.735 1.685 12.813 1.246 16.336-.813l-5.5.03c-2.935.016-5.121-.761-5.1-1.814s2.235-1.855 5.17-1.87l5.5-.03c-3.441-2.155-11.692-2.436-16.494-.699z" class="cls-12" transform="translate(-1.524 -26.485)"/>
        <path id="Path_3580" d="M1365.882 745.877c0 2.045-14.085 3.7-31.461 3.7s-31.461-1.657-31.461-3.7 14.086-3.7 31.461-3.7 31.461 1.656 31.461 3.7z" class="cls-9" transform="translate(0 -29.398)"/>
        <path id="Rectangle_191" d="M0 0H11.465V4.517H0z" class="cls-10" transform="translate(1303.41 708.353)"/>
        <path id="Rectangle_192" d="M0 0H11.465V4.951H0z" class="cls-10" transform="translate(1353.962 707.919)"/>
        <path id="Path_3581" d="M1303.288 745.109c3.8 2.414 13.891 2.425 17.791-.162l26.41-.144a7.867 7.867 0 0 0 1.637.715c4.736 1.685 12.813 1.246 16.337-.812V741s-10.666 3.127-15.943-1.172l-29.38-.26s-10.579 3.271-16.853 1.765z" class="cls-11" transform="translate(-0.031 -29.148)"/>
        <path id="Path_3582" d="M1349.042 736.1c-.739.267-1.111.533-1.664.732l-26.043.141c-.546-.194-.908-.456-1.637-.714-4.736-1.685-12.813-1.246-16.337.812l5.5-.03c2.935-.016 5.12.762 5.1 1.815s-2.236 1.854-5.171 1.87l-5.5.161c3.8 2.414 13.891 2.425 17.791-.162l26.41-.144a7.864 7.864 0 0 0 1.637.715c4.736 1.685 12.813 1.246 16.337-.812l-5.5.03c-2.935.015-5.12-.762-5.1-1.815s2.237-1.854 5.171-1.87l5.5-.03c-3.447-2.148-11.693-2.433-16.494-.699z" class="cls-12" transform="translate(-0.031 -28.709)"/>
        <path id="Path_3583" d="M1391.51 747.729c-4.307 0-7.8-1.515-7.8-3.384s3.493-3.383 7.8-3.383 7.8 1.515 7.8 3.383-3.492 3.384-7.8 3.384z" class="cls-9" transform="translate(-7.724 -29.282)"/>
        <path id="Path_3584" d="M1399.229 740.511l-3.831-2.868h-7.662l-3.831 2.868v3.109l3.831 2.868h7.662l3.831-2.868z" class="cls-11" transform="translate(-7.743 -28.964)"/>
        <path id="Path_3585" d="M1395.4 737.56h-7.662l-3.832 2.868 3.832 2.868h7.662l3.832-2.868z" class="cls-12" transform="translate(-7.743 -28.956)"/>
        <ellipse id="Ellipse_207" cx="2.75" cy="1.189" class="cls-13" rx="2.75" ry="1.189" transform="translate(1381.073 710.283)"/>
        <path id="Path_3586" d="M1419.594 758.577c-4.308 0-7.8-1.515-7.8-3.383s3.492-3.383 7.8-3.383 7.8 1.515 7.8 3.383-3.494 3.383-7.8 3.383z" class="cls-9" transform="translate(-10.411 -30.32)"/>
        <path id="Path_3587" d="M1427.312 751.359l-3.831-2.868h-7.662l-3.831 2.868v3.109l3.831 2.868h7.662l3.831-2.868z" class="cls-11" transform="translate(-10.429 -30.002)"/>
        <path id="Path_3588" d="M1423.481 748.408h-7.662l-3.831 2.868 3.831 2.868h7.662l3.831-2.868z" class="cls-12" transform="translate(-10.429 -29.994)"/>
        <path id="Path_3589" d="M1420.169 752.643c-1.519 0-2.75-.533-2.75-1.189s1.231-1.188 2.75-1.188 2.751.532 2.751 1.188-1.232 1.189-2.751 1.189z" class="cls-13" transform="translate(-10.948 -30.172)"/>
        <ellipse id="Ellipse_208" cx="97.123" cy="5.922" class="cls-14ccc" rx="97.123" ry="5.922" transform="translate(1375.95 629.572)"/>
        <path id="Rectangle_193" d="M4.128 0h5.133a4.128 4.128 0 0 1 4.128 4.128v146.883H0V4.128A4.128 4.128 0 0 1 4.128 0z" class="cls-15" transform="translate(1396.254 480.069)"/>
        <path id="Path_3590" d="M1419.611 488.586a3.733 3.733 0 0 0-3.733-3.733h-5.922a3.747 3.747 0 0 0-.866.11h3.346a3.734 3.734 0 0 1 3.733 3.734v47.946l-9.93 1.33a16.775 16.775 0 0 1 9.93 15.315v18.885l-10 38.124-.147 20.579 10.151.037h3.442z" transform="translate(-9.858 -4.784)" style="mix-blend-mode:multiply;isolation:isolate" fill="#666"/>
        <path id="Rectangle_194" d="M4.128 0h5.133a4.128 4.128 0 0 1 4.128 4.128v146.883H0V4.128A4.128 4.128 0 0 1 4.128 0z" class="cls-15" transform="translate(1536.608 480.069)"/>
        <path id="Path_3591" fill="#666" d="M1574.811 488.586a3.733 3.733 0 0 0-3.733-3.733h-5.922a3.743 3.743 0 0 0-.865.11h3.345a3.734 3.734 0 0 1 3.734 3.734v47.946l-9.93 1.33a16.777 16.777 0 0 1 9.93 15.315v18.885l-10 38.124-.148 20.579 10.152.037h3.442z" transform="translate(-24.704 -4.784)"/>
        <path id="Rectangle_195" d="M3.06 0h23.618a3.06 3.06 0 0 1 3.06 3.06v3.535a3.061 3.061 0 0 1-3.061 3.061H3.061A3.061 3.061 0 0 1 0 6.595V3.06A3.06 3.06 0 0 1 3.06 0z" class="cls-15" transform="translate(1388.079 625.673)"/>
        <path id="Rectangle_196" d="M3.06 0h23.618a3.061 3.061 0 0 1 3.061 3.061v3.534a3.061 3.061 0 0 1-3.061 3.061H3.061A3.061 3.061 0 0 1 0 6.595V3.06A3.06 3.06 0 0 1 3.06 0z" class="cls-15" transform="translate(1528.433 625.673)"/>
        <path id="Path_3592" d="M1413.007 652.323c-4.99-.049-13.575.667-15.713-4.577a2.758 2.758 0 0 0-.212 1.06v4.12a2.768 2.768 0 0 0 2.767 2.768h24.2a2.768 2.768 0 0 0 2.767-2.768v-4.12a2.736 2.736 0 0 0-.208-1.045c-1.808 4.408-9.233 4.604-13.601 4.562z" class="cls-18" transform="translate(-9.003 -20.365)"/>
        <path id="Path_3593" d="M1568.207 652.323c-4.99-.049-13.576.667-15.713-4.577a2.758 2.758 0 0 0-.212 1.06v4.12a2.768 2.768 0 0 0 2.767 2.768h24.2a2.768 2.768 0 0 0 2.768-2.768v-4.12a2.752 2.752 0 0 0-.208-1.045c-1.809 4.408-9.233 4.604-13.602 4.562z" class="cls-18" transform="translate(-23.849 -20.365)"/>
        <g id="Group_4594" transform="translate(1382.51 494.616)">
            <g id="Group_4593" class="cls-19">
                <path id="Rectangle_197" d="M0 0H178.175V38.622H0z" class="cls-20"/>
                <path id="Path_3594" d="M1402.509 499.942l-13.434 13.434v17.98l31.271-31.271-.144-.144z" class="cls-4" transform="translate(-1390.748 -500.843)"/>
                <path id="Path_3595" d="M1416.748 540.366l40.28-40.281-.144-.144h-17.693l-40.424 40.424z" class="cls-4" transform="translate(-1391.675 -500.843)"/>
                <path id="Path_3596" d="M1456.286 540.366l40.28-40.281-.144-.144h-17.693l-40.424 40.424z" class="cls-4" transform="translate(-1395.457 -500.843)"/>
                <path id="Path_3597" d="M1495.823 540.366l40.281-40.281-.144-.144h-17.693l-40.424 40.424z" class="cls-4" transform="translate(-1399.239 -500.843)"/>
                <path id="Path_3598" d="M1535.361 540.366l40.281-40.281-.144-.144h-17.693l-40.424 40.424z" class="cls-4" transform="translate(-1403.021 -500.843)"/>
                <path id="Path_3599" d="M1556.919 541.5h17.98l11.753-11.753v-17.98z" class="cls-4" transform="translate(-1406.803 -501.974)"/>
            </g>
        </g>
        <path id="Path_3600" d="M1565.52 501.156l-.114 18.357c0 8.875-.41 16.91-16.07 16.071h-157.157a4.936 4.936 0 0 1-1.175-.146 4.944 4.944 0 0 0 4.876 4.144h168.28a4.948 4.948 0 0 0 4.948-4.949v-28.726a4.944 4.944 0 0 0-3.588-4.751z" class="cls-7" transform="translate(-8.422 -6.343)"/>
        <g id="Group_4596" transform="translate(1382.51 567.458)">
            <g id="Group_4595" class="cls-19" transform="translate(0 0)">
                <path id="Rectangle_199" d="M0 0H178.175V38.622H0z" class="cls-20"/>
                <path id="Path_3601" d="M1402.509 580.489l-13.434 13.434V611.9l31.271-31.271-.144-.144z" class="cls-4" transform="translate(-1390.748 -581.39)"/>
                <path id="Path_3602" d="M1416.748 620.913l40.28-40.281-.144-.144h-17.693l-40.424 40.424z" class="cls-4" transform="translate(-1391.675 -581.39)"/>
                <path id="Path_3603" d="M1456.286 620.913l40.28-40.281-.144-.144h-17.693l-40.424 40.424z" class="cls-4" transform="translate(-1395.457 -581.39)"/>
                <path id="Path_3604" d="M1495.823 620.913l40.281-40.281-.144-.144h-17.693l-40.424 40.424z" class="cls-4" transform="translate(-1399.239 -581.39)"/>
                <path id="Path_3605" d="M1535.361 620.913l40.281-40.281-.144-.144h-17.693l-40.424 40.424z" class="cls-4" transform="translate(-1403.021 -581.39)"/>
                <path id="Path_3606" d="M1556.919 622.044h17.98l11.753-11.753v-17.98z" class="cls-4" transform="translate(-1406.803 -582.521)"/>
            </g>
        </g>
        <path id="Path_3607" d="M1565.52 581.7l-.114 18.356c0 8.876-.41 16.911-16.07 16.071h-157.157a4.936 4.936 0 0 1-1.175-.146 4.944 4.944 0 0 0 4.876 4.145h168.28a4.948 4.948 0 0 0 4.948-4.949v-28.723a4.944 4.944 0 0 0-3.588-4.754z" class="cls-7" transform="translate(-8.422 -14.048)"/>
        <rect id="Rectangle_201" width="67.364" height="67.364" fill="url(#linear-gradient-6)" rx="3.201" transform="translate(1471.598 466.294) rotate(45)"/>
        <path id="Path_3608" d="M1485.178 558.291a3.724 3.724 0 0 1-2.642-1.092l-36.524-36.523a3.739 3.739 0 0 1 0-5.284l36.524-36.521a3.74 3.74 0 0 1 5.285 0l36.522 36.521a3.737 3.737 0 0 1 0 5.284L1487.82 557.2a3.726 3.726 0 0 1-2.642 1.091zm-38-41.734a2.09 2.09 0 0 0 0 2.953l36.524 36.523a2.092 2.092 0 0 0 2.954 0l36.522-36.523a2.086 2.086 0 0 0 0-2.953l-36.522-36.521a2.09 2.09 0 0 0-2.954 0z" class="cls-22" transform="translate(-13.579 -4.107)"/>
        <path id="Path_3609" d="M1498.047 522.847c-.667 0-1.167.166-1.666.166l-4.831-4.831 4-4 5.164-1.832 3.831-6.163a1.05 1.05 0 0 0 0-1l-2-2a1.026 1.026 0 0 0-1.167-.167l-6.329 3.665-2 5.33-4 4-4.5-4.83c0-.5.167-1 .167-1.666a6.767 6.767 0 0 0-8.329-6.5l2.5 2.5a3.3 3.3 0 0 1-4.664 4.664l-2.665-2.331a6.539 6.539 0 0 0 8.162 8l4.83 4.83-2 2a3.171 3.171 0 0 0-3.164.832l-6.83 6.83a3.389 3.389 0 0 0-.333 4.664 3.282 3.282 0 0 0 4.83.167l7-7a3.27 3.27 0 0 0 .833-3.165l2-2 4.83 4.83a5.677 5.677 0 0 0-.166 1.666 6.767 6.767 0 0 0 8.329 6.5l-2.5-2.5a3.3 3.3 0 0 1 4.664-4.665l2.5 2.5a6.759 6.759 0 0 0-6.496-8.494z" class="cls-23" transform="translate(-16.105 -6.504)"/>
        <path id="Path_3610" fill="#cdd4de" d="M1535.037 515.335L1491.5 471.8a2.875 2.875 0 0 0-1.9-.835V563.8a2.87 2.87 0 0 0 1.9-.834l43.54-43.541a2.894 2.894 0 0 0-.003-4.09z" transform="translate(-17.852 -3.455)" style="mix-blend-mode:multiply;isolation:isolate" opacity="0.46"/>
        <path id="Path_3611" d="M1450 522.43a1.443 1.443 0 1 1 1.442 1.442 1.442 1.442 0 0 1-1.442-1.442z" class="cls-25" transform="translate(-14.065 -8.24)"/>
        <path id="Path_3612" d="M1523.813 522.43a1.443 1.443 0 1 1 1.442 1.442 1.442 1.442 0 0 1-1.442-1.442z" class="cls-25" transform="translate(-21.126 -8.24)"/>
        <circle id="Ellipse_209" cx="14.421" cy="14.421" r="14.421" class="cls-4" transform="translate(1388.966 452.797)"/>
        <circle id="Ellipse_210" cx="9.889" cy="9.889" r="9.889" class="cls-26" transform="translate(1393.498 457.329)"/>
        <circle id="Ellipse_211" cx="4.944" cy="4.944" r="4.944" class="cls-22" transform="translate(1398.443 462.273)"/>
        <circle id="Ellipse_212" cx="14.421" cy="14.421" r="14.421" class="cls-4" transform="translate(1528.509 452.797)"/>
        <circle id="Ellipse_213" cx="9.889" cy="9.889" r="9.889" class="cls-26" transform="translate(1533.041 457.329)"/>
        <circle id="Ellipse_214" cx="4.944" cy="4.944" r="4.944" class="cls-22" transform="translate(1537.985 462.273)"/>
        <circle id="Ellipse_215" cx="12.661" cy="12.661" r="12.661" class="cls-27" transform="translate(1390.606 454.86)"/>
        <circle id="Ellipse_216" cx="12.661" cy="12.661" r="12.661" class="cls-27" transform="translate(1530.177 454.558)"/>
        <ellipse id="Ellipse_217" cx="65.958" cy="19.987" fill="#545454" rx="65.958" ry="19.987" transform="translate(1409.669 671.915)"/>
        <ellipse id="Ellipse_218" cx="57.586" cy="10.243" class="cls-23" rx="57.586" ry="10.243" transform="translate(1418.041 691.402)"/>
        <path id="Rectangle_202" fill="url(#linear-gradient-11)" d="M0 0H4.997V50.385H0z" transform="translate(1447.478 684.574) rotate(-90)"/>
        <path id="Rectangle_203" fill="url(#linear-gradient-12)" d="M0 0H4.997V50.385H0z" transform="translate(1447.478 663.473) rotate(-90)"/>
        <path id="Rectangle_204" fill="url(#linear-gradient-13)" d="M0 0H4.997V50.385H0z" transform="translate(1447.478 705.394) rotate(-90)"/>
        <path id="Path_3613" d="M1466.1 732.425l-5-.678v-65.3a1.874 1.874 0 0 1 1.874-1.874h1.249a1.873 1.873 0 0 1 1.874 1.874z" class="cls-32" transform="translate(-15.128 -21.975)"/>
        <path id="Path_3614" d="M1520.62 732.538l-5 .452v-66.54a1.874 1.874 0 0 1 1.874-1.874h1.25a1.874 1.874 0 0 1 1.874 1.874z" class="cls-32" transform="translate(-20.342 -21.975)"/>
        <path id="Path_3615" d="M1443.9 707.9c3.515 5.452 3.085 13.475-1.174 21.474.6.154 1.148.319 1.741.482 4.4-8.476 4.778-17 .953-22.936-2.458-3.814-6.388-6.3-10.19-8.694-4.307-2.718-8.375-5.287-10.292-9.578a12.194 12.194 0 0 1 5.178-15.093.9.9 0 0 0-.851-1.6 13.9 13.9 0 0 0-5.979 17.427c2.139 4.791 6.633 7.628 10.977 10.37 3.637 2.295 7.396 4.669 9.637 8.148z" class="cls-4" transform="translate(-11.406 -22.671)"/>
        <path id="Path_3616" fill="#ffb12e" d="M1432.308 728.675c.573.184 1.148.42 1.714.623a1.475 1.475 0 0 0 .039-.158 15.126 15.126 0 0 0-5.671-15.14c-3.321-2.4-7.379-3.213-11.3-4l-1.019-.205c-4.107-.832-8.276-2-10.956-4.86a8.323 8.323 0 0 1-2.16-6.163 5.241 5.241 0 0 1 1.913-3.824.9.9 0 1 0-1.111-1.427 7.035 7.035 0 0 0-2.6 5.109 10.182 10.182 0 0 0 2.642 7.541c3.027 3.234 7.516 4.5 11.915 5.4l1.026.206c3.735.745 7.6 1.516 10.6 3.688a13.266 13.266 0 0 1 4.968 13.21z" transform="translate(-9.39 -24.726)"/>
        <path id="Path_3617" d="M1447.232 729.335a32.6 32.6 0 0 1-2.334 5.535c.6.154 1.148.319 1.741.482a35.4 35.4 0 0 0 1.81-4.11c-.391-.642-.803-1.276-1.217-1.907z" class="cls-3ccc" transform="translate(-13.577 -28.17)"/>
        <path id="Path_3618" d="M1435.678 727.037a12.86 12.86 0 0 1-.071 4.862c.573.184 1.148.42 1.714.623a1.484 1.484 0 0 0 .039-.158 14.329 14.329 0 0 0 .286-4.071c-.661-.412-1.318-.828-1.968-1.256z" class="cls-3ccc" transform="translate(-12.688 -27.95)"/>
        <ellipse id="Ellipse_219" cx="67.716" cy="20.468" class="cls-14ccc" rx="67.716" ry="20.468" transform="translate(1512.536 692.061)"/>
        <path id="Path_3619" d="M1665.882 733.361c0 11.039-29.529 19.987-65.957 19.987s-65.957-8.948-65.957-19.987c0-1.943.033-5.59 1.74-7.366 7.987-8.315 34.2-12.621 64.218-12.621 29.368 0 57.045 5.471 65.588 13.51 2.052 1.933.368 4.337.368 6.477z" class="cls-11" transform="translate(-22.097 -26.643)"/>
        <ellipse id="Ellipse_220" cx="65.958" cy="19.987" class="cls-12" rx="65.958" ry="19.987" transform="translate(1512.536 682.067)"/>
        <g id="Group_4598" transform="translate(1519.91 685.791)">
            <g id="Group_4597" clip-path="url(#clip-path-5)" transform="translate(0 0)">
                <path id="Path_3620" d="M1690.368 727.246l-3.483 1.412-90.263-36.586 3.483-1.412z" class="cls-35" transform="translate(-1548 -710.261)"/>
                <path id="Path_3621" d="M1685.757 726.432l3.483 1.412-82.717 33.528-3.483-1.412z" class="cls-35" transform="translate(-1548.615 -713.683)"/>
                <path id="Path_3622" d="M1666.959 734.121l3.484-1.412L1653.9 726l14.8-6-3.483-1.412-14.8 6-8.707-3.529 14.8-6-3.483-1.412-14.8 6-8.707-3.529 14.8-6-3.483-1.412-14.8 6-8.707-3.529 14.8-6-3.483-1.412-14.8 6-8.707-3.53 14.8-6-3.484-1.412-14.8 6-21.477-8.705-3.483 1.412 21.477 8.705-8.707 3.53-21.477-8.706-3.483 1.412 21.477 8.706-8.708 3.529L1555.8 706l-3.483 1.412 21.476 8.705-8.706 3.529-21.477-8.705-3.484 1.412 21.477 8.706-8.707 3.529-21.477-8.705-3.483 1.412 21.478 8.705-8.707 3.53-21.477-8.706-3.483 1.412 21.477 8.705-3.483 1.413 3.483 1.412 3.483-1.412 8.707 3.529-3.483 1.412 3.483 1.412 3.483-1.412 8.707 3.53-3.483 1.412 3.483 1.412 3.484-1.412 8.707 3.529-3.484 1.412 3.483 1.412 3.484-1.412 8.707 3.53-3.483 1.412 3.483 1.412 3.483-1.412 16.543 6.7 3.483-1.411-16.543-6.706 8.707-3.53 16.543 6.706 3.483-1.412-16.544-6.706 8.707-3.529 16.544 6.706 3.483-1.413-16.544-6.7 8.707-3.53L1642.58 744l3.483-1.412-16.543-6.706 8.707-3.529 16.543 6.7 3.483-1.411-16.543-6.707 8.707-3.529zm-32.216-13.058l-8.706 3.529-8.707-3.529 8.707-3.53zm-36.57 4.937l-8.707 3.53-8.707-3.53 8.707-3.529zm-5.224-4.94l8.707-3.53 8.707 3.53-8.707 3.529zm-6.965 9.881l-8.707 3.53-8.707-3.53 8.707-3.529zm3.483 1.413l8.707 3.529-8.707 3.53-8.707-3.53zm3.483-1.413l8.707-3.529 8.707 3.529-8.707 3.53zm12.19-4.94l8.707-3.529 8.707 3.529-8.707 3.53zm17.414-9.882l-8.707 3.529-8.707-3.529 8.707-3.53zm-20.9-8.47l8.707 3.53-8.707 3.529-8.707-3.529zm-12.19 4.94l8.707 3.53-8.707 3.529-8.707-3.529zm-12.191 4.941l8.708 3.53-8.707 3.529-8.707-3.529zm-12.189 4.941l8.707 3.529-8.707 3.53-8.708-3.53zm-20.9 8.469l8.707-3.529 8.707 3.529-8.707 3.53zm12.19 4.941l8.708-3.529 8.707 3.529-8.707 3.53zm12.191 4.941l8.707-3.53 8.707 3.53-8.707 3.529zm20.9 8.47l-8.707-3.53 8.707-3.529 8.707 3.529zm12.19-4.941l-8.707-3.529 8.707-3.53 8.707 3.53zm12.19-4.94l-8.707-3.53 8.707-3.529 8.707 3.529zm12.19-4.941l-8.706-3.53 8.707-3.529 8.706 3.529zm12.191-4.94l-8.707-3.53 8.707-3.529 8.707 3.529z" class="cls-36" transform="translate(-1540.264 -710.784)"/>
                <path id="Path_3623" d="M1604.882 693.651l3.483 1.412-82.717 33.528-3.483-1.412z" class="cls-35" transform="translate(-1540.878 -710.547)"/>
            </g>
        </g>
        <path id="Path_3624" d="M1601.747 744.66c-33.67 0-60.044-7.316-60.044-16.656s26.374-16.655 60.044-16.655 60.045 7.316 60.045 16.655-26.375 16.656-60.045 16.656zm0-31.527c-34.708 0-58.023 7.69-58.023 14.871s23.315 14.872 58.023 14.872 58.024-7.69 58.024-14.872-23.315-14.872-58.024-14.872z" class="cls-36" transform="translate(-22.837 -26.449)"/>
        <path id="Path_3625" fill="#cdd4de" d="M1648.99 715.146c2.085 1.946 3.226 4.021 3.226 6.177 0 11.038-29.531 19.988-65.957 19.988-18.9 0-35.936-2.414-47.961-6.274 8.588 8.014 33.42 13.81 62.732 13.81 36.427 0 65.958-8.949 65.958-19.987-.002-5.312-6.85-10.135-17.998-13.714z" transform="translate(-22.511 -26.812)"/>
    </g>
</svg>
