<svg xmlns="http://www.w3.org/2000/svg" xmlns:xlink="http://www.w3.org/1999/xlink" width="62" height="62" viewBox="0 0 62 62">
  <defs>
    <clipPath id="clip-path">
      <circle id="Ellipse_254" data-name="Ellipse 254" cx="31" cy="31" r="31" transform="translate(0 0)" fill="none"/>
    </clipPath>
    <linearGradient id="linear-gradient" y1="0.5" x2="1" y2="0.5" gradientUnits="objectBoundingBox">
      <stop offset="0.001" stop-color="#ee7c41"/>
      <stop offset="1" stop-color="#e0407d"/>
    </linearGradient>
  </defs>
  <g id="Group_4701" data-name="Group 4701" transform="translate(1.92 -4573.263)">
    <g id="Group_4701-2" data-name="Group 4701" transform="translate(-1.92 4573.263)" clip-path="url(#clip-path)">
      <circle id="Ellipse_253" data-name="Ellipse 253" cx="31" cy="31" r="31" transform="translate(0 0)" fill="url(#linear-gradient)"/>
      <path id="Path_3912" data-name="Path 3912" d="M-471.188,4190.6c-3.594.921-7.251,1.679-10.93,2.265a25.047,25.047,0,0,0-4.293-7.494l-.009-.089c-.043-.417-.087-.849-.126-1.271a45.239,45.239,0,0,1,.574-13.554,64.713,64.713,0,0,0,8.086-1.206l-.237-1.09a63.079,63.079,0,0,1-7.588,1.152l.016-.064a27.41,27.41,0,0,1,6.911-12.819l-.791-.786a28.521,28.521,0,0,0-7.2,13.337q-.053.215-.1.432c-2.012.157-4.03.236-6.05.262a115.543,115.543,0,0,0,3.275-12.562,21.775,21.775,0,0,0,.576-6.4q10.883-1.465,21.623-3.69l-.226-1.092q-10.692,2.216-21.555,3.678c-.1-.529-.227-1.051-.365-1.565q1-.821,2.154-1.63c2.17-1.519,4.548-2.87,6.646-4.062l-.551-.97a65.416,65.416,0,0,0-8.577,5.5c-.167-.583-.337-1.183-.475-1.773a38.655,38.655,0,0,1-.465-10.462c.025-.552.051-1.123.073-1.684.112-2.87.121-5.781.026-8.651-.055-1.684-.322-3.739-1.906-4.691l-.574.956c1.117.671,1.317,2.284,1.366,3.772.094,2.844.085,5.728-.026,8.571-.022.557-.048,1.126-.073,1.677a39.485,39.485,0,0,0,.493,10.766c.151.651.337,1.3.517,1.925l.107.373a25.452,25.452,0,0,0-2.519,2.484q-10.326,1.25-20.715,1.806a10.251,10.251,0,0,0-1.322-3.293,9.076,9.076,0,0,0-.666-.926c.21-2.041.373-4.126.463-6.222.078-1.824.1-3.686.126-5.485q.014-1.1.032-2.2,1.443-2.8,3.158-5.442l-.936-.607q-1.138,1.754-2.159,3.579a46.439,46.439,0,0,1,1.549-11.371l-1.071-.312a53.077,53.077,0,0,0-1.652,13.875,66.211,66.211,0,0,0-4.542,11.4c-3.147-.378-6.4,1.067-9.334,2.37l-.389.172q-1.136.5-2.292.969a83.059,83.059,0,0,1-1.958-14.8l-1.114.046a84.176,84.176,0,0,0,2.023,15.171,75.435,75.435,0,0,1-9.013,2.843,68.809,68.809,0,0,1-15.7-3.453l-.374,1.05a66.826,66.826,0,0,0,12.881,3.12,75.237,75.237,0,0,1-11.342,1.407l.052,1.114a76.362,76.362,0,0,0,13.942-1.96q.307-.073.614-.148.355.039.713.075c2.919.293,5.967.472,9.407.544q.433,1.508.923,3a42.006,42.006,0,0,0,2.638,6.5c.9,1.721,1.989,3.389,3.044,5l.234.357-.441-.022-.022.435a17.67,17.67,0,0,1-2.974-.066,47.523,47.523,0,0,1-5.136-.914c-1.227-.265-2.5-.539-3.763-.737-1.818-.285-4.146-.463-6.018.7a5.72,5.72,0,0,0-2.036,2.232,36.264,36.264,0,0,1-5.1-7.323l-.992.51a37.912,37.912,0,0,0,5.609,7.946l-.007.02a11.653,11.653,0,0,0-.571,3.309,161.715,161.715,0,0,0-19.686,5.139l.367,1.053a159.314,159.314,0,0,1,19.316-5.051,50.4,50.4,0,0,0,.574,5.592,39.462,39.462,0,0,1,.559,6.793,40.626,40.626,0,0,1-.528,4.647c-.422,2.768-.859,5.63-.231,8.439l1.088-.243c-.582-2.6-.18-5.239.245-8.028a41.461,41.461,0,0,0,.54-4.777,40.291,40.291,0,0,0-.57-6.987,47.72,47.72,0,0,1-.569-5.672l1.391-.294c.529-.112,1.062-.224,1.6-.333,2,1.908,4.088,3.724,6.155,5.518.552.48,1.124.976,1.681,1.463,2.923,2.556,5.831,5.209,8.642,7.886q.511.486,1.052,1.008-.116.376-.233.751a160.463,160.463,0,0,1-5.752,15.617,130.124,130.124,0,0,1-7.513,14.815l.959.569a131.253,131.253,0,0,0,7.578-14.942,161.611,161.611,0,0,0,5.792-15.726l.066-.212a107.214,107.214,0,0,1,9.064,9.875,52.546,52.546,0,0,1,8.064,13.623l1.039-.4a53.642,53.642,0,0,0-8.23-13.912,110.282,110.282,0,0,0-9.57-10.38c1.114-3.668,2.149-7.487,3.115-11.49q.084.244.171.484a23.794,23.794,0,0,0,6.562,9.979,21.77,21.77,0,0,0,5.88,3.635,29.128,29.128,0,0,0,6.67,1.862,43.458,43.458,0,0,0,6.936.518,68.2,68.2,0,0,0,7.145-.406l.19-.021c-.276.985-.593,1.958-.907,2.918l1.06.346c.363-1.113.733-2.245,1.039-3.4q2-.234,4-.538.04.127.079.254l1.067-.324-.032-.1c3.651-.588,7.281-1.343,10.849-2.257Zm-16.482-6.634a24.451,24.451,0,0,0-2.64-2.363c-.208-.161-.422-.32-.628-.475a9.69,9.69,0,0,1-2.6-2.476,6.025,6.025,0,0,1-.7-3.979,20.692,20.692,0,0,1,.939-3.879c2.056-.02,4.114-.093,6.166-.244A46.517,46.517,0,0,0-487.67,4183.963Zm-3.082-27.073a114.422,114.422,0,0,1-3.357,12.791c-2.594.007-5.188-.066-7.768-.173a66.5,66.5,0,0,0,2.957-6.648l.129-.324c1.529-3.846,3.11-7.824,5.7-11.037q.127-.157.258-.312,1.321-.162,2.64-.334A20.959,20.959,0,0,1-490.752,4156.891Zm.2-8.044c.075.3.143.6.2.9q-.662.087-1.325.171Q-491.141,4149.378-490.549,4148.846Zm-3.854,2.529c-2.434,3.228-3.953,7.048-5.424,10.749l-.129.324a61.255,61.255,0,0,1-3.161,7.006c-1.364-.061-2.723-.129-4.075-.2l-12.221-.613q.208-1.052.412-2.121a13.162,13.162,0,0,0,.863-1.012,20.291,20.291,0,0,0,1.827-2.9,17.2,17.2,0,0,0,2.405-9.259q-.011-.154-.026-.307Q-504.152,4152.518-494.4,4151.375Zm-28.219,15.836a64.244,64.244,0,0,1,.721-13.839q2-.056,4-.138c-.271,1.908-.562,3.743-.847,5.47q-.617,3.736-1.286,7.275a9.036,9.036,0,0,1-1.228,1.032,8.613,8.613,0,0,1-1.327.75C-522.6,4167.579-522.612,4167.4-522.623,4167.212Zm.911-14.96q.545-3.049,1.376-6.037a6.493,6.493,0,0,1,.776.256,6.437,6.437,0,0,1,2.3,1.614c-.146,1.366-.311,2.712-.489,4.026Q-519.728,4152.195-521.712,4152.252Zm6.693,1.179a16.14,16.14,0,0,1-2.278,8.658,20.906,20.906,0,0,1-1.274,2.122q.476-2.611.924-5.324c.3-1.8.6-3.709.88-5.7q.859-.039,1.719-.082Q-515.031,4153.267-515.019,4153.431Zm-5.354,14.315q-.083.422-.166.842l-1.09-.055a9.573,9.573,0,0,0,1-.6C-520.542,4167.869-520.457,4167.808-520.373,4167.746Zm-3.184,1.807q.049.491.107.974-.3-.5-.612-1Zm1.126.056,1.669.084q-.44,2.167-.9,4.263-.091-.211-.186-.419Q-522.219,4171.648-522.431,4169.609Zm1.479,6.268q.682-2.994,1.317-6.127l12.387.621q1.743.088,3.5.171a22.016,22.016,0,0,1-2.269,3.1,15.3,15.3,0,0,1-5.005,3.776,10.642,10.642,0,0,1-5.942.972,13.33,13.33,0,0,1-3.628-1.144Q-520.742,4176.552-520.952,4175.877Zm5.715-23.88q-.688.034-1.376.065.176-1.315.334-2.668A9.139,9.139,0,0,1-515.237,4152Zm-1.388-15.842c-.023,1.743-.048,3.54-.123,5.295s-.2,3.505-.366,5.228a7.349,7.349,0,0,0-2.03-1.24,7.61,7.61,0,0,0-.884-.295A65.247,65.247,0,0,1-516.624,4136.154Zm-13.775,12.339.39-.173a32.342,32.342,0,0,1,5.339-2.009,9.794,9.794,0,0,1,3.231-.29q-.855,3.094-1.41,6.261-1.149.029-2.3.05c-2.539.045-4.857.051-7.016.018q-.387-1.4-.724-2.808Q-531.632,4149.04-530.4,4148.494Zm-9.623,3.505q3.087-.9,6.087-2.046.288,1.191.609,2.374C-535.718,4152.271-537.92,4152.163-540.022,4152Zm14.549,15.338c-1.04-1.591-2.115-3.236-2.988-4.908a40.964,40.964,0,0,1-2.567-6.327q-.43-1.31-.816-2.633c.816.011,1.654.017,2.519.017,1.334,0,2.73-.013,4.2-.039q1.046-.019,2.091-.045a65.347,65.347,0,0,0-.7,13.873q.026.456.059.9-.371.119-.761.213l-.36-.019Q-525.135,4167.854-525.473,4167.337Zm-18.465,1.31c1.56-.968,3.629-.8,5.257-.544,1.236.194,2.489.464,3.7.726a48.506,48.506,0,0,0,5.258.934,17.624,17.624,0,0,0,4.447-.07,40.233,40.233,0,0,1,2.044,3.531q.164.328.313.65.257,1.295.585,2.52l-.644-.334c-.794-.413-1.615-.84-2.444-1.216a25.3,25.3,0,0,0-11.121-2.241,39.927,39.927,0,0,0-6.634.861c-.885-.858-1.749-1.735-2.579-2.637A4.8,4.8,0,0,1-543.938,4168.647Zm-1.422,5.267-1.138.24a11.2,11.2,0,0,1,.326-2.135q.82.871,1.674,1.713Zm19.076,14.818c-2.823-2.687-5.742-5.352-8.677-7.918-.559-.489-1.131-.985-1.684-1.466-1.858-1.613-3.736-3.244-5.543-4.941a36.338,36.338,0,0,1,5.676-.69,24.182,24.182,0,0,1,10.628,2.142c.8.364,1.61.784,2.391,1.19.333.173.668.347,1,.519-.974,4.111-2.021,8.027-3.148,11.783Zm37.91,4.961a52.192,52.192,0,0,1-13.786-.1,28.021,28.021,0,0,1-6.414-1.788,20.653,20.653,0,0,1-5.579-3.448,22.691,22.691,0,0,1-6.248-9.52l-.048-.135.088-.01c0-.044-.01-.088-.015-.132a13.516,13.516,0,0,0,3.252.939,11.76,11.76,0,0,0,6.567-1.062,16.425,16.425,0,0,0,5.375-4.052,23.7,23.7,0,0,0,2.7-3.783c2.659.114,5.335.2,8.015.2-.823,2.6-1.617,5.85-.014,8.439a10.657,10.657,0,0,0,2.878,2.782c.2.152.414.31.615.465a23.5,23.5,0,0,1,3.505,3.339,28.038,28.038,0,0,1,.189,4.925,18.653,18.653,0,0,1-.47,2.878Zm1.783-.2a19.13,19.13,0,0,0,.406-2.657,22.492,22.492,0,0,0-.034-3.394,23.858,23.858,0,0,1,2.978,5.6Q-484.915,4193.287-486.591,4193.49Z" transform="translate(546.296 -4136.473)" fill="#e6007a"/>
      <path id="Path_3913" data-name="Path 3913" d="M462.044,5172.992h6.363l2.029-7.356a1.028,1.028,0,0,1,1.985,0l2.022,7.355h6.351l4.869-18.81H479.7l-1.523,7.465a1.028,1.028,0,0,1-2.009.04l-1.836-7.5h-5.816l-1.788,7.551a1.028,1.028,0,0,1-2.01-.028l-.537-2.574a6.192,6.192,0,0,0-6.047-4.949h-.947Z" transform="translate(-440.12 -5131.587)" fill="#fff"/>
    </g>
  </g>
</svg>
