<svg xmlns="http://www.w3.org/2000/svg" width="44" height="44" viewBox="0 0 44 44">
    <defs>
        <style>
            .cls-1ab{fill:red}
        </style>
    </defs>
    <g id="Group_4476" transform="translate(-1309 -1216)">
        <g id="Group_4475" transform="translate(197 5)">
            <circle id="Ellipse_189" cx="22" cy="22" r="22" class="cls-1ab" transform="translate(1112 1211)"/>
        </g>
        <g id="YouTube-Icon-Full-Color-Logo.wine" transform="translate(1317.676 1228.613)">
            <path id="Path_3511" fill="#fff" d="M26.088 2.931A3.348 3.348 0 0 0 23.732.56C21.654 0 13.322 0 13.322 0S4.99 0 2.912.56A3.347 3.347 0 0 0 .557 2.931 35.125 35.125 0 0 0 0 9.386a35.126 35.126 0 0 0 .557 6.455 3.348 3.348 0 0 0 2.356 2.371c2.078.56 10.41.56 10.41.56s8.332 0 10.41-.56a3.348 3.348 0 0 0 2.356-2.371 35.119 35.119 0 0 0 .557-6.455 35.118 35.118 0 0 0-.557-6.455"/>
            <path id="Path_3512" d="M93.333 55.7l6.964-3.961-6.964-3.962z" class="cls-1ab" transform="translate(-82.736 -42.351)"/>
        </g>
    </g>
</svg>
